%FSLAX35Y35*%
%MOIN*%
%IN2 = Copper bottom L1   ( x.Bot )*%
%ADD10C,0.00591*%
%ADD11C,0.00768*%
%ADD12C,0.00780*%
%ADD13C,0.00787*%
%ADD14C,0.01040*%
%ADD15C,0.01181*%
%ADD16C,0.01575*%
%ADD17C,0.01800*%
%ADD18C,0.02000*%
%ADD19C,0.02340*%
%ADD20C,0.02362*%
%ADD21C,0.02400*%
%ADD22C,0.02496*%
%ADD23C,0.02500*%
%ADD24C,0.03000*%
%ADD25C,0.03150*%
%ADD26C,0.03200*%
%ADD27C,0.03500*%
%ADD28C,0.04000*%
%ADD29C,0.05000*%
%ADD30C,0.06000*%
%ADD31C,0.06500*%
%ADD32C,0.07000*%
%ADD33C,0.07500*%
%ADD34C,0.07874*%
%ADD35C,0.08000*%
%ADD36C,0.15748*%
%ADD37C,0.23622*%
%ADD38R,0.02717X0.05787*%
%ADD39R,0.03937X0.04724*%
%ADD40R,0.03937X0.06299*%
%ADD41R,0.04000X0.06000*%
%ADD42R,0.04000X0.06500*%
%ADD43R,0.04724X0.03937*%
%ADD44R,0.04724X0.07874*%
%ADD45R,0.04921X0.03937*%
%ADD46R,0.05500X0.07000*%
%ADD47R,0.06299X0.03937*%
%ADD48R,0.06500X0.04000*%
%ADD49R,0.07000X0.10000*%
%ADD50R,0.07800X0.09800*%
%ADD51R,0.07874X0.04724*%
%ADD52R,0.07874X0.09843*%
%ADD53R,0.08000X0.05000*%
%ADD54R,0.08000X0.08000*%
%ADD55R,0.08000X0.10000*%
%ADD56R,0.09000X0.09000*%
%ADD57R,0.09843X0.07874*%
%ADD58R,0.11811X0.11811*%
%ADD59R,0.11811X0.27559*%
%ADD60R,0.13000X0.19000*%
%ADD61R,0.19685X0.15938*%
%AMOCT_62*4,1,8,0.023622,0.011811,0.011811,0.023622,-0.011811,0.023622,-0.023622,0.011811,-0.023622,-0.011811,-0.011811,-0.023622,0.011811,-0.023622,0.023622,-0.011811,0.023622,0.011811,0*%
%ADD62OCT_62*%
%AMOCT_63*4,1,8,0.030000,0.040000,0.015000,0.055000,-0.015000,0.055000,-0.030000,0.040000,-0.030000,-0.040000,-0.015000,-0.055000,0.015000,-0.055000,0.030000,-0.040000,0.030000,0.040000,0*%
%ADD63OCT_63*%
%AMOCT_64*4,1,8,0.035000,0.022500,0.017500,0.040000,-0.017500,0.040000,-0.035000,0.022500,-0.035000,-0.022500,-0.017500,-0.040000,0.017500,-0.040000,0.035000,-0.022500,0.035000,0.022500,0*%
%ADD64OCT_64*%
%AMOCT_65*4,1,8,0.035000,0.027500,0.017500,0.045000,-0.017500,0.045000,-0.035000,0.027500,-0.035000,-0.027500,-0.017500,-0.045000,0.017500,-0.045000,0.035000,-0.027500,0.035000,0.027500,0*%
%ADD65OCT_65*%
%AMOCT_66*4,1,8,0.035000,0.032500,0.017500,0.050000,-0.017500,0.050000,-0.035000,0.032500,-0.035000,-0.032500,-0.017500,-0.050000,0.017500,-0.050000,0.035000,-0.032500,0.035000,0.032500,0*%
%ADD66OCT_66*%
%AMOCT_67*4,1,8,0.036000,0.018000,0.018000,0.036000,-0.018000,0.036000,-0.036000,0.018000,-0.036000,-0.018000,-0.018000,-0.036000,0.018000,-0.036000,0.036000,-0.018000,0.036000,0.018000,0*%
%ADD67OCT_67*%
%AMOCT_68*4,1,8,0.036000,0.032000,0.018000,0.050000,-0.018000,0.050000,-0.036000,0.032000,-0.036000,-0.032000,-0.018000,-0.050000,0.018000,-0.050000,0.036000,-0.032000,0.036000,0.032000,0*%
%ADD68OCT_68*%
%AMOCT_69*4,1,8,0.037500,0.018750,0.018750,0.037500,-0.018750,0.037500,-0.037500,0.018750,-0.037500,-0.018750,-0.018750,-0.037500,0.018750,-0.037500,0.037500,-0.018750,0.037500,0.018750,0*%
%ADD69OCT_69*%
%AMOCT_70*4,1,8,0.040000,0.020000,0.020000,0.040000,-0.020000,0.040000,-0.040000,0.020000,-0.040000,-0.020000,-0.020000,-0.040000,0.020000,-0.040000,0.040000,-0.020000,0.040000,0.020000,0*%
%ADD70OCT_70*%
%AMOCT_71*4,1,8,0.045000,0.022500,0.022500,0.045000,-0.022500,0.045000,-0.045000,0.022500,-0.045000,-0.022500,-0.022500,-0.045000,0.022500,-0.045000,0.045000,-0.022500,0.045000,0.022500,0*%
%ADD71OCT_71*%
%AMOCT_72*4,1,8,0.045000,0.037500,0.022500,0.060000,-0.022500,0.060000,-0.045000,0.037500,-0.045000,-0.037500,-0.022500,-0.060000,0.022500,-0.060000,0.045000,-0.037500,0.045000,0.037500,0*%
%ADD72OCT_72*%
%AMOCT_73*4,1,8,0.050000,0.017500,0.032500,0.035000,-0.032500,0.035000,-0.050000,0.017500,-0.050000,-0.017500,-0.032500,-0.035000,0.032500,-0.035000,0.050000,-0.017500,0.050000,0.017500,0*%
%ADD73OCT_73*%
%AMOCT_74*4,1,8,0.060000,0.022500,0.037500,0.045000,-0.037500,0.045000,-0.060000,0.022500,-0.060000,-0.022500,-0.037500,-0.045000,0.037500,-0.045000,0.060000,-0.022500,0.060000,0.022500,0*%
%ADD74OCT_74*%
%AMOCT_75*4,1,8,0.060000,0.030000,0.030000,0.060000,-0.030000,0.060000,-0.060000,0.030000,-0.060000,-0.030000,-0.030000,-0.060000,0.030000,-0.060000,0.060000,-0.030000,0.060000,0.030000,0*%
%ADD75OCT_75*%
%AMOCT_76*4,1,8,0.075000,0.037500,0.037500,0.075000,-0.037500,0.075000,-0.075000,0.037500,-0.075000,-0.037500,-0.037500,-0.075000,0.037500,-0.075000,0.075000,-0.037500,0.075000,0.037500,0*%
%ADD76OCT_76*%
G54D17*
X759625Y533250D02*
X812500Y533250D01*
G54D18*
X847500Y579000D02*
X857500Y579000D01*
X867500Y579000D01*
X922500Y575625D02*
X907500Y575625D01*
X907500Y581530D01*
X907500Y575625D02*
X880625Y575625D01*
X877250Y579000D01*
X867500Y579000D01*
X803125Y518125D02*
X803125Y527250D01*
X812500Y533250D02*
X812500Y518125D01*
X767875Y560000D02*
X751625Y560000D01*
X751625Y548125D01*
X751625Y533250D01*
X827500Y560000D02*
X827500Y575000D01*
X803125Y575000D01*
X803125Y560000D01*
X778375Y560000D02*
X803125Y560000D01*
X803125Y548125D01*
X887500Y569719D02*
X897500Y569719D01*
X907500Y569719D01*
X907500Y565625D01*
X922500Y565625D02*
X907500Y565625D01*
X907500Y560000D01*
X907500Y565625D02*
X907500Y560000D01*
X773125Y518125D02*
X773125Y527250D01*
X793125Y494000D02*
X793125Y482500D01*
X798125Y482500D01*
X796625Y466875D02*
X793125Y466875D01*
X793125Y482500D01*
X783125Y494000D02*
X783125Y482500D01*
X778125Y482500D01*
X779625Y466875D02*
X783125Y466875D01*
X783125Y482500D01*
X783125Y518125D02*
X783125Y508500D01*
X793125Y518125D02*
X793125Y508500D01*
X783125Y548125D02*
X788125Y548125D01*
X793125Y548125D01*
X773125Y539000D02*
X788125Y539000D01*
X788125Y548125D02*
X788125Y539000D01*
X803125Y539000D01*
X847500Y568500D02*
X847500Y560000D01*
X857500Y568500D02*
X857500Y560000D01*
X867500Y568500D02*
X867500Y560000D01*
X887500Y581530D02*
X887500Y590000D01*
X887500Y609844D01*
X887842Y609844D01*
X897500Y581530D02*
X897500Y590000D01*
X897500Y602500D01*
X907183Y602500D01*
X907183Y609844D01*
X755625Y500000D02*
X755625Y493500D01*
X773125Y493500D01*
X755625Y523750D02*
X755625Y510000D01*
X817500Y590000D02*
X773125Y590000D01*
X773125Y548125D01*
X763375Y548125D02*
X773125Y548125D01*
X867500Y590000D02*
X867500Y613125D01*
X857500Y613125D02*
X857500Y601250D01*
X827500Y601250D01*
X827500Y590000D01*
X817500Y560000D02*
X817500Y534375D01*
X837500Y534375D01*
X837500Y543125D01*
X837500Y560000D02*
X837500Y551250D01*
X827500Y551250D01*
X827500Y543125D01*
X847500Y543125D02*
X847500Y551875D01*
X877500Y551875D01*
X877500Y560000D01*
G54D21*
X856250Y156250D02*
X856250Y201875D01*
X841250Y200000D02*
X841250Y188750D01*
X836250Y198125D02*
X836250Y181875D01*
X831250Y200000D02*
X831250Y173125D01*
X826250Y199375D02*
X826250Y164375D01*
X821250Y199375D02*
X821250Y173125D01*
X816250Y200000D02*
X816250Y181875D01*
X811250Y200000D02*
X811250Y188750D01*
X727500Y315000D02*
X816875Y315000D01*
X826250Y305625D01*
X826250Y240625D01*
X727500Y358750D02*
X751875Y358750D01*
X755625Y355000D01*
X827500Y355000D01*
X841250Y341250D01*
X841250Y240000D01*
X728750Y347500D02*
X824375Y347500D01*
X836250Y335625D01*
X836250Y240000D01*
X727500Y326875D02*
X814375Y326875D01*
X831250Y310000D01*
X831250Y240625D01*
X727500Y291875D02*
X800625Y291875D01*
X821250Y271250D01*
X821250Y240625D01*
X730000Y278750D02*
X805000Y278750D01*
X816250Y267500D01*
X816250Y240000D01*
X728125Y258750D02*
X803750Y258750D01*
X811250Y251250D01*
X811250Y238750D01*
X726875Y247500D02*
X803125Y247500D01*
X806250Y244375D01*
X806250Y238750D01*
X728125Y225000D02*
X800000Y225000D01*
X806250Y218750D01*
X806250Y202500D01*
X851250Y139375D02*
X851250Y200000D01*
X846250Y153750D02*
X846250Y202500D01*
X383750Y494250D02*
X383750Y487500D01*
X383750Y494250D02*
X384000Y494250D01*
X368625Y486875D02*
X376000Y494250D01*
X358125Y498125D02*
X358125Y486875D01*
X368625Y486875D01*
X323250Y544125D02*
X325000Y542375D01*
X325000Y498125D01*
X336250Y486875D01*
X358125Y486875D01*
X336250Y486875D02*
X368625Y486875D01*
X393469Y504375D02*
X392844Y503750D01*
X380000Y503750D01*
X323250Y552125D02*
X329969Y552125D01*
X331594Y553750D01*
X312500Y527765D02*
X312627Y527893D01*
X312500Y527765D02*
X312627Y527893D01*
X312500Y527765D02*
X312627Y527893D01*
X312500Y527765D01*
X312627Y527893D02*
X312500Y527765D01*
X312627Y527893D01*
X312500Y527765D02*
X312627Y527893D01*
X312500Y527765D02*
X312627Y527893D01*
X312500Y527765D01*
X312627Y527893D02*
X312500Y527765D01*
X312627Y527893D02*
X312500Y527765D01*
X312627Y527893D02*
X312500Y527765D01*
X312627Y527893D02*
X312500Y527765D01*
X312627Y527893D02*
X312500Y527765D01*
X312627Y527893D02*
X312500Y527765D01*
X312627Y527893D02*
X312500Y527765D01*
X312627Y527893D02*
X312500Y527765D01*
X312627Y527893D02*
X312500Y527765D01*
X312627Y527893D02*
X312500Y527765D01*
X312627Y527893D02*
X312500Y527765D01*
X312627Y527893D02*
X312500Y527765D01*
X312627Y527893D02*
X312500Y527765D01*
X312627Y527893D02*
X312500Y527765D01*
X312627Y527893D02*
X312500Y527765D01*
X312627Y527893D02*
X312500Y527765D01*
X312627Y527893D02*
X312500Y527765D01*
X312627Y527893D02*
X312500Y527765D01*
X329857Y579375D02*
X331594Y581875D01*
X331594Y565625D02*
X328750Y565625D01*
X318750Y565625D02*
X312500Y559375D01*
X312500Y548125D01*
X312500Y527765D02*
X312627Y527893D01*
X312500Y527765D02*
X312627Y527893D01*
X312500Y527765D02*
X312627Y527893D01*
X312500Y527765D02*
X312627Y527893D01*
X312500Y527765D02*
X312627Y527893D01*
X312500Y527765D02*
X312627Y527893D01*
X312500Y527765D02*
X312627Y527893D01*
X312500Y527765D02*
X312627Y527893D01*
X312500Y527765D02*
X312627Y527893D01*
X312500Y527765D02*
X312627Y527893D01*
X312500Y527765D02*
X312627Y527893D01*
X312500Y527765D02*
X312627Y527893D01*
X312500Y527765D02*
X312627Y527893D01*
X312500Y527765D02*
X312627Y527893D01*
X312500Y527765D02*
X312627Y527893D01*
X312500Y527765D02*
X312627Y527893D01*
X312500Y527765D02*
X312627Y527893D01*
X312500Y527765D02*
X312627Y527893D01*
X312500Y527765D02*
X312627Y527893D01*
X312500Y527765D02*
X312627Y527893D01*
X312500Y527765D02*
X312627Y527893D01*
X312500Y527765D02*
X312627Y527893D01*
X313750Y548125D02*
X312500Y548125D01*
X312500Y527765D01*
X312500Y548125D02*
X312500Y527765D01*
X312627Y527893D01*
X312500Y527765D02*
X312627Y527893D01*
X312500Y527765D02*
X312627Y527893D01*
X312500Y527765D02*
X312627Y527893D01*
X312500Y527765D02*
X312627Y527893D01*
X312500Y527765D02*
X312627Y527893D01*
X312500Y527765D02*
X312627Y527893D01*
X312500Y527765D02*
X312627Y527893D01*
X312500Y527765D02*
X312627Y527893D01*
X312500Y527765D02*
X312627Y527893D01*
X312500Y527765D02*
X312627Y527893D01*
X312500Y527765D02*
X312627Y527893D01*
X312500Y527765D02*
X312627Y527893D01*
X312500Y527765D02*
X312627Y527893D01*
X312500Y527765D02*
X312627Y527893D01*
X312500Y527765D02*
X312627Y527893D01*
X312500Y527765D02*
X312627Y527893D01*
X312500Y527765D02*
X312627Y527893D01*
X312500Y527765D02*
X312627Y527893D01*
X312500Y527765D02*
X312627Y527893D01*
X312500Y527765D02*
X312627Y527893D01*
X329857Y579375D02*
X328750Y581875D01*
X328750Y565625D01*
X318750Y565625D01*
X359872Y527893D02*
X361250Y526515D01*
X346392Y579375D02*
X343405Y581875D01*
X343405Y565625D02*
X345625Y565625D01*
X354375Y565625D02*
X359872Y560127D01*
X359872Y535625D01*
X346392Y579375D02*
X345625Y581875D01*
X346392Y579375D02*
X345625Y565625D01*
X354375Y565625D01*
X345625Y565625D02*
X343405Y565625D01*
X373750Y517500D02*
X366875Y517500D01*
X366875Y535625D01*
X359872Y535625D01*
X359872Y527893D01*
X359872Y535625D02*
X359872Y527893D01*
X343405Y553750D02*
X347500Y553750D01*
X347500Y538750D01*
X347500Y507500D01*
X347500Y500000D01*
X348125Y498125D01*
X405280Y490905D02*
X405280Y504375D01*
X405280Y490905D02*
X405000Y490625D01*
X400280Y180905D02*
X400280Y194375D01*
X400280Y180905D02*
X400000Y180625D01*
X354872Y217893D02*
X356250Y216515D01*
X341392Y269375D02*
X338405Y271875D01*
X338405Y255625D02*
X340625Y255625D01*
X349375Y255625D02*
X354872Y250127D01*
X354872Y225625D01*
X341392Y269375D02*
X340625Y271875D01*
X341392Y269375D02*
X340625Y255625D01*
X349375Y255625D01*
X340625Y255625D02*
X338405Y255625D01*
X368750Y207500D02*
X361875Y207500D01*
X361875Y225625D01*
X354872Y225625D01*
X354872Y217893D01*
X354872Y225625D02*
X354872Y217893D01*
X388469Y194375D02*
X387844Y193750D01*
X375000Y193750D01*
X307500Y217765D02*
X307627Y217893D01*
X307500Y217765D02*
X307627Y217893D01*
X307500Y217765D02*
X307627Y217893D01*
X307500Y217765D01*
X307627Y217893D02*
X307500Y217765D01*
X307627Y217893D01*
X307500Y217765D02*
X307627Y217893D01*
X307500Y217765D02*
X307627Y217893D01*
X307500Y217765D01*
X307627Y217893D02*
X307500Y217765D01*
X307627Y217893D02*
X307500Y217765D01*
X307627Y217893D02*
X307500Y217765D01*
X307627Y217893D02*
X307500Y217765D01*
X307627Y217893D02*
X307500Y217765D01*
X307627Y217893D02*
X307500Y217765D01*
X307627Y217893D02*
X307500Y217765D01*
X307627Y217893D02*
X307500Y217765D01*
X307627Y217893D02*
X307500Y217765D01*
X307627Y217893D02*
X307500Y217765D01*
X307627Y217893D02*
X307500Y217765D01*
X307627Y217893D02*
X307500Y217765D01*
X307627Y217893D02*
X307500Y217765D01*
X307627Y217893D02*
X307500Y217765D01*
X307627Y217893D02*
X307500Y217765D01*
X307627Y217893D02*
X307500Y217765D01*
X307627Y217893D02*
X307500Y217765D01*
X307627Y217893D02*
X307500Y217765D01*
X324857Y269375D02*
X326594Y271875D01*
X326594Y255625D02*
X323750Y255625D01*
X313750Y255625D02*
X307500Y249375D01*
X307500Y238125D01*
X307500Y217765D02*
X307627Y217893D01*
X307500Y217765D02*
X307627Y217893D01*
X307500Y217765D02*
X307627Y217893D01*
X307500Y217765D02*
X307627Y217893D01*
X307500Y217765D02*
X307627Y217893D01*
X307500Y217765D02*
X307627Y217893D01*
X307500Y217765D02*
X307627Y217893D01*
X307500Y217765D02*
X307627Y217893D01*
X307500Y217765D02*
X307627Y217893D01*
X307500Y217765D02*
X307627Y217893D01*
X307500Y217765D02*
X307627Y217893D01*
X307500Y217765D02*
X307627Y217893D01*
X307500Y217765D02*
X307627Y217893D01*
X307500Y217765D02*
X307627Y217893D01*
X307500Y217765D02*
X307627Y217893D01*
X307500Y217765D02*
X307627Y217893D01*
X307500Y217765D02*
X307627Y217893D01*
X307500Y217765D02*
X307627Y217893D01*
X307500Y217765D02*
X307627Y217893D01*
X307500Y217765D02*
X307627Y217893D01*
X307500Y217765D02*
X307627Y217893D01*
X307500Y217765D02*
X307627Y217893D01*
X308750Y238125D02*
X307500Y238125D01*
X307500Y217765D01*
X307500Y238125D02*
X307500Y217765D01*
X307627Y217893D01*
X307500Y217765D02*
X307627Y217893D01*
X307500Y217765D02*
X307627Y217893D01*
X307500Y217765D02*
X307627Y217893D01*
X307500Y217765D02*
X307627Y217893D01*
X307500Y217765D02*
X307627Y217893D01*
X307500Y217765D02*
X307627Y217893D01*
X307500Y217765D02*
X307627Y217893D01*
X307500Y217765D02*
X307627Y217893D01*
X307500Y217765D02*
X307627Y217893D01*
X307500Y217765D02*
X307627Y217893D01*
X307500Y217765D02*
X307627Y217893D01*
X307500Y217765D02*
X307627Y217893D01*
X307500Y217765D02*
X307627Y217893D01*
X307500Y217765D02*
X307627Y217893D01*
X307500Y217765D02*
X307627Y217893D01*
X307500Y217765D02*
X307627Y217893D01*
X307500Y217765D02*
X307627Y217893D01*
X307500Y217765D02*
X307627Y217893D01*
X307500Y217765D02*
X307627Y217893D01*
X307500Y217765D02*
X307627Y217893D01*
X324857Y269375D02*
X323750Y271875D01*
X323750Y255625D01*
X313750Y255625D01*
X338405Y243750D02*
X342500Y243750D01*
X342500Y228750D01*
X342500Y197500D01*
X342500Y190000D01*
X343125Y188125D01*
X363625Y176875D02*
X371000Y184250D01*
X353125Y188125D02*
X353125Y176875D01*
X363625Y176875D01*
X318250Y234125D02*
X320000Y232375D01*
X320000Y188125D01*
X331250Y176875D01*
X353125Y176875D01*
X331250Y176875D02*
X363625Y176875D01*
X318250Y242125D02*
X324969Y242125D01*
X326594Y243750D01*
X378750Y184250D02*
X378750Y177500D01*
X378750Y184250D02*
X379000Y184250D01*
G54D23*
X907500Y581530D02*
X907500Y590000D01*
X773125Y518125D02*
X773125Y509000D01*
X806875Y460000D02*
X806875Y456250D01*
X822500Y456250D01*
X773125Y501250D02*
X773125Y518125D01*
X806875Y501250D02*
X773125Y501250D01*
X857500Y543125D02*
X911250Y543125D01*
X916250Y538125D02*
X932500Y538125D01*
X911250Y543125D02*
X916250Y538125D01*
X806875Y460000D02*
X806875Y501250D01*
G54D24*
X837500Y500625D02*
X837500Y472500D01*
X860625Y472500D01*
X860625Y481875D02*
X860625Y472500D01*
X871973Y472588D01*
X812500Y472500D02*
X837500Y472500D01*
X803125Y518125D02*
X812500Y518125D01*
X812500Y472500D01*
X868750Y491250D02*
X897500Y491250D01*
X897500Y472497D02*
X920467Y472588D01*
X897500Y491250D02*
X897500Y472497D01*
X846875Y484517D02*
X846875Y491250D01*
X860625Y491250D01*
X837500Y515625D02*
X860625Y515625D01*
X860625Y491250D01*
X868750Y491250D01*
G54D26*
X872500Y225905D02*
X872500Y238125D01*
X861250Y238125D01*
X861250Y238375D01*
X940000Y90625D02*
X940000Y138750D01*
X922500Y156250D01*
X856250Y156250D01*
X872500Y214094D02*
X872500Y201875D01*
X872500Y201250D02*
X861250Y201250D01*
X872500Y201875D02*
X884375Y201875D01*
X872500Y201875D02*
X872500Y201250D01*
X885000Y201875D02*
X885000Y206875D01*
X884375Y201875D02*
X885000Y201875D01*
X846250Y238375D02*
X846250Y291250D01*
X851875Y296875D01*
X872500Y296875D01*
X871875Y296875D01*
X885000Y206875D02*
X885000Y213125D01*
X856250Y238375D02*
X856250Y246250D01*
X861250Y251250D01*
X880000Y251250D01*
X884375Y246875D01*
X884375Y226250D01*
X44750Y598750D02*
X56250Y598750D01*
X62500Y605000D01*
X62500Y612500D01*
X63086Y612300D01*
X44750Y498750D02*
X56250Y498750D01*
X60000Y502500D01*
X60000Y511250D01*
X45000Y90000D02*
X47500Y92500D01*
X45000Y90000D02*
X44750Y90000D01*
X47500Y92500D02*
X47500Y108750D01*
X47086Y108750D01*
X45000Y292500D02*
X48750Y292500D01*
X45000Y292500D02*
X44750Y293125D01*
X48750Y292500D02*
X52500Y296250D01*
X52500Y307500D01*
X851250Y238750D02*
X851250Y253125D01*
X857500Y259375D01*
X916875Y259375D01*
X948125Y228125D01*
X948125Y90625D01*
X870625Y163750D02*
X921875Y163750D01*
X940000Y181875D01*
X940000Y223750D01*
X925625Y238125D01*
X893125Y238125D01*
X43750Y393750D02*
X52500Y393750D01*
X57500Y398750D01*
X57500Y412500D01*
X57086Y412500D01*
X45000Y195000D02*
X50000Y200000D01*
X50000Y208750D01*
X50086Y208650D01*
X16250Y292500D02*
X32500Y292500D01*
G54D27*
X822500Y456250D02*
X846875Y456250D01*
X860625Y461875D02*
X860625Y456250D01*
X932500Y565625D02*
X922500Y565625D01*
X808125Y623750D02*
X847500Y623750D01*
X886097Y532500D02*
X878125Y532500D01*
X878125Y522874D01*
X822500Y523125D02*
X826875Y527500D01*
X865625Y527500D02*
X870625Y532500D01*
X886097Y532500D01*
X865625Y527500D02*
X826875Y527500D01*
X907652Y532500D02*
X918750Y532500D01*
X918750Y518750D01*
G54D28*
X964375Y78125D02*
X964375Y72250D01*
X773125Y386250D02*
X773125Y374437D01*
X973125Y385625D02*
X973125Y374125D01*
X975000Y682250D02*
X975000Y691250D01*
X310000Y673125D02*
X410625Y673125D01*
X310000Y673125D02*
X310000Y673375D01*
X410625Y673125D02*
X410625Y673375D01*
X410625Y673125D02*
X508750Y673125D01*
X410625Y673125D02*
X410625Y673375D01*
X307500Y365000D02*
X320000Y365000D01*
X307500Y365000D02*
X307500Y365250D01*
X320000Y365000D02*
X406875Y365000D01*
X505625Y365000D01*
X300000Y60000D02*
X399375Y60000D01*
X399375Y60250D01*
X399375Y60000D02*
X498125Y60000D01*
X399375Y60000D02*
X399375Y60250D01*
X498125Y60000D02*
X553750Y60000D01*
X557500Y63750D01*
X557500Y213125D02*
X557500Y610000D01*
X557250Y610000D01*
X557500Y213125D02*
X557500Y178750D01*
X595000Y178750D01*
X557500Y178750D02*
X557500Y63750D01*
X310000Y685375D02*
X310000Y696250D01*
X309936Y696250D01*
X399375Y81250D02*
X399375Y72250D01*
X101250Y138750D02*
X112750Y138750D01*
X103750Y282500D02*
X106875Y279375D01*
X131875Y279375D01*
X137500Y273750D01*
X137500Y226250D01*
X137500Y225000D02*
X129375Y225000D01*
X137500Y226250D02*
X137500Y137500D01*
X137500Y226250D02*
X137500Y225000D01*
X103750Y385000D02*
X103750Y282500D01*
X206875Y203750D02*
X212750Y203750D01*
X212500Y406875D02*
X212500Y396625D01*
X534000Y306250D02*
X527500Y306250D01*
X533375Y206250D02*
X524375Y206250D01*
X530250Y106250D02*
X521250Y106250D01*
X542750Y510000D02*
X534375Y510000D01*
X695875Y607500D02*
X687500Y607500D01*
X1001500Y303125D02*
X992500Y303125D01*
X999000Y203750D02*
X988750Y203750D01*
X995875Y103750D02*
X986250Y103750D01*
X999375Y507500D02*
X1009000Y507500D01*
X212500Y385000D02*
X212500Y384625D01*
X212500Y385000D01*
X243750Y696250D02*
X266250Y696250D01*
X276875Y696250D02*
X300000Y696250D01*
X345625Y696250D02*
X365000Y696250D01*
X378125Y696250D02*
X398125Y696250D01*
X410000Y694375D02*
X410000Y685625D01*
X445000Y696250D02*
X464375Y696250D01*
X478750Y696250D02*
X497500Y696250D01*
X510000Y685625D02*
X510000Y693750D01*
X220000Y671250D02*
X220000Y662500D01*
X208750Y651250D01*
X208750Y643125D01*
X218750Y638125D02*
X218750Y631250D01*
X208125Y620625D01*
X208125Y610000D01*
X216875Y571250D02*
X216875Y561250D01*
X206250Y550625D01*
X206250Y543750D01*
X216250Y537500D02*
X216250Y530625D01*
X205000Y519375D01*
X205000Y510625D01*
X216875Y507500D02*
X223125Y507500D01*
X203125Y441250D02*
X203125Y450625D01*
X213750Y461250D01*
X213750Y473750D01*
X213125Y438750D02*
X213125Y431250D01*
X202500Y420625D01*
X202500Y410625D01*
X537500Y673750D02*
X537500Y663750D01*
X526250Y652500D01*
X526250Y646250D01*
X536250Y640625D02*
X536250Y631250D01*
X525625Y620625D01*
X525625Y612500D01*
X545625Y610000D02*
X536875Y610000D01*
X534375Y573750D02*
X534375Y563750D01*
X523750Y553125D01*
X523750Y546250D01*
X533750Y540625D02*
X533750Y531250D01*
X522500Y520000D01*
X522500Y512500D01*
X531875Y474375D02*
X531875Y466250D01*
X520625Y455000D01*
X520625Y446250D01*
X530625Y440625D02*
X530625Y431875D01*
X519375Y420625D01*
X519375Y412500D01*
X531250Y410000D02*
X541875Y410000D01*
X242500Y390625D02*
X262500Y390625D01*
X275625Y390625D02*
X295625Y390625D01*
X342500Y390625D02*
X361875Y390625D01*
X375625Y390625D02*
X395625Y390625D01*
X442500Y390625D02*
X461875Y390625D01*
X475625Y390625D02*
X495625Y390625D01*
X507500Y388750D02*
X507500Y377500D01*
X527500Y370625D02*
X527500Y361250D01*
X516250Y350000D01*
X516250Y341875D01*
X526250Y336875D02*
X526250Y328750D01*
X515625Y318125D01*
X515625Y308750D01*
X524375Y270000D02*
X524375Y261875D01*
X513750Y251250D01*
X513750Y242500D01*
X523750Y236875D02*
X523750Y226875D01*
X512500Y215625D01*
X512500Y208750D01*
X521875Y170625D02*
X521875Y161250D01*
X510625Y150000D01*
X510625Y141250D01*
X520625Y137500D02*
X520625Y128125D01*
X509375Y116875D01*
X509375Y108750D01*
X488750Y83750D02*
X465811Y83750D01*
X453750Y83750D02*
X433750Y83750D01*
X387500Y83750D02*
X367500Y83750D01*
X353750Y83750D02*
X334375Y83750D01*
X299375Y81250D02*
X299375Y73125D01*
X191875Y106250D02*
X191875Y111250D01*
X203125Y122500D01*
X203125Y134375D01*
X193125Y139375D02*
X193125Y147500D01*
X203750Y158125D01*
X203750Y167500D01*
X195000Y205625D02*
X195000Y212500D01*
X206250Y223750D01*
X206250Y234375D01*
X196250Y240000D02*
X196250Y250000D01*
X206875Y260625D01*
X206875Y268125D01*
X216250Y303750D02*
X210000Y303750D01*
X198125Y306250D02*
X198125Y315000D01*
X209375Y326250D01*
X209375Y333750D01*
X198750Y340000D02*
X198750Y348750D01*
X210000Y360000D01*
X210000Y366875D01*
X234375Y83750D02*
X253750Y83750D01*
X267500Y83750D02*
X287500Y83750D01*
X201875Y101250D02*
X201875Y89375D01*
X307500Y388125D02*
X307500Y378125D01*
X407500Y388125D02*
X407500Y377500D01*
X498750Y81250D02*
X498750Y75000D01*
X210000Y673750D02*
X210086Y673900D01*
X710625Y693750D02*
X730000Y693750D01*
X744375Y693750D02*
X763125Y693750D01*
X810625Y693750D02*
X830625Y693750D01*
X843750Y693750D02*
X863750Y693750D01*
X910000Y693750D02*
X930625Y693750D01*
X943125Y693750D02*
X963750Y693750D01*
X775625Y683125D02*
X775625Y690625D01*
X875625Y683125D02*
X875625Y691875D01*
X687500Y671250D02*
X687500Y662500D01*
X676250Y651250D01*
X676250Y643750D01*
X686250Y637500D02*
X686250Y630625D01*
X675625Y620000D01*
X675625Y610000D01*
X684375Y571250D02*
X684375Y565000D01*
X673750Y554375D01*
X673750Y543125D01*
X679375Y397500D02*
X679375Y405000D01*
X683750Y537500D02*
X683750Y531875D01*
X672500Y520625D01*
X672500Y510625D01*
X684375Y507500D02*
X693125Y507500D01*
X681250Y471875D02*
X681250Y466875D01*
X670625Y456250D01*
X670625Y443125D01*
X680625Y437500D02*
X680625Y430000D01*
X669375Y418750D01*
X669375Y410000D01*
X708125Y388125D02*
X727500Y388125D01*
X741250Y388125D02*
X761250Y388125D01*
X808125Y388125D02*
X827500Y388125D01*
X841875Y388125D02*
X860625Y388125D01*
X873125Y385000D02*
X873125Y375000D01*
X960625Y388125D02*
X941250Y388125D01*
X908125Y388125D02*
X928125Y388125D01*
X1010000Y606875D02*
X1002500Y606875D01*
X996250Y407500D02*
X1010000Y407500D01*
X1002500Y671250D02*
X1002500Y663125D01*
X991250Y651875D01*
X991250Y643125D01*
X1001875Y637500D02*
X1001875Y635000D01*
X990625Y623750D01*
X990625Y610625D01*
X999375Y571250D02*
X999375Y565000D01*
X988750Y554375D01*
X988750Y543750D01*
X998750Y537500D02*
X998750Y528750D01*
X987500Y517500D01*
X987500Y509375D01*
X996875Y471875D02*
X996875Y466875D01*
X985625Y455625D01*
X985625Y443125D01*
X995625Y438750D02*
X995625Y431250D01*
X984375Y420000D01*
X984375Y410625D01*
X992500Y367500D02*
X992500Y359375D01*
X981250Y348125D01*
X981250Y338750D01*
X991250Y334375D02*
X991250Y326875D01*
X980625Y316250D01*
X980625Y306250D01*
X989375Y267500D02*
X989375Y259375D01*
X978125Y248125D01*
X978125Y239375D01*
X988750Y234375D02*
X988750Y228750D01*
X977500Y217500D01*
X977500Y206875D01*
X986875Y167500D02*
X986875Y163125D01*
X975625Y151875D01*
X975625Y140000D01*
X985625Y135000D02*
X985625Y129375D01*
X974375Y118125D01*
X974375Y106250D01*
X677500Y366875D02*
X677500Y365000D01*
X666250Y353750D01*
X666250Y340000D01*
X676875Y333750D02*
X676875Y331250D01*
X665625Y320000D01*
X665625Y305625D01*
X677500Y303750D02*
X685625Y303750D01*
X674375Y268125D02*
X674375Y262500D01*
X663750Y251875D01*
X663750Y239375D01*
X673750Y234375D02*
X673750Y227500D01*
X662500Y216250D01*
X662500Y206250D01*
X674375Y203750D02*
X683125Y203750D01*
X671250Y167500D02*
X671250Y159375D01*
X660625Y148750D01*
X660625Y140000D01*
X670625Y134375D02*
X670625Y125000D01*
X659375Y113750D01*
X659375Y106875D01*
X669375Y101250D02*
X669375Y93125D01*
X700000Y81250D02*
X720000Y81250D01*
X733750Y81250D02*
X753125Y81250D01*
X765000Y71250D02*
X765000Y78750D01*
X800000Y81250D02*
X819375Y81250D01*
X833750Y81250D02*
X853125Y81250D01*
X865000Y78750D02*
X865000Y71875D01*
X900000Y81250D02*
X919375Y81250D01*
X933750Y81250D02*
X953125Y81250D01*
X688125Y83750D02*
X688125Y93125D01*
X888125Y93125D01*
X888125Y83125D01*
X788125Y91250D02*
X788125Y83750D01*
X65000Y675625D02*
X65000Y665000D01*
X53750Y653750D01*
X53750Y648750D01*
X64375Y642500D02*
X64375Y634375D01*
X53125Y623125D01*
X53125Y615625D01*
X61875Y576250D02*
X61875Y568750D01*
X51250Y558125D01*
X51250Y548125D01*
X60625Y543750D02*
X60625Y532500D01*
X50000Y521875D01*
X50000Y514375D01*
X59375Y476250D02*
X59375Y470000D01*
X48125Y458750D01*
X48125Y448125D01*
X58125Y442500D02*
X58125Y437500D01*
X46875Y426250D01*
X46875Y415625D01*
X55000Y371875D02*
X55000Y362500D01*
X43750Y351250D01*
X43750Y345000D01*
X53750Y338750D02*
X53750Y334375D01*
X43125Y323750D01*
X43125Y311250D01*
X51875Y272500D02*
X51875Y265000D01*
X41250Y254375D01*
X41250Y245000D01*
X51250Y239375D02*
X51250Y229375D01*
X40000Y218125D01*
X40000Y211250D01*
X48750Y173125D02*
X48750Y171250D01*
X38125Y160625D01*
X38125Y145625D01*
X48125Y139375D02*
X48125Y136875D01*
X36875Y125625D01*
X36875Y111250D01*
X105625Y225000D02*
X115625Y225000D01*
X99375Y235000D02*
X87500Y235000D01*
X87500Y243125D01*
X90000Y255000D02*
X97500Y255000D01*
X107500Y245000D01*
X114375Y245000D01*
X95625Y148750D02*
X83750Y148750D01*
X83750Y156875D01*
X86250Y168750D02*
X94375Y168750D01*
X104375Y158750D01*
X110625Y158750D01*
X115625Y498750D02*
X125000Y498750D01*
X109375Y508750D02*
X97500Y508750D01*
X97500Y516875D01*
X100625Y528750D02*
X105625Y528750D01*
X115625Y518750D01*
X125000Y518750D01*
X125625Y138750D02*
X136250Y138750D01*
X238750Y607500D02*
X238750Y428750D01*
X250625Y416875D01*
X311875Y416875D01*
X319375Y409375D01*
X236875Y303750D02*
X236875Y203750D01*
X236875Y303750D02*
X229125Y303750D01*
X236875Y138750D02*
X212500Y114375D01*
X212500Y76250D01*
X212500Y70000D02*
X222500Y60000D01*
X298125Y60000D01*
X225625Y203750D02*
X236875Y203750D01*
X236875Y138750D01*
X200000Y76250D02*
X212500Y76250D01*
X212500Y70000D01*
X307500Y673125D02*
X247500Y673125D01*
X238750Y664375D01*
X238750Y610000D01*
X553750Y408750D02*
X556250Y408750D01*
X547500Y306250D02*
X556875Y306250D01*
X546250Y206250D02*
X556875Y206250D01*
X543750Y106250D02*
X555625Y106250D01*
X775625Y669375D02*
X875000Y669375D01*
X974375Y669375D01*
X774375Y670000D02*
X732500Y670000D01*
X716875Y654375D01*
X716875Y607500D01*
X716875Y419375D02*
X727500Y408750D01*
X778750Y408750D01*
X783125Y404375D01*
X783125Y363750D01*
X708750Y607500D02*
X716875Y607500D01*
X716875Y419375D01*
X773125Y361250D02*
X873750Y361250D01*
X972500Y361250D01*
X706250Y508125D02*
X716250Y508125D01*
X706250Y302500D02*
X706250Y121875D01*
X679375Y95000D01*
X679375Y81875D01*
X679375Y60000D02*
X680000Y59375D01*
X965000Y59375D01*
X669375Y81875D02*
X679375Y81875D01*
X679375Y60000D01*
X695625Y203750D02*
X706250Y203750D01*
X698750Y303125D02*
X706250Y303125D01*
X965625Y60000D02*
X1010625Y60000D01*
X1023125Y72500D01*
X1023125Y303125D01*
X1014375Y303125D02*
X1023125Y303125D01*
X1023125Y606250D01*
X1012500Y203750D02*
X1021875Y203750D01*
X1008750Y103750D02*
X1021875Y103750D01*
X706250Y304375D02*
X706250Y328125D01*
X688750Y345625D01*
X688750Y361250D01*
X688750Y381875D02*
X685000Y385625D01*
X678750Y385625D01*
X688750Y361250D02*
X688750Y381875D01*
X320000Y409375D02*
X320000Y365625D01*
X236875Y305000D02*
X236875Y315000D01*
X222500Y329375D01*
X222500Y381250D01*
X218750Y385000D01*
X214375Y385000D01*
X306875Y365000D02*
X223750Y365000D01*
X826250Y164375D02*
X826250Y93750D01*
X544375Y291250D02*
X513750Y291250D01*
X501250Y278750D01*
X501250Y110625D01*
X487500Y96875D01*
X422500Y96875D01*
X422500Y83125D01*
X774375Y361250D02*
X764375Y361250D01*
X748750Y376875D01*
X690000Y376875D01*
X668125Y370000D02*
X657500Y370000D01*
X653750Y366250D01*
X653750Y270625D01*
X653750Y173750D02*
X657083Y170625D01*
X661250Y170625D01*
X663750Y270625D02*
X653750Y270625D01*
X653750Y273750D02*
X653750Y184375D01*
X653750Y173750D01*
X566875Y218750D02*
X566875Y485625D01*
X575000Y240000D02*
X575000Y506250D01*
X568125Y513125D01*
X568125Y620625D01*
X552500Y636250D01*
X552500Y690000D01*
X532500Y710000D01*
X433125Y710000D01*
X433125Y696875D01*
X507500Y315000D02*
X493125Y300625D01*
X493125Y125625D01*
X477500Y110000D01*
X256875Y110000D01*
X248125Y118750D01*
X248125Y181875D01*
X544375Y348125D02*
X544375Y370000D01*
X511875Y402500D01*
X430625Y402500D01*
X430625Y393125D01*
X871875Y318125D02*
X871875Y360000D01*
X809375Y163750D02*
X796250Y176875D01*
X796250Y188750D01*
X679375Y58750D02*
X655000Y58750D01*
X639375Y74375D01*
X639375Y171250D01*
X631875Y178750D01*
X620000Y178750D01*
X218750Y607500D02*
X227500Y607500D01*
X32500Y91250D02*
X15000Y91250D01*
X15000Y195000D01*
X15000Y592500D02*
X21250Y598750D01*
X33750Y598750D01*
X15000Y498750D02*
X32500Y498750D01*
X15000Y498750D02*
X15000Y592500D01*
X15000Y393750D02*
X33750Y393750D01*
X15000Y393750D02*
X15000Y498750D01*
X15000Y195000D02*
X31250Y195000D01*
X15000Y195000D02*
X15000Y393750D01*
X137500Y140000D02*
X137500Y88750D01*
X126250Y77500D01*
X88750Y77500D01*
X22500Y77500D02*
X15000Y85000D01*
X15000Y92500D01*
X63750Y77500D02*
X22500Y77500D01*
X138750Y496250D02*
X138750Y460000D01*
X103750Y425000D01*
X103750Y385000D01*
X105000Y385000D02*
X211250Y385000D01*
X822500Y508125D02*
X822500Y493125D01*
X860625Y456250D02*
X932500Y456250D01*
X932500Y498750D01*
X918750Y498750D01*
X846875Y462982D02*
X846875Y456250D01*
X860625Y456250D01*
X932500Y498750D02*
X932500Y538125D01*
X932500Y565625D01*
X878125Y502874D02*
X878125Y498750D01*
X918750Y498750D01*
X767500Y620000D02*
X767500Y623750D01*
X847500Y623750D01*
X847500Y613125D01*
X909390Y623750D02*
X932500Y600625D01*
X932500Y565625D01*
X882500Y623750D02*
X847500Y623750D01*
X882500Y623750D02*
X909390Y623750D01*
X767500Y620000D02*
X767500Y613125D01*
G54D29*
X872500Y238125D03*
X940000Y90625D03*
X885000Y206875D03*
X841250Y188750D03*
X836250Y181875D03*
X831250Y173125D03*
X821250Y173125D03*
X816250Y181875D03*
X811250Y188750D03*
X727500Y247500D03*
X727500Y258750D03*
X567500Y218125D03*
X729375Y278750D03*
X727500Y291250D03*
X544375Y291250D03*
X727500Y315000D03*
X508125Y315000D03*
X727500Y326250D03*
X727500Y347500D03*
X727500Y358750D03*
X575000Y239375D03*
X727500Y225000D03*
X653750Y184375D03*
X566875Y485625D03*
X566875Y485625D03*
X248125Y181875D03*
X544375Y348125D03*
X948125Y90625D03*
X846250Y153750D03*
X851250Y139375D03*
X871250Y164375D03*
X893125Y238125D03*
X809375Y163750D03*
X796250Y188750D03*
G54D30*
X881250Y47500D02*
X881250Y42500D01*
X881250Y36875D02*
X871250Y36875D01*
X861250Y36875D01*
X881250Y42500D02*
X893750Y42500D01*
X881250Y42500D02*
X881250Y36875D01*
X893750Y42500D02*
X893750Y58750D01*
X851250Y37500D02*
X841250Y37500D01*
X841250Y47500D01*
X880625Y46875D02*
X881250Y46875D01*
X415000Y520625D02*
X417810Y520625D01*
X417810Y533125D01*
X409375Y582500D02*
X409375Y535625D01*
X409375Y533125D01*
X417810Y533125D01*
X417810Y535625D01*
X389375Y582500D02*
X389375Y590000D01*
X378750Y590000D01*
X384375Y272500D02*
X384375Y280000D01*
X373750Y280000D01*
X410000Y210625D02*
X412810Y210625D01*
X412810Y223125D01*
X404375Y272500D02*
X404375Y225625D01*
X404375Y223125D01*
X412810Y223125D01*
X412810Y225625D01*
G54D31*
X378750Y590000D02*
X378750Y604375D01*
X373750Y280000D02*
X373750Y294375D01*
G54D32*
X399375Y605000D02*
X401875Y605000D01*
X417810Y533125D02*
X417810Y535625D01*
X421250Y562500D02*
X435000Y562500D01*
X435000Y579060D01*
X435625Y579060D01*
X381875Y605000D02*
X378750Y604375D01*
X378750Y590000D01*
X378750Y582500D02*
X378750Y590000D01*
X378750Y582500D02*
X378750Y562500D01*
X381250Y562500D01*
X378750Y590000D02*
X378750Y582500D01*
X378750Y590000D02*
X378750Y604375D01*
X376875Y295000D02*
X373750Y294375D01*
X373750Y280000D01*
X373750Y272500D02*
X373750Y280000D01*
X373750Y272500D02*
X373750Y252500D01*
X376250Y252500D01*
X373750Y280000D02*
X373750Y272500D01*
X373750Y280000D02*
X373750Y294375D01*
X394375Y295000D02*
X396875Y295000D01*
X412810Y223125D02*
X412810Y225625D01*
X416250Y252500D02*
X430000Y252500D01*
X430000Y269060D01*
X430625Y269060D01*
G54D33*
X359872Y575925D02*
X359872Y605000D01*
X355000Y605000D01*
X378439Y535625D02*
X385000Y535625D01*
X393125Y543750D01*
X393125Y565625D01*
X388750Y570000D01*
X380000Y570000D01*
X380000Y561875D01*
X380625Y561875D01*
X381250Y562500D01*
X373439Y225625D02*
X380000Y225625D01*
X388125Y233750D01*
X388125Y255625D01*
X383750Y260000D01*
X375000Y260000D01*
X375000Y251875D01*
X375625Y251875D01*
X376250Y252500D01*
X354872Y265925D02*
X354872Y295000D01*
X350000Y295000D01*
G54D34*
X872500Y316875D03*
X872500Y296875D03*
G54D35*
X841250Y37500D03*
X841250Y47500D03*
X851250Y37500D03*
X851250Y47500D03*
X861250Y37500D03*
X861250Y47500D03*
X871250Y37500D03*
X871250Y47500D03*
X881250Y37500D03*
X881250Y47500D03*
X912500Y47500D03*
X922500Y47500D03*
G54D37*
X26250Y27500D03*
X126250Y27500D03*
X22500Y728750D03*
X127500Y730000D03*
X563750Y732500D03*
X550000Y27500D03*
X647500Y30000D03*
X1026250Y28750D03*
X1026250Y732500D03*
X647500Y733750D03*
X200000Y730000D03*
X198750Y27500D03*
G54D38*
X806250Y238399D03*
X811250Y238399D03*
X861250Y201250D03*
X856250Y201250D03*
X851250Y201250D03*
X846250Y201250D03*
X841250Y201250D03*
X836250Y201250D03*
X831250Y201250D03*
X826250Y201250D03*
X821250Y201250D03*
X816250Y201250D03*
X841250Y238375D03*
X836250Y238375D03*
X831250Y238375D03*
X826250Y238375D03*
X821250Y238375D03*
X816250Y238375D03*
X806250Y201250D03*
X811250Y201250D03*
X846250Y238375D03*
X851250Y238375D03*
X856250Y238375D03*
X861250Y238375D03*
G54D39*
X384000Y494250D03*
X376000Y494250D03*
X380000Y503750D03*
X379000Y184250D03*
X371000Y184250D03*
X375000Y193750D03*
G54D40*
X767875Y560000D03*
X778375Y560000D03*
X751625Y548125D03*
X763375Y548125D03*
G54D41*
X751625Y533250D03*
X759625Y533250D03*
X755625Y523750D03*
G54D43*
X323250Y552125D03*
X323250Y544125D03*
X313750Y548125D03*
X318250Y242125D03*
X318250Y234125D03*
X308750Y238125D03*
G54D44*
X138500Y498750D03*
X126500Y498750D03*
X128500Y225000D03*
X116500Y225000D03*
X124750Y138750D03*
X112750Y138750D03*
X57086Y412500D03*
X47086Y412500D03*
X58086Y445800D03*
X48086Y445800D03*
X59086Y479100D03*
X49086Y479100D03*
X60086Y512400D03*
X50086Y512400D03*
X61086Y545700D03*
X51086Y545700D03*
X62086Y579000D03*
X52086Y579000D03*
X63086Y612300D03*
X53086Y612300D03*
X64086Y645600D03*
X54086Y645600D03*
X65086Y678900D03*
X55086Y678900D03*
X32750Y598750D03*
X44750Y598750D03*
X243336Y696250D03*
X233336Y696250D03*
X276636Y696250D03*
X266636Y696250D03*
X309936Y696250D03*
X299936Y696250D03*
X343236Y696250D03*
X333236Y696250D03*
X376536Y696250D03*
X366536Y696250D03*
X409836Y696250D03*
X399836Y696250D03*
X443136Y696250D03*
X433136Y696250D03*
X476436Y696250D03*
X466436Y696250D03*
X509736Y696250D03*
X499736Y696250D03*
X32750Y498750D03*
X44750Y498750D03*
X32750Y393750D03*
X44750Y393750D03*
X32750Y90000D03*
X44750Y90000D03*
X32125Y195000D03*
X44125Y195000D03*
X32750Y293125D03*
X44750Y293125D03*
X55086Y375150D03*
X45086Y375150D03*
X54086Y341850D03*
X44086Y341850D03*
X53086Y308550D03*
X43086Y308550D03*
X52086Y275250D03*
X42086Y275250D03*
X51086Y241950D03*
X41086Y241950D03*
X50086Y208650D03*
X40086Y208650D03*
X49086Y175350D03*
X39086Y175350D03*
X48086Y142050D03*
X38086Y142050D03*
X47086Y108750D03*
X37086Y108750D03*
X202086Y103750D03*
X192086Y103750D03*
X203086Y137050D03*
X193086Y137050D03*
X204086Y170350D03*
X194086Y170350D03*
X205086Y203650D03*
X195086Y203650D03*
X206086Y236950D03*
X196086Y236950D03*
X207086Y270250D03*
X197086Y270250D03*
X208086Y303550D03*
X198086Y303550D03*
X209086Y336850D03*
X199086Y336850D03*
X210086Y370150D03*
X200086Y370150D03*
X229125Y303750D03*
X217125Y303750D03*
X224750Y203750D03*
X212750Y203750D03*
X236625Y507500D03*
X224625Y507500D03*
X239125Y607500D03*
X227125Y607500D03*
X220086Y673900D03*
X210086Y673900D03*
X219086Y640600D03*
X209086Y640600D03*
X218086Y607300D03*
X208086Y607300D03*
X217086Y574000D03*
X207086Y574000D03*
X216086Y540700D03*
X206086Y540700D03*
X215086Y507400D03*
X205086Y507400D03*
X214086Y474100D03*
X204086Y474100D03*
X213086Y440800D03*
X203086Y440800D03*
X212086Y407500D03*
X202086Y407500D03*
X519586Y106250D03*
X509586Y106250D03*
X520586Y139550D03*
X510586Y139550D03*
X521586Y172850D03*
X511586Y172850D03*
X522586Y206150D03*
X512586Y206150D03*
X523586Y239450D03*
X513586Y239450D03*
X524586Y272750D03*
X514586Y272750D03*
X525586Y306050D03*
X515586Y306050D03*
X526586Y339350D03*
X516586Y339350D03*
X527586Y372650D03*
X517586Y372650D03*
X546000Y306250D03*
X534000Y306250D03*
X545375Y206250D03*
X533375Y206250D03*
X542250Y106250D03*
X530250Y106250D03*
X553500Y409375D03*
X541500Y409375D03*
X554750Y510000D03*
X542750Y510000D03*
X557250Y610000D03*
X545250Y610000D03*
X537586Y676400D03*
X527586Y676400D03*
X536586Y643100D03*
X526586Y643100D03*
X535586Y609800D03*
X525586Y609800D03*
X534586Y576500D03*
X524586Y576500D03*
X533586Y543200D03*
X523586Y543200D03*
X532586Y509900D03*
X522586Y509900D03*
X531586Y476600D03*
X521586Y476600D03*
X530586Y443300D03*
X520586Y443300D03*
X529586Y410000D03*
X519586Y410000D03*
X669586Y103750D03*
X659586Y103750D03*
X670586Y137050D03*
X660586Y137050D03*
X671586Y170350D03*
X661586Y170350D03*
X672586Y203650D03*
X662586Y203650D03*
X673586Y236950D03*
X663586Y236950D03*
X674586Y270250D03*
X664586Y270250D03*
X675586Y303550D03*
X665586Y303550D03*
X676586Y336850D03*
X666586Y336850D03*
X677586Y370150D03*
X667586Y370150D03*
X697250Y303125D03*
X685250Y303125D03*
X696000Y203750D03*
X684000Y203750D03*
X706000Y507500D03*
X694000Y507500D03*
X707875Y607500D03*
X695875Y607500D03*
X687586Y673900D03*
X677586Y673900D03*
X686586Y640600D03*
X676586Y640600D03*
X685586Y607300D03*
X675586Y607300D03*
X684586Y574000D03*
X674586Y574000D03*
X683586Y540700D03*
X673586Y540700D03*
X682586Y507400D03*
X672586Y507400D03*
X681586Y474100D03*
X671586Y474100D03*
X680586Y440800D03*
X670586Y440800D03*
X679586Y407500D03*
X669586Y407500D03*
X984586Y103750D03*
X974586Y103750D03*
X985586Y137050D03*
X975586Y137050D03*
X986586Y170350D03*
X976586Y170350D03*
X987586Y203650D03*
X977586Y203650D03*
X988586Y236950D03*
X978586Y236950D03*
X989586Y270250D03*
X979586Y270250D03*
X990586Y303550D03*
X980586Y303550D03*
X991586Y336850D03*
X981586Y336850D03*
X992586Y370150D03*
X982586Y370150D03*
X1013500Y303125D03*
X1001500Y303125D03*
X1011000Y203750D03*
X999000Y203750D03*
X1007875Y103750D03*
X995875Y103750D03*
X1021937Y407500D03*
X1009937Y407500D03*
X1021000Y507500D03*
X1009000Y507500D03*
X1022875Y606875D03*
X1010875Y606875D03*
X1002586Y673900D03*
X992586Y673900D03*
X1001586Y640600D03*
X991586Y640600D03*
X1000586Y607300D03*
X990586Y607300D03*
X999586Y574000D03*
X989586Y574000D03*
X998586Y540700D03*
X988586Y540700D03*
X997586Y507400D03*
X987586Y507400D03*
X996586Y474100D03*
X986586Y474100D03*
X995586Y440800D03*
X985586Y440800D03*
X994586Y407500D03*
X984586Y407500D03*
X507236Y390625D03*
X497236Y390625D03*
X473936Y390625D03*
X463936Y390625D03*
X440636Y390625D03*
X430636Y390625D03*
X407336Y390625D03*
X397336Y390625D03*
X374036Y390625D03*
X364036Y390625D03*
X340736Y390625D03*
X330736Y390625D03*
X307436Y390625D03*
X297436Y390625D03*
X274136Y390625D03*
X264136Y390625D03*
X240836Y390625D03*
X230836Y390625D03*
X499111Y83750D03*
X489111Y83750D03*
X465811Y83750D03*
X455811Y83750D03*
X432511Y83750D03*
X422511Y83750D03*
X399211Y83750D03*
X389211Y83750D03*
X365911Y83750D03*
X355911Y83750D03*
X332611Y83750D03*
X322611Y83750D03*
X299311Y83750D03*
X289311Y83750D03*
X266011Y83750D03*
X256011Y83750D03*
X232711Y83750D03*
X222711Y83750D03*
X698336Y81250D03*
X688336Y81250D03*
X731636Y81250D03*
X721636Y81250D03*
X764936Y81250D03*
X754936Y81250D03*
X798236Y81250D03*
X788236Y81250D03*
X831536Y81250D03*
X821536Y81250D03*
X864836Y81250D03*
X854836Y81250D03*
X898136Y81250D03*
X888136Y81250D03*
X931436Y81250D03*
X921436Y81250D03*
X964736Y81250D03*
X954736Y81250D03*
X706461Y388125D03*
X696461Y388125D03*
X739761Y388125D03*
X729761Y388125D03*
X773061Y388125D03*
X763061Y388125D03*
X806361Y388125D03*
X796361Y388125D03*
X839661Y388125D03*
X829661Y388125D03*
X872961Y388125D03*
X862961Y388125D03*
X906261Y388125D03*
X896261Y388125D03*
X939561Y388125D03*
X929561Y388125D03*
X972861Y388125D03*
X962861Y388125D03*
X975361Y693750D03*
X965361Y693750D03*
X942061Y693750D03*
X932061Y693750D03*
X908761Y693750D03*
X898761Y693750D03*
X875461Y693750D03*
X865461Y693750D03*
X842161Y693750D03*
X832161Y693750D03*
X808861Y693750D03*
X798861Y693750D03*
X775561Y693750D03*
X765561Y693750D03*
X742261Y693750D03*
X732261Y693750D03*
X708961Y693750D03*
X698961Y693750D03*
X796625Y466875D03*
X779625Y466875D03*
G54D46*
X343405Y565625D03*
X331594Y565625D03*
X331594Y553750D03*
X343405Y553750D03*
X405280Y504375D03*
X393469Y504375D03*
X400280Y194375D03*
X388469Y194375D03*
X326594Y243750D03*
X338405Y243750D03*
X338405Y255625D03*
X326594Y255625D03*
G54D47*
X885000Y214094D03*
X885000Y225905D03*
X872500Y214094D03*
X872500Y225905D03*
X907500Y569719D03*
X907500Y581530D03*
X773125Y527250D03*
X773125Y539000D03*
X803125Y539000D03*
X803125Y527250D03*
X847500Y568500D03*
X847500Y579000D03*
X857500Y568500D03*
X857500Y579000D03*
X867500Y568500D03*
X867500Y579000D03*
G54D48*
X887500Y569719D03*
X887500Y581530D03*
X897500Y569719D03*
X897500Y581530D03*
G54D49*
X803125Y548125D03*
G54D50*
X886097Y532500D03*
X907652Y532500D03*
G54D51*
X765000Y60250D03*
X765000Y72250D03*
X964375Y60250D03*
X964375Y72250D03*
X865000Y59937D03*
X865000Y71937D03*
X872500Y362125D03*
X872500Y374125D03*
X773125Y362437D03*
X773125Y374437D03*
X973125Y362125D03*
X973125Y374125D03*
X975000Y670250D03*
X975000Y682250D03*
X875625Y670250D03*
X875625Y682250D03*
X775625Y670250D03*
X775625Y682250D03*
X310000Y673375D03*
X310000Y685375D03*
X410625Y673375D03*
X410625Y685375D03*
X509375Y673375D03*
X509375Y685375D03*
X506875Y365250D03*
X506875Y377250D03*
X307500Y365250D03*
X307500Y377250D03*
X407500Y365250D03*
X407500Y377250D03*
X399375Y60250D03*
X399375Y72250D03*
X299375Y60250D03*
X299375Y72250D03*
X498750Y61500D03*
X498750Y73500D03*
X112500Y498750D03*
X112500Y508750D03*
X127500Y518750D03*
X127500Y528750D03*
X97500Y518750D03*
X97500Y528750D03*
X102500Y225000D03*
X102500Y235000D03*
X117500Y245000D03*
X117500Y255000D03*
X87500Y245000D03*
X87500Y255000D03*
X98750Y138750D03*
X98750Y148750D03*
X113750Y158750D03*
X113750Y168750D03*
X83750Y158750D03*
X83750Y168750D03*
X201875Y77750D03*
X201875Y89750D03*
X212500Y384625D03*
X212500Y396625D03*
X669375Y81500D03*
X669375Y93500D03*
X679375Y385875D03*
X679375Y397875D03*
G54D52*
X329857Y579375D03*
X346392Y579375D03*
X324857Y269375D03*
X341392Y269375D03*
G54D53*
X783125Y494000D03*
X783125Y508500D03*
X793125Y494000D03*
X793125Y508500D03*
X773125Y509000D03*
X773125Y493500D03*
G54D54*
X620000Y178750D03*
X620000Y198750D03*
X620000Y218750D03*
X620000Y238750D03*
X620000Y258750D03*
X620000Y278750D03*
X620000Y298750D03*
X620000Y318750D03*
X620000Y338750D03*
X620000Y358750D03*
X595000Y178750D03*
X595000Y198750D03*
X595000Y218750D03*
X595000Y238750D03*
X595000Y258750D03*
X595000Y278750D03*
X595000Y298750D03*
X595000Y318750D03*
X595000Y338750D03*
X595000Y358750D03*
X87500Y188750D03*
X63750Y188750D03*
X87500Y488750D03*
X63750Y488750D03*
X62500Y698750D03*
X87500Y698750D03*
X63750Y60000D03*
X88750Y60000D03*
X63750Y77500D03*
X88750Y77500D03*
G54D56*
X907183Y609844D03*
X887842Y609844D03*
G54D57*
X846875Y462982D03*
X846875Y484517D03*
G54D58*
X871973Y472588D03*
X920467Y472588D03*
G54D59*
X613750Y740000D03*
X598750Y740000D03*
X613750Y551250D03*
X598750Y551250D03*
X613750Y383750D03*
X598750Y383750D03*
X613750Y156250D03*
X598750Y156250D03*
X613750Y17500D03*
X598750Y17500D03*
X85000Y741250D03*
X70000Y741250D03*
X85000Y16250D03*
X70000Y16250D03*
X85000Y456250D03*
X70000Y456250D03*
X85000Y296250D03*
X70000Y296250D03*
G54D60*
X355000Y605000D03*
X335000Y605000D03*
X381875Y605000D03*
X401875Y605000D03*
X376875Y295000D03*
X396875Y295000D03*
X350000Y295000D03*
X330000Y295000D03*
X335000Y605000D03*
X355000Y605000D03*
X330000Y295000D03*
X350000Y295000D03*
G54D62*
X383750Y487500D03*
X311875Y528125D03*
X348125Y498125D03*
X306875Y218125D03*
X343125Y188125D03*
X378750Y177500D03*
G54D63*
X389375Y582500D03*
X399375Y582500D03*
X409375Y582500D03*
X384375Y272500D03*
X394375Y272500D03*
X404375Y272500D03*
G54D64*
X373750Y517500D03*
X383750Y517500D03*
X368750Y207500D03*
X378750Y207500D03*
G54D65*
X395000Y490625D03*
X405000Y490625D03*
X415000Y490625D03*
X415000Y520625D03*
X405000Y520625D03*
X395000Y520625D03*
X390000Y180625D03*
X400000Y180625D03*
X410000Y180625D03*
X410000Y210625D03*
X400000Y210625D03*
X390000Y210625D03*
G54D66*
X793125Y548125D03*
X783125Y548125D03*
X773125Y548125D03*
X773125Y518125D03*
X783125Y518125D03*
X793125Y518125D03*
X803125Y518125D03*
X867500Y613125D03*
X857500Y613125D03*
X847500Y613125D03*
X907500Y590000D03*
X897500Y590000D03*
X887500Y590000D03*
X877500Y590000D03*
X867500Y590000D03*
X857500Y590000D03*
X847500Y590000D03*
X837500Y590000D03*
X827500Y590000D03*
X817500Y590000D03*
X817500Y560000D03*
X827500Y560000D03*
X837500Y560000D03*
X847500Y560000D03*
X857500Y560000D03*
X867500Y560000D03*
X877500Y560000D03*
X887500Y560000D03*
X897500Y560000D03*
X907500Y560000D03*
X827500Y543125D03*
X837500Y543125D03*
X847500Y543125D03*
X857500Y543125D03*
X827500Y613125D03*
X817500Y613125D03*
X807500Y613125D03*
X797500Y613125D03*
X787500Y613125D03*
X777500Y613125D03*
X767500Y613125D03*
G54D67*
X380314Y548125D03*
X419685Y548125D03*
X435625Y579060D03*
X435625Y510314D03*
X381250Y562500D03*
X421250Y562500D03*
X378439Y535625D03*
X417810Y535625D03*
X373439Y225625D03*
X412810Y225625D03*
X376250Y252500D03*
X416250Y252500D03*
X430625Y269060D03*
X430625Y200314D03*
X375314Y238125D03*
X414685Y238125D03*
G54D68*
X338125Y498125D03*
X348125Y498125D03*
X358125Y498125D03*
X333125Y188125D03*
X343125Y188125D03*
X353125Y188125D03*
G54D69*
X755625Y510000D03*
X755625Y500000D03*
G54D70*
X822500Y456250D03*
X897500Y623750D03*
G54D71*
X860625Y461875D03*
X860625Y481875D03*
X878125Y502874D03*
X878125Y522874D03*
G54D72*
X798125Y482500D03*
X778125Y482500D03*
G54D73*
X922500Y555625D03*
X922500Y545625D03*
X922500Y585625D03*
X922500Y575625D03*
X922500Y565625D03*
G54D74*
X822500Y523125D03*
X837500Y515625D03*
X822500Y508125D03*
X837500Y500625D03*
X822500Y493125D03*
G54D75*
X918750Y518750D03*
X918750Y498750D03*
X312627Y527893D03*
X359872Y527893D03*
X336250Y520019D03*
X312627Y575925D03*
X359872Y575925D03*
X307627Y217893D03*
X354872Y217893D03*
X331250Y210019D03*
X307627Y265925D03*
X354872Y265925D03*
G54D76*
X753750Y462500D03*
X752500Y628750D03*
X927500Y628750D03*
G36*
X752717Y605009D02*
X752716Y605009D01*
X752047Y605009D01*
X752047Y602253D01*
X754173Y602253D01*
X754566Y602883D01*
X754842Y603553D01*
X755039Y604261D01*
X755078Y604970D01*
X755039Y605442D01*
X755000Y605875D01*
X754881Y606309D01*
X754724Y606702D01*
X754527Y607096D01*
X754291Y607411D01*
X753976Y607687D01*
X753661Y607923D01*
X753307Y608080D01*
X752952Y608198D01*
X752559Y608277D01*
X752125Y608316D01*
X751732Y608277D01*
X751338Y608198D01*
X750944Y608080D01*
X750551Y607923D01*
X750236Y607687D01*
X749921Y607411D01*
X749685Y607135D01*
X749488Y606781D01*
X749330Y606387D01*
X749212Y605954D01*
X749173Y605521D01*
X749133Y605049D01*
X749173Y604340D01*
X749330Y603750D01*
X749566Y603238D01*
X749921Y602844D01*
X750314Y602568D01*
X750866Y602372D01*
X751023Y603159D01*
X750669Y603316D01*
X750354Y603513D01*
X750118Y603789D01*
X749960Y604143D01*
X749842Y604576D01*
X749803Y605049D01*
X749842Y605600D01*
X749960Y606072D01*
X750157Y606466D01*
X750393Y606781D01*
X750669Y607017D01*
X750944Y607214D01*
X751496Y607372D01*
X752125Y607450D01*
X752795Y607372D01*
X753385Y607135D01*
X753858Y606781D01*
X754173Y606269D01*
X754330Y605679D01*
X754409Y605049D01*
X754370Y604498D01*
X754212Y603946D01*
X754015Y603474D01*
X753818Y603120D01*
X752716Y603120D01*
X752717Y605009D01*
D02*G37*
G36*
X755001Y600954D02*
X755000Y600954D01*
X749212Y600954D01*
X749212Y596309D01*
X749881Y596309D01*
X749881Y600088D01*
X751692Y600088D01*
X751692Y596545D01*
X752362Y596545D01*
X752362Y600088D01*
X754330Y600088D01*
X754330Y596151D01*
X755000Y596151D01*
X755001Y600954D01*
D02*G37*
G36*
X755002Y594931D02*
X755000Y594931D01*
X749212Y594931D01*
X749212Y592057D01*
X749212Y591663D01*
X749251Y591309D01*
X749291Y590994D01*
X749370Y590757D01*
X749606Y590364D01*
X749921Y590049D01*
X750354Y589852D01*
X750787Y589773D01*
X751102Y589812D01*
X751377Y589891D01*
X751614Y590009D01*
X751811Y590206D01*
X752007Y590482D01*
X752165Y590797D01*
X752283Y591151D01*
X752362Y591584D01*
X752519Y591309D01*
X752677Y591072D01*
X753031Y590718D01*
X753425Y590403D01*
X755000Y589301D01*
X755000Y590324D01*
X753779Y591151D01*
X753346Y591505D01*
X752992Y591781D01*
X752755Y592017D01*
X752598Y592214D01*
X752480Y592608D01*
X752440Y592805D01*
X752440Y593080D01*
X752440Y594064D01*
X755000Y594064D01*
X755001Y594931D01*
X751771Y594064D01*
X751771Y592253D01*
X751732Y591702D01*
X751653Y591309D01*
X751535Y591033D01*
X751338Y590797D01*
X751062Y590679D01*
X750826Y590639D01*
X750629Y590639D01*
X750433Y590718D01*
X750275Y590836D01*
X750157Y590954D01*
X750039Y591151D01*
X749960Y591387D01*
X749881Y591702D01*
X749881Y592017D01*
X749881Y594064D01*
X751772Y594064D01*
X755002Y594931D01*
D02*G37*
G36*
X753268Y588868D02*
X753267Y588868D01*
X752598Y588868D01*
X752598Y586387D01*
X753267Y586387D01*
X753268Y588868D01*
D02*G37*
G36*
X755002Y585364D02*
X755000Y585364D01*
X749212Y585364D01*
X749212Y582962D01*
X749212Y582411D01*
X749251Y582017D01*
X749370Y581584D01*
X749527Y581230D01*
X749763Y580954D01*
X750078Y580718D01*
X750472Y580561D01*
X750866Y580521D01*
X751220Y580561D01*
X751574Y580639D01*
X751850Y580797D01*
X752125Y581033D01*
X752362Y581348D01*
X752519Y581742D01*
X752598Y582253D01*
X752637Y582883D01*
X752637Y584498D01*
X755000Y584498D01*
X755001Y585364D01*
X751968Y584498D01*
X751968Y582883D01*
X751968Y582490D01*
X751889Y582175D01*
X751811Y581938D01*
X751692Y581742D01*
X751535Y581584D01*
X751377Y581466D01*
X751141Y581427D01*
X750905Y581387D01*
X750551Y581427D01*
X750275Y581584D01*
X750078Y581820D01*
X749921Y582096D01*
X749921Y582253D01*
X749881Y582411D01*
X749881Y582647D01*
X749881Y582883D01*
X749881Y584498D01*
X751969Y584498D01*
X755002Y585364D01*
D02*G37*
G36*
X755001Y579340D02*
X755000Y579340D01*
X749212Y579340D01*
X749212Y574694D01*
X749881Y574694D01*
X749881Y578474D01*
X751692Y578474D01*
X751692Y574931D01*
X752362Y574931D01*
X752362Y578474D01*
X754330Y578474D01*
X754330Y574537D01*
X755000Y574537D01*
X755001Y579340D01*
D02*G37*
G36*
X755002Y573316D02*
X755000Y573316D01*
X749212Y573316D01*
X749212Y570442D01*
X749212Y570049D01*
X749251Y569694D01*
X749291Y569379D01*
X749370Y569143D01*
X749606Y568750D01*
X749921Y568435D01*
X750354Y568238D01*
X750787Y568159D01*
X751102Y568198D01*
X751377Y568277D01*
X751614Y568395D01*
X751811Y568592D01*
X752007Y568868D01*
X752165Y569183D01*
X752283Y569537D01*
X752362Y569970D01*
X752519Y569694D01*
X752677Y569458D01*
X753031Y569104D01*
X753425Y568789D01*
X755000Y567687D01*
X755000Y568710D01*
X753779Y569537D01*
X753346Y569891D01*
X752992Y570167D01*
X752755Y570403D01*
X752598Y570600D01*
X752480Y570994D01*
X752440Y571190D01*
X752440Y571466D01*
X752440Y572450D01*
X755000Y572450D01*
X755001Y573316D01*
X751771Y572450D01*
X751771Y570639D01*
X751732Y570088D01*
X751653Y569694D01*
X751535Y569419D01*
X751338Y569183D01*
X751062Y569064D01*
X750826Y569025D01*
X750629Y569025D01*
X750433Y569104D01*
X750275Y569222D01*
X750157Y569340D01*
X750039Y569537D01*
X749960Y569773D01*
X749881Y570088D01*
X749881Y570403D01*
X749881Y572450D01*
X751772Y572450D01*
X755002Y573316D01*
D02*G37*
M02*
