%FSLAX35Y35*%
%MOIN*%
%IN16 = Copper top L2   ( x.Top )*%
%ADD10C,0.00591*%
%ADD11C,0.00768*%
%ADD12C,0.00780*%
%ADD13C,0.00787*%
%ADD14C,0.01040*%
%ADD15C,0.01181*%
%ADD16C,0.01575*%
%ADD17C,0.01800*%
%ADD18C,0.02000*%
%ADD19C,0.02340*%
%ADD20C,0.02362*%
%ADD21C,0.02400*%
%ADD22C,0.02496*%
%ADD23C,0.02500*%
%ADD24C,0.03000*%
%ADD25C,0.03150*%
%ADD26C,0.03200*%
%ADD27C,0.03500*%
%ADD28C,0.04000*%
%ADD29C,0.05000*%
%ADD30C,0.06000*%
%ADD31C,0.06500*%
%ADD32C,0.07000*%
%ADD33C,0.07500*%
%ADD34C,0.07874*%
%ADD35C,0.08000*%
%ADD36C,0.15748*%
%ADD37C,0.23622*%
%ADD38R,0.02717X0.05787*%
%ADD39R,0.03937X0.04724*%
%ADD40R,0.03937X0.06299*%
%ADD41R,0.04000X0.06000*%
%ADD42R,0.04000X0.06500*%
%ADD43R,0.04724X0.03937*%
%ADD44R,0.04724X0.07874*%
%ADD45R,0.04921X0.03937*%
%ADD46R,0.05500X0.07000*%
%ADD47R,0.06299X0.03937*%
%ADD48R,0.06500X0.04000*%
%ADD49R,0.07000X0.10000*%
%ADD50R,0.07800X0.09800*%
%ADD51R,0.07874X0.04724*%
%ADD52R,0.07874X0.09843*%
%ADD53R,0.08000X0.05000*%
%ADD54R,0.08000X0.08000*%
%ADD55R,0.08000X0.10000*%
%ADD56R,0.09000X0.09000*%
%ADD57R,0.09843X0.07874*%
%ADD58R,0.11811X0.11811*%
%ADD59R,0.11811X0.27559*%
%ADD60R,0.13000X0.19000*%
%ADD61R,0.19685X0.15938*%
%AMOCT_62*4,1,8,0.023622,0.011811,0.011811,0.023622,-0.011811,0.023622,-0.023622,0.011811,-0.023622,-0.011811,-0.011811,-0.023622,0.011811,-0.023622,0.023622,-0.011811,0.023622,0.011811,0*%
%ADD62OCT_62*%
%AMOCT_63*4,1,8,0.030000,0.040000,0.015000,0.055000,-0.015000,0.055000,-0.030000,0.040000,-0.030000,-0.040000,-0.015000,-0.055000,0.015000,-0.055000,0.030000,-0.040000,0.030000,0.040000,0*%
%ADD63OCT_63*%
%AMOCT_64*4,1,8,0.035000,0.022500,0.017500,0.040000,-0.017500,0.040000,-0.035000,0.022500,-0.035000,-0.022500,-0.017500,-0.040000,0.017500,-0.040000,0.035000,-0.022500,0.035000,0.022500,0*%
%ADD64OCT_64*%
%AMOCT_65*4,1,8,0.035000,0.027500,0.017500,0.045000,-0.017500,0.045000,-0.035000,0.027500,-0.035000,-0.027500,-0.017500,-0.045000,0.017500,-0.045000,0.035000,-0.027500,0.035000,0.027500,0*%
%ADD65OCT_65*%
%AMOCT_66*4,1,8,0.035000,0.032500,0.017500,0.050000,-0.017500,0.050000,-0.035000,0.032500,-0.035000,-0.032500,-0.017500,-0.050000,0.017500,-0.050000,0.035000,-0.032500,0.035000,0.032500,0*%
%ADD66OCT_66*%
%AMOCT_67*4,1,8,0.036000,0.018000,0.018000,0.036000,-0.018000,0.036000,-0.036000,0.018000,-0.036000,-0.018000,-0.018000,-0.036000,0.018000,-0.036000,0.036000,-0.018000,0.036000,0.018000,0*%
%ADD67OCT_67*%
%AMOCT_68*4,1,8,0.036000,0.032000,0.018000,0.050000,-0.018000,0.050000,-0.036000,0.032000,-0.036000,-0.032000,-0.018000,-0.050000,0.018000,-0.050000,0.036000,-0.032000,0.036000,0.032000,0*%
%ADD68OCT_68*%
%AMOCT_69*4,1,8,0.037500,0.018750,0.018750,0.037500,-0.018750,0.037500,-0.037500,0.018750,-0.037500,-0.018750,-0.018750,-0.037500,0.018750,-0.037500,0.037500,-0.018750,0.037500,0.018750,0*%
%ADD69OCT_69*%
%AMOCT_70*4,1,8,0.040000,0.020000,0.020000,0.040000,-0.020000,0.040000,-0.040000,0.020000,-0.040000,-0.020000,-0.020000,-0.040000,0.020000,-0.040000,0.040000,-0.020000,0.040000,0.020000,0*%
%ADD70OCT_70*%
%AMOCT_71*4,1,8,0.045000,0.022500,0.022500,0.045000,-0.022500,0.045000,-0.045000,0.022500,-0.045000,-0.022500,-0.022500,-0.045000,0.022500,-0.045000,0.045000,-0.022500,0.045000,0.022500,0*%
%ADD71OCT_71*%
%AMOCT_72*4,1,8,0.045000,0.037500,0.022500,0.060000,-0.022500,0.060000,-0.045000,0.037500,-0.045000,-0.037500,-0.022500,-0.060000,0.022500,-0.060000,0.045000,-0.037500,0.045000,0.037500,0*%
%ADD72OCT_72*%
%AMOCT_73*4,1,8,0.050000,0.017500,0.032500,0.035000,-0.032500,0.035000,-0.050000,0.017500,-0.050000,-0.017500,-0.032500,-0.035000,0.032500,-0.035000,0.050000,-0.017500,0.050000,0.017500,0*%
%ADD73OCT_73*%
%AMOCT_74*4,1,8,0.060000,0.022500,0.037500,0.045000,-0.037500,0.045000,-0.060000,0.022500,-0.060000,-0.022500,-0.037500,-0.045000,0.037500,-0.045000,0.060000,-0.022500,0.060000,0.022500,0*%
%ADD74OCT_74*%
%AMOCT_75*4,1,8,0.060000,0.030000,0.030000,0.060000,-0.030000,0.060000,-0.060000,0.030000,-0.060000,-0.030000,-0.030000,-0.060000,0.030000,-0.060000,0.060000,-0.030000,0.060000,0.030000,0*%
%ADD75OCT_75*%
%AMOCT_76*4,1,8,0.075000,0.037500,0.037500,0.075000,-0.037500,0.075000,-0.075000,0.037500,-0.075000,-0.037500,-0.037500,-0.075000,0.037500,-0.075000,0.075000,-0.037500,0.075000,0.037500,0*%
%ADD76OCT_76*%
G54D18*
X877500Y590000D02*
X877500Y580000D01*
X914375Y580000D01*
X914375Y585625D02*
X922500Y585625D01*
X914375Y580000D02*
X914375Y585625D01*
X922500Y585625D02*
X932500Y585625D01*
X932500Y585812D01*
X932500Y585625D02*
X932500Y585812D01*
X932500Y585625D02*
X932500Y585812D01*
X932500Y585625D01*
X932500Y585812D02*
X932500Y585625D01*
X932500Y577937D02*
X932500Y575625D01*
X932500Y577937D02*
X932500Y577937D01*
X803267Y562500D02*
X810625Y562500D01*
X810625Y570000D01*
X847500Y570000D01*
X847500Y560000D01*
X803267Y575000D02*
X857500Y575000D01*
X857500Y560000D01*
X803267Y587500D02*
X810625Y587500D01*
X810625Y580000D01*
X867500Y580000D01*
X867500Y560000D01*
X781732Y562500D02*
X771250Y562500D01*
X771250Y603750D01*
X777500Y603750D01*
X777500Y613125D01*
X781732Y575000D02*
X775000Y575000D01*
X775000Y600000D01*
X787500Y600000D01*
X787500Y613125D01*
X781732Y587500D02*
X781732Y596250D01*
X797500Y596250D01*
X797500Y613125D01*
X897500Y560000D02*
X897500Y551250D01*
X914375Y551250D01*
X914375Y555625D01*
X922500Y555625D01*
X887500Y560000D02*
X887500Y545625D01*
X922500Y545625D01*
X857500Y590000D02*
X857500Y605000D01*
X837500Y605000D01*
X837500Y621250D01*
X817500Y621250D01*
X817500Y613125D01*
X847500Y590000D02*
X847500Y601250D01*
X827500Y601250D01*
X827500Y613125D01*
X837500Y590000D02*
X837500Y598125D01*
X807500Y598125D01*
X807500Y613125D01*
G54D21*
X383750Y487500D02*
X383750Y500625D01*
X381530Y500625D01*
X338125Y498125D02*
X338125Y506250D01*
X341250Y509375D01*
X359768Y527893D01*
X359872Y527893D01*
X359768Y527893D02*
X359872Y527893D01*
X359768Y527893D02*
X359872Y527893D01*
X359768Y527893D01*
X359872Y527893D02*
X359768Y527893D01*
X348125Y498125D02*
X348125Y505625D01*
X352500Y510000D01*
X364375Y510000D01*
X369719Y504655D01*
X369719Y500625D01*
X383750Y517500D02*
X383750Y516875D01*
X395000Y505625D01*
X395000Y490625D01*
X378750Y207500D02*
X378750Y206875D01*
X390000Y195625D01*
X390000Y180625D01*
X333125Y188125D02*
X333125Y196250D01*
X336250Y199375D01*
X354768Y217893D01*
X354872Y217893D01*
X354768Y217893D02*
X354872Y217893D01*
X354768Y217893D02*
X354872Y217893D01*
X354768Y217893D01*
X354872Y217893D02*
X354768Y217893D01*
X343125Y188125D02*
X343125Y195625D01*
X347500Y200000D01*
X359375Y200000D01*
X364719Y194655D01*
X364719Y190625D01*
X378750Y177500D02*
X378750Y190625D01*
X376530Y190625D01*
G54D23*
X795905Y506250D02*
X803125Y506250D01*
X803125Y518125D01*
X773125Y518125D02*
X773125Y506250D01*
X780344Y506250D01*
G54D26*
X871250Y47500D02*
X871250Y163750D01*
X939375Y90000D02*
X939375Y74375D01*
X933125Y68125D01*
X912500Y68125D01*
X912500Y47500D01*
X948750Y90000D02*
X948750Y68125D01*
X940000Y59375D01*
X922500Y59375D01*
X922500Y48750D01*
X846250Y153750D02*
X853750Y153750D01*
X861250Y146250D01*
X861250Y107500D01*
X847500Y93750D01*
X847500Y73750D01*
X861250Y60000D01*
X861250Y47500D01*
X851250Y139375D02*
X851250Y108750D01*
X840000Y97500D01*
X840000Y71250D01*
X851250Y60000D01*
X851250Y46250D01*
X893125Y238125D02*
X873125Y238125D01*
G54D27*
X922500Y575625D02*
X932500Y575625D01*
X932538Y472500D01*
X837500Y472500D01*
X837500Y500625D01*
X822500Y456250D02*
X822500Y493125D01*
G54D28*
X885000Y206875D02*
X895625Y206875D01*
X900625Y211875D01*
X900625Y291250D01*
X895000Y296875D01*
X872500Y296875D01*
X233125Y698750D02*
X233125Y706250D01*
X433125Y706250D01*
X433125Y698750D01*
X333125Y698750D02*
X333125Y705625D01*
X230625Y393125D02*
X230625Y402500D01*
X430625Y402500D01*
X430625Y393125D01*
X330625Y393750D02*
X330625Y402500D01*
X222500Y86250D02*
X222500Y97500D01*
X322500Y97500D01*
X422500Y97500D02*
X422500Y86250D01*
X322500Y86250D02*
X322500Y97500D01*
X422500Y97500D01*
X527500Y674375D02*
X527500Y666875D01*
X513125Y652500D01*
X513125Y576875D01*
X513125Y476875D02*
X521875Y476875D01*
X521586Y476600D01*
X524375Y576875D02*
X513125Y576875D01*
X513125Y476875D01*
X203750Y473750D02*
X195625Y473750D01*
X195625Y673750D01*
X210000Y673750D01*
X205000Y573750D02*
X196250Y573750D01*
X198125Y370000D02*
X183750Y370000D01*
X183750Y170000D01*
X192500Y170000D01*
X195000Y270000D02*
X184375Y270000D01*
X515625Y372500D02*
X500625Y372500D01*
X500625Y172500D01*
X511875Y172500D01*
X513125Y273125D02*
X501250Y273125D01*
X698750Y696875D02*
X698750Y704375D01*
X798750Y704375D01*
X898750Y704375D02*
X898750Y695625D01*
X798750Y695000D02*
X798750Y704375D01*
X898750Y704375D01*
X976250Y474375D02*
X984375Y474375D01*
X976250Y573750D02*
X987500Y573750D01*
X976250Y573750D02*
X976250Y474375D01*
X896250Y390625D02*
X896250Y402500D01*
X696250Y402500D01*
X696250Y390625D01*
X796250Y391250D02*
X796250Y401875D01*
X675625Y673750D02*
X661250Y673750D01*
X661250Y473750D01*
X669375Y473750D01*
X672500Y573750D02*
X664375Y573750D01*
X974375Y170000D02*
X966875Y170000D01*
X966875Y343750D01*
X982500Y359375D01*
X982500Y367500D01*
X977500Y270000D02*
X968750Y270000D01*
X37500Y175625D02*
X23750Y175625D01*
X23750Y188750D01*
X23750Y375000D02*
X43750Y375000D01*
X40000Y275000D02*
X23750Y275000D01*
X23750Y375000D01*
X23750Y188750D02*
X63750Y188750D01*
X23750Y188750D02*
X23750Y275000D01*
X107500Y188750D02*
X113750Y182500D01*
X113750Y168750D01*
X87500Y188750D02*
X107500Y188750D01*
X47500Y479375D02*
X36875Y479375D01*
X36875Y677500D01*
X36875Y678750D02*
X53125Y678750D01*
X36875Y677500D02*
X36875Y689375D01*
X36875Y677500D02*
X36875Y678750D01*
X36875Y689375D02*
X46250Y698750D01*
X60000Y698750D01*
X50000Y579375D02*
X38125Y579375D01*
X120000Y255625D02*
X138750Y255625D01*
X138750Y528750D01*
X126875Y528750D01*
X37500Y488750D02*
X63750Y488750D01*
X87500Y488750D02*
X137500Y488750D01*
X831250Y173125D02*
X955000Y173125D01*
X958125Y170000D01*
X966875Y170000D01*
X821250Y173125D02*
X694375Y173125D01*
X683125Y184375D01*
X655000Y184375D01*
X811250Y188750D02*
X829375Y188750D01*
X839375Y198750D01*
X903125Y198750D01*
X908750Y204375D01*
X908750Y359375D01*
X888125Y380000D01*
X888125Y401875D01*
X672500Y218125D02*
X689375Y235000D01*
X734375Y235000D01*
X741875Y242500D01*
X741875Y258750D01*
X728750Y258750D01*
X567500Y218750D02*
X593750Y218750D01*
X567500Y218750D02*
X567500Y218125D01*
X672500Y218125D02*
X620625Y218125D01*
X620000Y218750D01*
X544375Y291250D02*
X560625Y291250D01*
X573125Y278750D01*
X683125Y278750D02*
X696250Y291875D01*
X726875Y291875D01*
X573125Y278750D02*
X595000Y278750D01*
X683125Y278750D02*
X621250Y278750D01*
X535625Y379375D02*
X501250Y413750D01*
X236875Y413750D01*
X228750Y421875D01*
X228750Y480625D01*
X223125Y486250D01*
X196875Y486250D01*
X562500Y358750D02*
X549375Y371875D01*
X549375Y412500D01*
X535625Y426250D01*
X248125Y426250D01*
X238750Y435625D01*
X238750Y670625D01*
X621250Y358750D02*
X727500Y358750D01*
X562500Y358750D02*
X595000Y358750D01*
X238750Y670625D02*
X210625Y698750D01*
X90000Y698750D01*
X639375Y239375D02*
X648125Y248125D01*
X727500Y248125D01*
X575000Y238750D02*
X595000Y238750D01*
X575000Y238750D02*
X575000Y239375D01*
X621250Y238750D02*
X638750Y238750D01*
X639375Y239375D01*
X661250Y473125D02*
X661250Y400625D01*
X692500Y369375D01*
X743125Y369375D01*
X751250Y361250D01*
X751250Y188750D01*
X758125Y181875D01*
X815625Y181875D01*
X566250Y486250D02*
X515000Y486250D01*
X248125Y181875D02*
X185000Y181875D01*
X38613Y60000D02*
X23750Y74598D01*
X23750Y175000D01*
X508750Y60000D02*
X549375Y60000D01*
X567500Y78125D01*
X567500Y199375D01*
X640000Y199375D02*
X646250Y193125D01*
X721875Y193125D01*
X726875Y198125D01*
X726875Y225000D01*
X567500Y199375D02*
X594375Y199375D01*
X595000Y198750D01*
X640000Y199375D02*
X619375Y199375D01*
X620000Y198750D01*
X38613Y60000D02*
X63750Y60000D01*
X88750Y60000D02*
X508750Y60000D01*
X839375Y42500D02*
X816875Y42500D01*
X809375Y50000D01*
X809375Y163750D01*
X796250Y189375D02*
X813750Y206875D01*
X884375Y206875D01*
X543750Y348125D02*
X555625Y348125D01*
X565000Y338125D01*
X639375Y338125D02*
X648750Y347500D01*
X726875Y347500D01*
X639375Y338125D02*
X620625Y338125D01*
X620000Y338750D01*
X638125Y318750D02*
X645625Y326250D01*
X726875Y326250D01*
X638125Y318750D02*
X620000Y318750D01*
X726875Y315000D02*
X655000Y315000D01*
X638750Y298750D01*
X568750Y298750D02*
X551875Y315625D01*
X507500Y315625D01*
X568750Y298750D02*
X595000Y298750D01*
X638750Y298750D02*
X620000Y298750D01*
X730000Y279375D02*
X700625Y279375D01*
X680625Y259375D01*
X580625Y259375D02*
X556250Y283750D01*
X502500Y283750D01*
X581250Y258750D02*
X595000Y258750D01*
X581250Y258750D02*
X580625Y259375D01*
X680625Y259375D02*
X620625Y259375D01*
X620000Y258750D01*
X561221Y318750D02*
X535625Y343233D01*
X535625Y380000D01*
X837500Y182500D02*
X946250Y182500D01*
X958750Y195000D01*
X958750Y360000D01*
X982500Y383750D01*
X982500Y393750D01*
X976250Y400000D01*
X976250Y473750D01*
X842500Y188750D02*
X923750Y188750D01*
X947500Y212500D01*
X947500Y405000D01*
X966250Y423750D01*
X966250Y666250D01*
X983750Y683750D01*
X983750Y698750D01*
X978750Y703750D01*
X898750Y703750D02*
X978750Y703750D01*
X976250Y572500D02*
X976250Y660000D01*
X988750Y672500D01*
X992500Y672500D01*
X562500Y318750D02*
X595000Y318750D01*
X563750Y338750D02*
X595000Y338750D01*
G54D29*
X872500Y238125D03*
X940000Y90625D03*
X885000Y206875D03*
X841250Y188750D03*
X836250Y181875D03*
X831250Y173125D03*
X821250Y173125D03*
X816250Y181875D03*
X811250Y188750D03*
X727500Y247500D03*
X727500Y258750D03*
X567500Y218125D03*
X729375Y278750D03*
X727500Y291250D03*
X544375Y291250D03*
X727500Y315000D03*
X508125Y315000D03*
X727500Y326250D03*
X727500Y347500D03*
X727500Y358750D03*
X575000Y239375D03*
X727500Y225000D03*
X653750Y184375D03*
X566875Y485625D03*
X566875Y485625D03*
X248125Y181875D03*
X544375Y348125D03*
X948125Y90625D03*
X846250Y153750D03*
X851250Y139375D03*
X871250Y164375D03*
X893125Y238125D03*
X809375Y163750D03*
X796250Y188750D03*
G54D30*
X881250Y47500D02*
X881250Y37500D01*
X871250Y37500D01*
X861250Y37500D01*
X851250Y37500D02*
X841250Y37500D01*
X841250Y47500D01*
X399375Y582500D02*
X399375Y605000D01*
X399375Y582500D02*
X399375Y560625D01*
X386875Y548125D01*
X380314Y548125D01*
X419685Y548125D02*
X409375Y548125D01*
X395000Y533750D01*
X395000Y520625D01*
X394375Y272500D02*
X394375Y295000D01*
X394375Y272500D02*
X394375Y250625D01*
X381875Y238125D01*
X375314Y238125D01*
X414685Y238125D02*
X404375Y238125D01*
X390000Y223750D01*
X390000Y210625D01*
G54D32*
X435625Y510314D02*
X435625Y562500D01*
X423750Y574375D01*
X423750Y605000D01*
X401875Y605000D01*
X430625Y200314D02*
X430625Y252500D01*
X418750Y264375D01*
X418750Y295000D01*
X396875Y295000D01*
G54D33*
X336250Y520019D02*
X334375Y520019D01*
X334375Y604375D01*
X331250Y210019D02*
X329375Y210019D01*
X329375Y294375D01*
G54D34*
X872500Y316875D03*
X872500Y296875D03*
G54D35*
X841250Y37500D03*
X841250Y47500D03*
X851250Y37500D03*
X851250Y47500D03*
X861250Y37500D03*
X861250Y47500D03*
X871250Y37500D03*
X871250Y47500D03*
X881250Y37500D03*
X881250Y47500D03*
X912500Y47500D03*
X922500Y47500D03*
G54D37*
X26250Y27500D03*
X126250Y27500D03*
X22500Y728750D03*
X127500Y730000D03*
X563750Y732500D03*
X550000Y27500D03*
X647500Y30000D03*
X1026250Y28750D03*
X1026250Y732500D03*
X647500Y733750D03*
X200000Y730000D03*
X198750Y27500D03*
G54D42*
X780344Y506250D03*
X795905Y506250D03*
G54D44*
X57086Y412500D03*
X47086Y412500D03*
X58086Y445800D03*
X48086Y445800D03*
X59086Y479100D03*
X49086Y479100D03*
X60086Y512400D03*
X50086Y512400D03*
X61086Y545700D03*
X51086Y545700D03*
X62086Y579000D03*
X52086Y579000D03*
X63086Y612300D03*
X53086Y612300D03*
X64086Y645600D03*
X54086Y645600D03*
X65086Y678900D03*
X55086Y678900D03*
X243336Y696250D03*
X233336Y696250D03*
X276636Y696250D03*
X266636Y696250D03*
X309936Y696250D03*
X299936Y696250D03*
X343236Y696250D03*
X333236Y696250D03*
X376536Y696250D03*
X366536Y696250D03*
X409836Y696250D03*
X399836Y696250D03*
X443136Y696250D03*
X433136Y696250D03*
X476436Y696250D03*
X466436Y696250D03*
X509736Y696250D03*
X499736Y696250D03*
X55086Y375150D03*
X45086Y375150D03*
X54086Y341850D03*
X44086Y341850D03*
X53086Y308550D03*
X43086Y308550D03*
X52086Y275250D03*
X42086Y275250D03*
X51086Y241950D03*
X41086Y241950D03*
X50086Y208650D03*
X40086Y208650D03*
X49086Y175350D03*
X39086Y175350D03*
X48086Y142050D03*
X38086Y142050D03*
X47086Y108750D03*
X37086Y108750D03*
X202086Y103750D03*
X192086Y103750D03*
X203086Y137050D03*
X193086Y137050D03*
X204086Y170350D03*
X194086Y170350D03*
X205086Y203650D03*
X195086Y203650D03*
X206086Y236950D03*
X196086Y236950D03*
X207086Y270250D03*
X197086Y270250D03*
X208086Y303550D03*
X198086Y303550D03*
X209086Y336850D03*
X199086Y336850D03*
X210086Y370150D03*
X200086Y370150D03*
X220086Y673900D03*
X210086Y673900D03*
X219086Y640600D03*
X209086Y640600D03*
X218086Y607300D03*
X208086Y607300D03*
X217086Y574000D03*
X207086Y574000D03*
X216086Y540700D03*
X206086Y540700D03*
X215086Y507400D03*
X205086Y507400D03*
X214086Y474100D03*
X204086Y474100D03*
X213086Y440800D03*
X203086Y440800D03*
X212086Y407500D03*
X202086Y407500D03*
X519586Y106250D03*
X509586Y106250D03*
X520586Y139550D03*
X510586Y139550D03*
X521586Y172850D03*
X511586Y172850D03*
X522586Y206150D03*
X512586Y206150D03*
X523586Y239450D03*
X513586Y239450D03*
X524586Y272750D03*
X514586Y272750D03*
X525586Y306050D03*
X515586Y306050D03*
X526586Y339350D03*
X516586Y339350D03*
X527586Y372650D03*
X517586Y372650D03*
X537586Y676400D03*
X527586Y676400D03*
X536586Y643100D03*
X526586Y643100D03*
X535586Y609800D03*
X525586Y609800D03*
X534586Y576500D03*
X524586Y576500D03*
X533586Y543200D03*
X523586Y543200D03*
X532586Y509900D03*
X522586Y509900D03*
X531586Y476600D03*
X521586Y476600D03*
X530586Y443300D03*
X520586Y443300D03*
X529586Y410000D03*
X519586Y410000D03*
X669586Y103750D03*
X659586Y103750D03*
X670586Y137050D03*
X660586Y137050D03*
X671586Y170350D03*
X661586Y170350D03*
X672586Y203650D03*
X662586Y203650D03*
X673586Y236950D03*
X663586Y236950D03*
X674586Y270250D03*
X664586Y270250D03*
X675586Y303550D03*
X665586Y303550D03*
X676586Y336850D03*
X666586Y336850D03*
X677586Y370150D03*
X667586Y370150D03*
X687586Y673900D03*
X677586Y673900D03*
X686586Y640600D03*
X676586Y640600D03*
X685586Y607300D03*
X675586Y607300D03*
X684586Y574000D03*
X674586Y574000D03*
X683586Y540700D03*
X673586Y540700D03*
X682586Y507400D03*
X672586Y507400D03*
X681586Y474100D03*
X671586Y474100D03*
X680586Y440800D03*
X670586Y440800D03*
X679586Y407500D03*
X669586Y407500D03*
X984586Y103750D03*
X974586Y103750D03*
X985586Y137050D03*
X975586Y137050D03*
X986586Y170350D03*
X976586Y170350D03*
X987586Y203650D03*
X977586Y203650D03*
X988586Y236950D03*
X978586Y236950D03*
X989586Y270250D03*
X979586Y270250D03*
X990586Y303550D03*
X980586Y303550D03*
X991586Y336850D03*
X981586Y336850D03*
X992586Y370150D03*
X982586Y370150D03*
X1002586Y673900D03*
X992586Y673900D03*
X1001586Y640600D03*
X991586Y640600D03*
X1000586Y607300D03*
X990586Y607300D03*
X999586Y574000D03*
X989586Y574000D03*
X998586Y540700D03*
X988586Y540700D03*
X997586Y507400D03*
X987586Y507400D03*
X996586Y474100D03*
X986586Y474100D03*
X995586Y440800D03*
X985586Y440800D03*
X994586Y407500D03*
X984586Y407500D03*
X507236Y390625D03*
X497236Y390625D03*
X473936Y390625D03*
X463936Y390625D03*
X440636Y390625D03*
X430636Y390625D03*
X407336Y390625D03*
X397336Y390625D03*
X374036Y390625D03*
X364036Y390625D03*
X340736Y390625D03*
X330736Y390625D03*
X307436Y390625D03*
X297436Y390625D03*
X274136Y390625D03*
X264136Y390625D03*
X240836Y390625D03*
X230836Y390625D03*
X499111Y83750D03*
X489111Y83750D03*
X465811Y83750D03*
X455811Y83750D03*
X432511Y83750D03*
X422511Y83750D03*
X399211Y83750D03*
X389211Y83750D03*
X365911Y83750D03*
X355911Y83750D03*
X332611Y83750D03*
X322611Y83750D03*
X299311Y83750D03*
X289311Y83750D03*
X266011Y83750D03*
X256011Y83750D03*
X232711Y83750D03*
X222711Y83750D03*
X698336Y81250D03*
X688336Y81250D03*
X731636Y81250D03*
X721636Y81250D03*
X764936Y81250D03*
X754936Y81250D03*
X798236Y81250D03*
X788236Y81250D03*
X831536Y81250D03*
X821536Y81250D03*
X864836Y81250D03*
X854836Y81250D03*
X898136Y81250D03*
X888136Y81250D03*
X931436Y81250D03*
X921436Y81250D03*
X964736Y81250D03*
X954736Y81250D03*
X706461Y388125D03*
X696461Y388125D03*
X739761Y388125D03*
X729761Y388125D03*
X773061Y388125D03*
X763061Y388125D03*
X806361Y388125D03*
X796361Y388125D03*
X839661Y388125D03*
X829661Y388125D03*
X872961Y388125D03*
X862961Y388125D03*
X906261Y388125D03*
X896261Y388125D03*
X939561Y388125D03*
X929561Y388125D03*
X972861Y388125D03*
X962861Y388125D03*
X975361Y693750D03*
X965361Y693750D03*
X942061Y693750D03*
X932061Y693750D03*
X908761Y693750D03*
X898761Y693750D03*
X875461Y693750D03*
X865461Y693750D03*
X842161Y693750D03*
X832161Y693750D03*
X808861Y693750D03*
X798861Y693750D03*
X775561Y693750D03*
X765561Y693750D03*
X742261Y693750D03*
X732261Y693750D03*
X708961Y693750D03*
X698961Y693750D03*
G54D45*
X932500Y585812D03*
X932500Y577937D03*
G54D46*
X381530Y500625D03*
X369719Y500625D03*
X376530Y190625D03*
X364719Y190625D03*
G54D49*
X803125Y548125D03*
G54D51*
X112500Y498750D03*
X112500Y508750D03*
X127500Y518750D03*
X127500Y528750D03*
X97500Y518750D03*
X97500Y528750D03*
X102500Y225000D03*
X102500Y235000D03*
X117500Y245000D03*
X117500Y255000D03*
X87500Y245000D03*
X87500Y255000D03*
X98750Y138750D03*
X98750Y148750D03*
X113750Y158750D03*
X113750Y168750D03*
X83750Y158750D03*
X83750Y168750D03*
G54D54*
X620000Y178750D03*
X620000Y198750D03*
X620000Y218750D03*
X620000Y238750D03*
X620000Y258750D03*
X620000Y278750D03*
X620000Y298750D03*
X620000Y318750D03*
X620000Y338750D03*
X620000Y358750D03*
X595000Y178750D03*
X595000Y198750D03*
X595000Y218750D03*
X595000Y238750D03*
X595000Y258750D03*
X595000Y278750D03*
X595000Y298750D03*
X595000Y318750D03*
X595000Y338750D03*
X595000Y358750D03*
X87500Y188750D03*
X63750Y188750D03*
X87500Y488750D03*
X63750Y488750D03*
X62500Y698750D03*
X87500Y698750D03*
X63750Y60000D03*
X88750Y60000D03*
X63750Y77500D03*
X88750Y77500D03*
G54D55*
X803267Y562500D03*
X781732Y562500D03*
X803267Y575000D03*
X781732Y575000D03*
X803267Y587500D03*
X781732Y587500D03*
G54D59*
X613750Y740000D03*
X598750Y740000D03*
X613750Y551250D03*
X598750Y551250D03*
X613750Y383750D03*
X598750Y383750D03*
X613750Y156250D03*
X598750Y156250D03*
X613750Y17500D03*
X598750Y17500D03*
X85000Y741250D03*
X70000Y741250D03*
X85000Y16250D03*
X70000Y16250D03*
X85000Y456250D03*
X70000Y456250D03*
X85000Y296250D03*
X70000Y296250D03*
G54D60*
X381875Y605000D03*
X401875Y605000D03*
X376875Y295000D03*
X396875Y295000D03*
X335000Y605000D03*
X355000Y605000D03*
X330000Y295000D03*
X350000Y295000D03*
G54D62*
X383750Y487500D03*
X311875Y528125D03*
X348125Y498125D03*
X306875Y218125D03*
X343125Y188125D03*
X378750Y177500D03*
G54D63*
X389375Y582500D03*
X399375Y582500D03*
X409375Y582500D03*
X384375Y272500D03*
X394375Y272500D03*
X404375Y272500D03*
G54D64*
X373750Y517500D03*
X383750Y517500D03*
X368750Y207500D03*
X378750Y207500D03*
G54D65*
X395000Y490625D03*
X405000Y490625D03*
X415000Y490625D03*
X415000Y520625D03*
X405000Y520625D03*
X395000Y520625D03*
X390000Y180625D03*
X400000Y180625D03*
X410000Y180625D03*
X410000Y210625D03*
X400000Y210625D03*
X390000Y210625D03*
G54D66*
X793125Y548125D03*
X783125Y548125D03*
X773125Y548125D03*
X773125Y518125D03*
X783125Y518125D03*
X793125Y518125D03*
X803125Y518125D03*
X867500Y613125D03*
X857500Y613125D03*
X847500Y613125D03*
X907500Y590000D03*
X897500Y590000D03*
X887500Y590000D03*
X877500Y590000D03*
X867500Y590000D03*
X857500Y590000D03*
X847500Y590000D03*
X837500Y590000D03*
X827500Y590000D03*
X817500Y590000D03*
X817500Y560000D03*
X827500Y560000D03*
X837500Y560000D03*
X847500Y560000D03*
X857500Y560000D03*
X867500Y560000D03*
X877500Y560000D03*
X887500Y560000D03*
X897500Y560000D03*
X907500Y560000D03*
X827500Y543125D03*
X837500Y543125D03*
X847500Y543125D03*
X857500Y543125D03*
X827500Y613125D03*
X817500Y613125D03*
X807500Y613125D03*
X797500Y613125D03*
X787500Y613125D03*
X777500Y613125D03*
X767500Y613125D03*
G54D67*
X380314Y548125D03*
X419685Y548125D03*
X435625Y579060D03*
X435625Y510314D03*
X381250Y562500D03*
X421250Y562500D03*
X378439Y535625D03*
X417810Y535625D03*
X373439Y225625D03*
X412810Y225625D03*
X376250Y252500D03*
X416250Y252500D03*
X430625Y269060D03*
X430625Y200314D03*
X375314Y238125D03*
X414685Y238125D03*
G54D68*
X338125Y498125D03*
X348125Y498125D03*
X358125Y498125D03*
X333125Y188125D03*
X343125Y188125D03*
X353125Y188125D03*
G54D69*
X755625Y510000D03*
X755625Y500000D03*
G54D70*
X822500Y456250D03*
G54D71*
X860625Y461875D03*
X860625Y481875D03*
X878125Y502874D03*
X878125Y522874D03*
G54D72*
X798125Y482500D03*
X778125Y482500D03*
G54D73*
X922500Y555625D03*
X922500Y545625D03*
X922500Y585625D03*
X922500Y575625D03*
X922500Y565625D03*
G54D74*
X822500Y523125D03*
X837500Y515625D03*
X822500Y508125D03*
X837500Y500625D03*
X822500Y493125D03*
G54D75*
X918750Y518750D03*
X918750Y498750D03*
X312627Y527893D03*
X359872Y527893D03*
X336250Y520019D03*
X312627Y575925D03*
X359872Y575925D03*
X307627Y217893D03*
X354872Y217893D03*
X331250Y210019D03*
X307627Y265925D03*
X354872Y265925D03*
G54D76*
X753750Y462500D03*
X752500Y628750D03*
X927500Y628750D03*
M02*
