%FSLAX35Y35*%
%MOIN*%
%IN16 = Copper top L2   ( x.Top )*%
%ADD10C,0.00591*%
%ADD11C,0.00750*%
%ADD12C,0.01181*%
%ADD13C,0.01500*%
%ADD14C,0.01575*%
%ADD15C,0.01772*%
%ADD16C,0.02362*%
%ADD17C,0.02400*%
%ADD18C,0.02496*%
%ADD19C,0.02756*%
%ADD20C,0.03200*%
%ADD21C,0.04000*%
%ADD22C,0.06000*%
%ADD23C,0.08000*%
%ADD24C,0.23622*%
%ADD25R,0.04724X0.07874*%
%ADD26R,0.05787X0.02717*%
%ADD27R,0.07874X0.04724*%
%ADD28R,0.11811X0.27559*%
%ADD29R,0.19685X0.19685*%
G54D21*
X423499Y17125D02*
X433499Y17125D01*
X443499Y17125D01*
X443499Y27125D01*
X403499Y17125D02*
X403499Y12230D01*
X410100Y5629D01*
X533600Y5629D01*
X545100Y17129D01*
X545100Y114629D01*
X413499Y17125D02*
X403499Y17125D01*
X403499Y27125D01*
X444600Y154629D02*
X444600Y148629D01*
X361600Y148629D01*
X361600Y155129D01*
X361600Y148629D02*
X355600Y148629D01*
X336100Y129129D01*
X336100Y74629D01*
X463100Y332629D02*
X463100Y322129D01*
X385100Y322129D01*
X380600Y322129D02*
X380600Y332629D01*
X385100Y322129D02*
X385100Y189629D01*
X385100Y322129D02*
X380600Y322129D01*
X385100Y189629D02*
X391100Y183629D01*
X474600Y183629D01*
X490100Y168129D01*
X490100Y150629D01*
X469600Y130129D01*
X361600Y130129D01*
X359100Y127629D01*
X359100Y90129D01*
X530600Y231629D02*
X524600Y231629D01*
X524600Y315129D01*
X538100Y315129D01*
X550600Y406129D02*
X545600Y406129D01*
X545600Y490629D01*
X558600Y490629D01*
X545600Y490629D02*
X407100Y490629D01*
X384600Y513129D01*
X363202Y513129D01*
X319100Y470129D01*
X319100Y64629D01*
X481600Y512129D02*
X481600Y526629D01*
X399100Y526629D01*
X399100Y514629D01*
X310102Y474152D02*
X310600Y61129D01*
X310102Y474152D02*
X363630Y526629D01*
X399100Y526629D01*
X741800Y154229D02*
X741800Y148229D01*
X658800Y148229D01*
X658800Y154729D01*
X637300Y229729D02*
X633300Y229729D01*
X633300Y314229D01*
X645300Y314229D01*
X760300Y332229D02*
X760300Y321729D01*
X759600Y321729D01*
X677800Y321729D02*
X677800Y332229D01*
X759600Y321629D02*
X816100Y321629D01*
X759600Y321729D02*
X677800Y321729D01*
X759600Y321629D02*
X759600Y321729D01*
X816100Y321629D02*
X818100Y323629D01*
X867100Y323629D01*
X881100Y309629D01*
X881100Y89629D01*
X864600Y73129D01*
X630600Y73129D01*
X827800Y230229D02*
X821800Y230229D01*
X821800Y314729D01*
X835300Y314729D01*
X821800Y230229D02*
X821800Y216329D01*
X812100Y206629D01*
X812100Y173629D01*
X807100Y168629D01*
X655600Y168629D01*
X649100Y162129D01*
X649100Y113629D01*
X629600Y113629D01*
X846800Y408229D02*
X841800Y408229D01*
X841800Y492729D01*
X854800Y492729D01*
X778800Y511729D02*
X778800Y526729D01*
X696300Y526729D01*
X696300Y511729D01*
X665300Y492729D02*
X653300Y492729D01*
X653300Y408229D01*
X658300Y408229D01*
X399100Y517129D02*
X399100Y526129D01*
X536600Y315129D02*
X536600Y482629D01*
X404100Y482629D01*
X382100Y504629D01*
X367100Y504629D01*
X328600Y466129D01*
X327600Y69629D01*
X368600Y492629D02*
X351100Y475129D01*
X351100Y409629D01*
X351100Y408129D02*
X361100Y408129D01*
X351100Y409629D02*
X351100Y336129D01*
X351100Y409629D02*
X351100Y408129D01*
X351100Y336129D02*
X373100Y314129D01*
X373100Y182629D01*
X380100Y175629D01*
X455100Y175629D01*
X463100Y167629D01*
X463100Y152629D01*
X450100Y139629D01*
X359600Y139629D01*
X350600Y130629D01*
X350600Y85129D01*
X349600Y312629D02*
X349600Y309129D01*
X364100Y294629D01*
X364100Y246129D01*
X358600Y246129D01*
X342100Y246129D01*
X342100Y234129D01*
X364100Y246129D02*
X364100Y176629D01*
X344600Y157129D01*
X470100Y92629D02*
X470100Y30129D01*
X585100Y142629D02*
X555100Y142629D01*
X536100Y123629D01*
X536100Y30629D01*
X522600Y17129D01*
X444600Y17129D01*
X433100Y27629D02*
X433100Y114629D01*
X528100Y122629D02*
X385100Y122629D01*
X378600Y116129D01*
X378600Y29629D01*
X369100Y104629D02*
X369100Y28129D01*
X696600Y526129D02*
X661600Y526129D01*
X609600Y141129D02*
X617100Y133129D01*
X626100Y133129D01*
X661600Y526129D02*
X633100Y497629D01*
X633100Y343629D01*
X609600Y320129D01*
X609600Y141129D01*
X842100Y492129D02*
X702100Y492129D01*
X685600Y508629D01*
X655600Y508629D01*
X620600Y169129D02*
X638600Y151129D01*
X638600Y123629D01*
X628600Y123629D01*
X659100Y147629D02*
X659100Y108629D01*
X653600Y103129D01*
X631100Y103129D01*
X655600Y508629D02*
X643600Y496629D01*
X643100Y338129D01*
X620600Y315629D01*
X620600Y315129D02*
X620600Y169129D01*
X101399Y17125D02*
X101399Y12230D01*
X108000Y5629D01*
X231500Y5629D01*
X243000Y17129D01*
X243000Y114629D01*
X111399Y17125D02*
X101399Y17125D01*
X101399Y27125D01*
X121399Y17125D02*
X131399Y17125D01*
X141399Y17125D01*
X141399Y27125D01*
X142500Y154629D02*
X142500Y148629D01*
X59500Y148629D01*
X59500Y155129D01*
X59500Y148629D02*
X53500Y148629D01*
X34000Y129129D01*
X34000Y74629D01*
X161000Y332629D02*
X161000Y322129D01*
X83000Y322129D01*
X78500Y322129D02*
X78500Y332629D01*
X83000Y322129D02*
X83000Y189629D01*
X83000Y322129D02*
X78500Y322129D01*
X83000Y189629D02*
X89000Y183629D01*
X172500Y183629D01*
X188000Y168129D01*
X188000Y150629D01*
X167500Y130129D01*
X59500Y130129D01*
X57000Y127629D01*
X57000Y90129D01*
X228500Y231629D02*
X222500Y231629D01*
X222500Y315129D01*
X236000Y315129D01*
X248500Y406129D02*
X243500Y406129D01*
X243500Y490629D01*
X256500Y490629D01*
X243500Y490629D02*
X105000Y490629D01*
X82500Y513129D01*
X61102Y513129D01*
X17000Y470129D01*
X17000Y64629D01*
X179500Y512129D02*
X179500Y526629D01*
X97000Y526629D01*
X97000Y514629D01*
X8002Y474152D02*
X8500Y61129D01*
X8002Y474152D02*
X61530Y526629D01*
X97000Y526629D01*
X97000Y517129D02*
X97000Y526129D01*
X234500Y315129D02*
X234500Y482629D01*
X102000Y482629D01*
X80000Y504629D01*
X65000Y504629D01*
X26500Y466129D01*
X25500Y69629D01*
X66500Y492629D02*
X49000Y475129D01*
X49000Y409629D01*
X49000Y408129D02*
X59000Y408129D01*
X49000Y409629D02*
X49000Y336129D01*
X49000Y409629D02*
X49000Y408129D01*
X49000Y336129D02*
X71000Y314129D01*
X71000Y182629D01*
X78000Y175629D01*
X153000Y175629D01*
X161000Y167629D01*
X161000Y152629D01*
X148000Y139629D01*
X57500Y139629D01*
X48500Y130629D01*
X48500Y85129D01*
X47500Y312629D02*
X47500Y309129D01*
X62000Y294629D01*
X62000Y246129D01*
X56500Y246129D01*
X40000Y246129D01*
X40000Y234129D01*
X62000Y246129D02*
X62000Y176629D01*
X42500Y157129D01*
X168000Y92629D02*
X168000Y30129D01*
X283000Y142629D02*
X253000Y142629D01*
X234000Y123629D01*
X234000Y30629D01*
X220500Y17129D01*
X142500Y17129D01*
X131000Y27629D02*
X131000Y114629D01*
X226000Y122629D02*
X83000Y122629D01*
X76500Y116129D01*
X76500Y29629D01*
X67000Y104629D02*
X67000Y28129D01*
G54D22*
X545100Y114629D03*
X336100Y74629D03*
X359100Y90129D03*
X319100Y64629D03*
X327600Y69629D03*
X350600Y85129D03*
X310100Y59629D03*
X344600Y157129D03*
X470600Y94629D03*
X433100Y114629D03*
X528600Y122129D03*
X369100Y104629D03*
X243000Y114629D03*
X34000Y74629D03*
X57000Y90129D03*
X17000Y64629D03*
X25500Y69629D03*
X48500Y85129D03*
X8000Y59629D03*
X42500Y157129D03*
X168500Y94629D03*
X131000Y114629D03*
X226500Y122129D03*
X67000Y104629D03*
G54D23*
X397121Y247736D03*
X397121Y227736D03*
X480979Y27923D03*
X470822Y27923D03*
X403499Y17125D03*
X403499Y27125D03*
X413499Y17125D03*
X413499Y27125D03*
X423499Y17125D03*
X423499Y27125D03*
X433499Y17125D03*
X433499Y27125D03*
X443499Y17125D03*
X443499Y27125D03*
X378932Y27332D03*
X368932Y27332D03*
X587397Y72972D03*
X587397Y82972D03*
X587397Y92972D03*
X587397Y102972D03*
X587397Y112972D03*
X587397Y122972D03*
X587397Y132972D03*
X587397Y142972D03*
X627964Y73062D03*
X627964Y83062D03*
X627964Y93062D03*
X627964Y103062D03*
X627964Y113062D03*
X627964Y123062D03*
X627964Y133062D03*
X627964Y143062D03*
X285297Y72972D03*
X285297Y82972D03*
X285297Y92972D03*
X285297Y102972D03*
X285297Y112972D03*
X285297Y122972D03*
X285297Y132972D03*
X285297Y142972D03*
X76832Y27332D03*
X66832Y27332D03*
X101399Y17125D03*
X101399Y27125D03*
X111399Y17125D03*
X111399Y27125D03*
X121399Y17125D03*
X121399Y27125D03*
X131399Y17125D03*
X131399Y27125D03*
X141399Y17125D03*
X141399Y27125D03*
X168722Y27923D03*
X178879Y27923D03*
X95021Y247736D03*
X95021Y227736D03*
G54D25*
X370230Y493280D03*
X380230Y493280D03*
X367269Y465184D03*
X377269Y465184D03*
X364831Y437628D03*
X374831Y437628D03*
X362368Y408733D03*
X372368Y408733D03*
X359582Y381649D03*
X369582Y381649D03*
X357403Y354536D03*
X367403Y354536D03*
X546499Y354425D03*
X556499Y354425D03*
X548677Y381538D03*
X558677Y381538D03*
X551463Y408623D03*
X561463Y408623D03*
X553926Y437518D03*
X563926Y437518D03*
X556365Y465074D03*
X566365Y465074D03*
X559325Y493170D03*
X569325Y493170D03*
X336866Y176239D03*
X346866Y176239D03*
X339044Y203352D03*
X349044Y203352D03*
X341830Y230437D03*
X351830Y230437D03*
X344293Y259332D03*
X354293Y259332D03*
X346732Y286888D03*
X356732Y286888D03*
X349692Y314984D03*
X359692Y314984D03*
X526456Y176732D03*
X536456Y176732D03*
X528634Y203845D03*
X538634Y203845D03*
X531420Y230929D03*
X541420Y230929D03*
X533883Y259824D03*
X543883Y259824D03*
X536322Y287380D03*
X546322Y287380D03*
X539282Y315476D03*
X549282Y315476D03*
X361635Y157786D03*
X371635Y157786D03*
X389237Y157482D03*
X399237Y157482D03*
X416689Y157344D03*
X426689Y157344D03*
X444388Y157315D03*
X454388Y157315D03*
X471731Y157308D03*
X481731Y157308D03*
X499372Y157303D03*
X509372Y157303D03*
X518102Y334708D03*
X528102Y334708D03*
X490461Y334713D03*
X500461Y334713D03*
X463119Y334720D03*
X473119Y334720D03*
X435420Y334750D03*
X445420Y334750D03*
X407968Y334888D03*
X417968Y334888D03*
X380366Y335192D03*
X390366Y335192D03*
X536846Y514231D03*
X546846Y514231D03*
X509204Y514236D03*
X519204Y514236D03*
X481862Y514243D03*
X491862Y514243D03*
X454163Y514272D03*
X464163Y514272D03*
X426711Y514411D03*
X436711Y514411D03*
X399109Y514715D03*
X409109Y514715D03*
X696309Y514315D03*
X706309Y514315D03*
X723911Y514011D03*
X733911Y514011D03*
X751363Y513872D03*
X761363Y513872D03*
X779062Y513843D03*
X789062Y513843D03*
X806404Y513836D03*
X816404Y513836D03*
X834046Y513831D03*
X844046Y513831D03*
X677566Y334792D03*
X687566Y334792D03*
X705168Y334488D03*
X715168Y334488D03*
X732620Y334350D03*
X742620Y334350D03*
X760319Y334320D03*
X770319Y334320D03*
X787661Y334313D03*
X797661Y334313D03*
X815302Y334308D03*
X825302Y334308D03*
X796572Y156903D03*
X806572Y156903D03*
X768931Y156908D03*
X778931Y156908D03*
X741588Y156915D03*
X751588Y156915D03*
X713889Y156944D03*
X723889Y156944D03*
X686437Y157082D03*
X696437Y157082D03*
X658835Y157386D03*
X668835Y157386D03*
X836482Y315076D03*
X846482Y315076D03*
X833522Y286980D03*
X843522Y286980D03*
X831083Y259424D03*
X841083Y259424D03*
X828620Y230529D03*
X838620Y230529D03*
X825834Y203445D03*
X835834Y203445D03*
X823656Y176332D03*
X833656Y176332D03*
X646892Y314584D03*
X656892Y314584D03*
X643932Y286488D03*
X653932Y286488D03*
X641493Y258932D03*
X651493Y258932D03*
X639030Y230037D03*
X649030Y230037D03*
X636244Y202952D03*
X646244Y202952D03*
X634066Y175839D03*
X644066Y175839D03*
X856525Y492770D03*
X866525Y492770D03*
X853565Y464674D03*
X863565Y464674D03*
X851126Y437118D03*
X861126Y437118D03*
X848663Y408223D03*
X858663Y408223D03*
X845877Y381138D03*
X855877Y381138D03*
X843699Y354025D03*
X853699Y354025D03*
X654603Y354136D03*
X664603Y354136D03*
X656782Y381249D03*
X666782Y381249D03*
X659568Y408333D03*
X669568Y408333D03*
X662031Y437228D03*
X672031Y437228D03*
X664469Y464784D03*
X674469Y464784D03*
X667430Y492880D03*
X677430Y492880D03*
X97009Y514715D03*
X107009Y514715D03*
X124611Y514411D03*
X134611Y514411D03*
X152063Y514272D03*
X162063Y514272D03*
X179762Y514243D03*
X189762Y514243D03*
X207104Y514236D03*
X217104Y514236D03*
X234746Y514231D03*
X244746Y514231D03*
X78266Y335192D03*
X88266Y335192D03*
X105868Y334888D03*
X115868Y334888D03*
X133320Y334750D03*
X143320Y334750D03*
X161019Y334720D03*
X171019Y334720D03*
X188361Y334713D03*
X198361Y334713D03*
X216002Y334708D03*
X226002Y334708D03*
X197272Y157303D03*
X207272Y157303D03*
X169631Y157308D03*
X179631Y157308D03*
X142288Y157315D03*
X152288Y157315D03*
X114589Y157344D03*
X124589Y157344D03*
X87137Y157482D03*
X97137Y157482D03*
X59535Y157786D03*
X69535Y157786D03*
X237182Y315476D03*
X247182Y315476D03*
X234222Y287380D03*
X244222Y287380D03*
X231783Y259824D03*
X241783Y259824D03*
X229320Y230929D03*
X239320Y230929D03*
X226534Y203845D03*
X236534Y203845D03*
X224356Y176732D03*
X234356Y176732D03*
X47592Y314984D03*
X57592Y314984D03*
X44632Y286888D03*
X54632Y286888D03*
X42193Y259332D03*
X52193Y259332D03*
X39730Y230437D03*
X49730Y230437D03*
X36944Y203352D03*
X46944Y203352D03*
X34766Y176239D03*
X44766Y176239D03*
X257225Y493170D03*
X267225Y493170D03*
X254265Y465074D03*
X264265Y465074D03*
X251826Y437518D03*
X261826Y437518D03*
X249363Y408623D03*
X259363Y408623D03*
X246577Y381538D03*
X256577Y381538D03*
X244399Y354425D03*
X254399Y354425D03*
X55303Y354536D03*
X65303Y354536D03*
X57482Y381649D03*
X67482Y381649D03*
X60268Y408733D03*
X70268Y408733D03*
X62731Y437628D03*
X72731Y437628D03*
X65169Y465184D03*
X75169Y465184D03*
X68130Y493280D03*
X78130Y493280D03*
G54D28*
X612600Y476129D03*
X596100Y476129D03*
X612600Y51629D03*
X596100Y51629D03*
X294000Y476129D03*
X294000Y51629D03*
M02*
