%FSLAX35Y35*%
%MOIN*%
%IN2 = Copper bottom L1   ( x.Bot )*%
%ADD10C,0.00591*%
%ADD11C,0.00750*%
%ADD12C,0.01181*%
%ADD13C,0.01500*%
%ADD14C,0.01575*%
%ADD15C,0.01772*%
%ADD16C,0.02362*%
%ADD17C,0.02400*%
%ADD18C,0.02496*%
%ADD19C,0.02756*%
%ADD20C,0.03200*%
%ADD21C,0.04000*%
%ADD22C,0.06000*%
%ADD23C,0.08000*%
%ADD24C,0.23622*%
%ADD25R,0.04724X0.07874*%
%ADD26R,0.05787X0.02717*%
%ADD27R,0.07874X0.04724*%
%ADD28R,0.11811X0.27559*%
%ADD29R,0.19685X0.19685*%
G54D17*
X545100Y114629D02*
X533850Y114629D01*
X336100Y74629D02*
X495600Y74629D01*
X319100Y64629D02*
X494600Y64629D01*
X327600Y69629D02*
X495600Y69629D01*
X310100Y59629D02*
X494600Y59629D01*
X344600Y157129D02*
X344600Y79629D01*
X496100Y79629D01*
X495100Y84629D02*
X352100Y84629D01*
X495100Y89629D02*
X360600Y89629D01*
X536100Y94629D02*
X546600Y94629D01*
X584600Y132629D01*
X585100Y132629D01*
X536100Y89629D02*
X548100Y89629D01*
X581600Y123129D01*
X584600Y123129D01*
X534600Y84629D02*
X549600Y84629D01*
X578100Y113129D01*
X585100Y113129D01*
X534600Y79629D02*
X551600Y79629D01*
X574600Y102629D01*
X584100Y102629D01*
X584600Y93129D02*
X572600Y93129D01*
X554100Y74629D01*
X536100Y74629D01*
X584100Y83129D02*
X569600Y83129D01*
X556100Y69629D01*
X536100Y69629D01*
X584600Y72629D02*
X566100Y72629D01*
X558100Y64629D01*
X535100Y64629D01*
X497100Y94629D02*
X470600Y94629D01*
X533100Y104629D02*
X519100Y104629D01*
X504600Y90129D01*
X504600Y56129D01*
X502100Y53629D01*
X426100Y53629D01*
X413600Y41129D01*
X413600Y27629D01*
X423600Y29129D02*
X423600Y42629D01*
X429600Y48629D01*
X504600Y48629D01*
X510100Y54129D01*
X510100Y88629D01*
X521100Y99629D01*
X531100Y99629D01*
X482100Y27629D02*
X555100Y27629D01*
X562100Y34629D01*
X562100Y55629D01*
X558100Y59629D01*
X535600Y59629D01*
X433100Y114629D02*
X496100Y114629D01*
X498600Y109629D02*
X501600Y109629D01*
X508600Y116629D01*
X508600Y123629D01*
X521100Y124629D02*
X521100Y114629D01*
X521100Y114629D03*
X531600Y114629D01*
X508100Y137629D02*
X501100Y137629D01*
X496600Y133129D01*
X496600Y115129D01*
X498600Y99629D02*
X506100Y99629D01*
X520600Y114129D01*
X535100Y109629D02*
X553100Y109629D01*
X557600Y114129D01*
X557600Y119129D01*
X554600Y122129D01*
X528600Y122129D01*
X495100Y104629D02*
X369100Y104629D01*
X243000Y114629D02*
X231750Y114629D01*
X34000Y74629D02*
X193500Y74629D01*
X17000Y64629D02*
X192500Y64629D01*
X25500Y69629D02*
X193500Y69629D01*
X8000Y59629D02*
X192500Y59629D01*
X42500Y157129D02*
X42500Y79629D01*
X194000Y79629D01*
X193000Y84629D02*
X50000Y84629D01*
X193000Y89629D02*
X58500Y89629D01*
X234000Y94629D02*
X244500Y94629D01*
X282500Y132629D01*
X283000Y132629D01*
X234000Y89629D02*
X246000Y89629D01*
X279500Y123129D01*
X282500Y123129D01*
X232500Y84629D02*
X247500Y84629D01*
X276000Y113129D01*
X283000Y113129D01*
X232500Y79629D02*
X249500Y79629D01*
X272500Y102629D01*
X282000Y102629D01*
X282500Y93129D02*
X270500Y93129D01*
X252000Y74629D01*
X234000Y74629D01*
X282000Y83129D02*
X267500Y83129D01*
X254000Y69629D01*
X234000Y69629D01*
X282500Y72629D02*
X264000Y72629D01*
X256000Y64629D01*
X233000Y64629D01*
X195000Y94629D02*
X168500Y94629D01*
X231000Y104629D02*
X217000Y104629D01*
X202500Y90129D01*
X202500Y56129D01*
X200000Y53629D01*
X124000Y53629D01*
X111500Y41129D01*
X111500Y27629D01*
X121500Y29129D02*
X121500Y42629D01*
X127500Y48629D01*
X202500Y48629D01*
X208000Y54129D01*
X208000Y88629D01*
X219000Y99629D01*
X229000Y99629D01*
X180000Y27629D02*
X253000Y27629D01*
X260000Y34629D01*
X260000Y55629D01*
X256000Y59629D01*
X233500Y59629D01*
X131000Y114629D02*
X194000Y114629D01*
X196500Y109629D02*
X199500Y109629D01*
X206500Y116629D01*
X206500Y123629D01*
X219000Y124629D02*
X219000Y114629D01*
X219000Y114629D03*
X229500Y114629D01*
X206000Y137629D02*
X199000Y137629D01*
X194500Y133129D01*
X194500Y115129D01*
X196500Y99629D02*
X204000Y99629D01*
X218500Y114129D01*
X233000Y109629D02*
X251000Y109629D01*
X255500Y114129D01*
X255500Y119129D01*
X252500Y122129D01*
X226500Y122129D01*
X193000Y104629D02*
X67000Y104629D01*
G54D21*
X423499Y17125D02*
X433499Y17125D01*
X443499Y17125D01*
X443600Y17025D01*
X443600Y27226D01*
X443499Y27125D01*
X413499Y17125D02*
X403499Y17125D01*
X403499Y27125D01*
X587600Y437129D02*
X587600Y375129D01*
X587600Y437129D02*
X587795Y437029D01*
X587600Y375129D02*
X581600Y369129D01*
X581600Y354629D01*
X528100Y322129D02*
X528100Y334629D01*
X528102Y334708D01*
X372600Y157629D02*
X387600Y157629D01*
X400600Y157629D02*
X415100Y157629D01*
X426600Y159629D02*
X426600Y169129D01*
X456600Y157129D02*
X470600Y157129D01*
X483600Y157129D02*
X497600Y157129D01*
X509600Y161129D02*
X509600Y170629D01*
X546600Y176629D02*
X536600Y176629D01*
X526600Y178129D02*
X526600Y184629D01*
X538600Y196629D01*
X538600Y201129D01*
X528600Y206629D02*
X528600Y210629D01*
X541600Y223629D01*
X541600Y228629D01*
X545600Y259629D02*
X552600Y259629D01*
X534100Y262629D02*
X534100Y267629D01*
X546100Y279629D01*
X546100Y285629D01*
X536600Y290129D02*
X536600Y295629D01*
X549100Y308129D01*
X549100Y312629D01*
X361100Y176129D02*
X347100Y176129D01*
X337100Y179129D02*
X337100Y183629D01*
X349100Y195629D01*
X349100Y204129D01*
X339100Y205629D02*
X339100Y210129D01*
X351600Y222629D01*
X351600Y228129D01*
X365100Y259129D02*
X356100Y259129D01*
X344100Y260629D02*
X344100Y267129D01*
X356600Y279629D01*
X356600Y284629D01*
X346600Y290629D02*
X346600Y294129D01*
X359600Y307129D01*
X359600Y312629D01*
X392100Y334629D02*
X407600Y334629D01*
X420600Y334629D02*
X435100Y334629D01*
X445600Y322129D02*
X445600Y332629D01*
X475100Y334629D02*
X488600Y334629D01*
X502600Y334629D02*
X515600Y334629D01*
X380100Y354129D02*
X368600Y354129D01*
X387600Y437629D02*
X375100Y437629D01*
X464600Y502129D02*
X464600Y512129D01*
X547100Y502629D02*
X547100Y510629D01*
X575100Y436629D02*
X563600Y436629D01*
X557100Y354129D02*
X570100Y354129D01*
X546600Y357129D02*
X546600Y362629D01*
X558600Y374629D01*
X558600Y378629D01*
X548600Y385129D02*
X548600Y386629D01*
X561600Y399629D01*
X561600Y405629D01*
X357600Y358129D02*
X357600Y362629D01*
X369600Y374629D01*
X369600Y378129D01*
X359600Y385129D02*
X359600Y388129D01*
X372600Y401129D01*
X372600Y406129D01*
X364600Y440129D02*
X364600Y444129D01*
X377100Y456629D01*
X377100Y462629D01*
X367100Y468629D02*
X367100Y470129D01*
X380100Y483129D01*
X380100Y490129D01*
X411100Y514629D02*
X425100Y514629D01*
X438600Y514129D02*
X452600Y514129D01*
X492600Y514129D02*
X507600Y514129D01*
X521100Y514129D02*
X535100Y514129D01*
X569600Y490629D02*
X569600Y485129D01*
X556600Y472129D01*
X556600Y467629D01*
X566600Y462129D02*
X566600Y458129D01*
X554100Y445629D01*
X554100Y441129D01*
X546600Y488629D02*
X462600Y488629D01*
X413100Y488629D01*
X399600Y475129D01*
X399600Y379129D01*
X392600Y372129D01*
X392600Y353629D01*
X455600Y353629D01*
X392600Y353629D02*
X392600Y353129D01*
X534600Y353629D02*
X567100Y321129D01*
X567100Y259129D01*
X567100Y206129D01*
X559100Y198129D01*
X559100Y177629D01*
X455600Y353629D02*
X455600Y309129D01*
X455600Y353629D02*
X534600Y353629D01*
X528100Y308629D02*
X445100Y308629D01*
X509600Y182629D02*
X426600Y182629D01*
X395100Y182629D01*
X388600Y176129D01*
X373100Y176129D01*
X372987Y176264D01*
X373100Y176129D02*
X373100Y211629D01*
X373100Y176129D02*
X372987Y176264D01*
X373100Y211629D02*
X378100Y216629D01*
X378100Y247629D01*
X394100Y247629D02*
X378100Y247629D01*
X378100Y259629D01*
X377600Y260129D02*
X377600Y300629D01*
X385600Y308629D01*
X446600Y308629D01*
X582100Y352629D02*
X582100Y337629D01*
X567100Y322629D01*
X825300Y321729D02*
X825300Y334229D01*
X825302Y334308D01*
X806800Y182229D02*
X723800Y182229D01*
X692300Y182229D01*
X685800Y175729D01*
X670300Y175729D01*
X670187Y175864D01*
X670300Y175729D02*
X670300Y211229D01*
X670300Y175729D02*
X670187Y175864D01*
X670300Y211229D02*
X675300Y216229D01*
X675300Y259229D01*
X884800Y436729D02*
X884800Y374729D01*
X884800Y436729D02*
X884995Y436629D01*
X884800Y374729D02*
X878800Y368729D01*
X878800Y354229D01*
X669800Y157229D02*
X684800Y157229D01*
X697800Y157229D02*
X712300Y157229D01*
X723800Y159229D02*
X723800Y168729D01*
X753800Y156729D02*
X767800Y156729D01*
X780800Y156729D02*
X794800Y156729D01*
X806800Y160729D02*
X806800Y170229D01*
X843800Y176229D02*
X833800Y176229D01*
X823800Y177729D02*
X823800Y184229D01*
X835800Y196229D01*
X835800Y200729D01*
X825800Y206229D02*
X825800Y210229D01*
X838800Y223229D01*
X838800Y228229D01*
X842800Y259229D02*
X849800Y259229D01*
X831300Y262229D02*
X831300Y267229D01*
X843300Y279229D01*
X843300Y285229D01*
X833800Y289729D02*
X833800Y295229D01*
X846300Y307729D01*
X846300Y312229D01*
X658300Y175729D02*
X644300Y175729D01*
X634300Y178729D02*
X634300Y183229D01*
X646300Y195229D01*
X646300Y203729D01*
X636300Y205229D02*
X636300Y209729D01*
X648800Y222229D01*
X648800Y227729D01*
X662300Y258729D02*
X653300Y258729D01*
X641300Y260229D02*
X641300Y266729D01*
X653800Y279229D01*
X653800Y284229D01*
X643800Y290229D02*
X643800Y293729D01*
X656800Y306729D01*
X656800Y312229D01*
X689300Y334229D02*
X704800Y334229D01*
X717800Y334229D02*
X732300Y334229D01*
X742800Y321729D02*
X742800Y332229D01*
X772300Y334229D02*
X785800Y334229D01*
X799800Y334229D02*
X812800Y334229D01*
X677300Y353729D02*
X665800Y353729D01*
X684800Y437229D02*
X672300Y437229D01*
X761800Y501729D02*
X761800Y511729D01*
X844300Y502229D02*
X844300Y510229D01*
X872300Y436229D02*
X860800Y436229D01*
X854300Y353729D02*
X867300Y353729D01*
X843800Y356729D02*
X843800Y362229D01*
X855800Y374229D01*
X855800Y378229D01*
X845800Y384729D02*
X845800Y386229D01*
X858800Y399229D01*
X858800Y405229D01*
X654800Y357729D02*
X654800Y362229D01*
X666800Y374229D01*
X666800Y377729D01*
X656800Y384729D02*
X656800Y387729D01*
X669800Y400729D01*
X669800Y405729D01*
X661800Y439729D02*
X661800Y443729D01*
X674300Y456229D01*
X674300Y462229D01*
X664300Y468229D02*
X664300Y469729D01*
X677300Y482729D01*
X677300Y489729D01*
X708300Y514229D02*
X722300Y514229D01*
X735800Y513729D02*
X749800Y513729D01*
X789800Y513729D02*
X804800Y513729D01*
X818300Y513729D02*
X832300Y513729D01*
X866800Y490229D02*
X866800Y484729D01*
X853800Y471729D01*
X853800Y467229D01*
X863800Y461729D02*
X863800Y457729D01*
X851300Y445229D01*
X851300Y440729D01*
X843800Y488229D02*
X759800Y488229D01*
X710300Y488229D01*
X696800Y474729D01*
X696800Y378729D01*
X689800Y371729D01*
X689800Y353229D01*
X752800Y353229D01*
X689800Y353229D02*
X689800Y352729D01*
X831800Y353229D02*
X864300Y320729D01*
X864300Y258729D01*
X864300Y205729D01*
X856300Y197729D01*
X856300Y177229D01*
X752800Y353229D02*
X752800Y308729D01*
X752800Y353229D02*
X831800Y353229D01*
X825300Y308229D02*
X742300Y308229D01*
X674800Y259729D02*
X674800Y300229D01*
X682800Y308229D01*
X743800Y308229D01*
X879300Y352229D02*
X879300Y337229D01*
X864300Y322229D01*
X559100Y173629D02*
X559100Y150129D01*
X566600Y142629D01*
X584100Y142629D01*
X521100Y129629D02*
X521100Y136629D01*
X638100Y230629D02*
X625100Y230629D01*
X615600Y221129D01*
X615600Y95129D01*
X617100Y93629D01*
X627600Y93629D01*
X658600Y408629D02*
X636600Y408629D01*
X609600Y381629D01*
X609600Y83629D01*
X625100Y83629D01*
X629600Y143129D02*
X810100Y143129D01*
X815100Y148129D01*
X815100Y182629D01*
X807100Y182629D01*
X397100Y225129D02*
X397100Y196129D01*
X401600Y191629D01*
X515600Y191629D01*
X518600Y188629D01*
X518600Y154129D01*
X521100Y151629D01*
X521100Y142129D01*
X226000Y322129D02*
X226000Y334629D01*
X226002Y334708D01*
X207500Y182629D02*
X124500Y182629D01*
X93000Y182629D01*
X86500Y176129D01*
X71000Y176129D01*
X70887Y176264D01*
X71000Y176129D02*
X71000Y211629D01*
X71000Y176129D02*
X70887Y176264D01*
X71000Y211629D02*
X76000Y216629D01*
X76000Y247629D01*
X92000Y247629D02*
X76000Y247629D01*
X76000Y259629D01*
X285500Y437129D02*
X285500Y375129D01*
X285500Y437129D02*
X285695Y437029D01*
X285500Y375129D02*
X279500Y369129D01*
X279500Y354629D01*
X111399Y17125D02*
X101399Y17125D01*
X101399Y27125D01*
X121399Y17125D02*
X131399Y17125D01*
X141399Y17125D01*
X141500Y17025D01*
X141500Y27226D01*
X141399Y27125D01*
X70500Y157629D02*
X85500Y157629D01*
X98500Y157629D02*
X113000Y157629D01*
X124500Y159629D02*
X124500Y169129D01*
X154500Y157129D02*
X168500Y157129D01*
X181500Y157129D02*
X195500Y157129D01*
X207500Y161129D02*
X207500Y170629D01*
X244500Y176629D02*
X234500Y176629D01*
X224500Y178129D02*
X224500Y184629D01*
X236500Y196629D01*
X236500Y201129D01*
X226500Y206629D02*
X226500Y210629D01*
X239500Y223629D01*
X239500Y228629D01*
X243500Y259629D02*
X250500Y259629D01*
X232000Y262629D02*
X232000Y267629D01*
X244000Y279629D01*
X244000Y285629D01*
X234500Y290129D02*
X234500Y295629D01*
X247000Y308129D01*
X247000Y312629D01*
X59000Y176129D02*
X45000Y176129D01*
X35000Y179129D02*
X35000Y183629D01*
X47000Y195629D01*
X47000Y204129D01*
X37000Y205629D02*
X37000Y210129D01*
X49500Y222629D01*
X49500Y228129D01*
X63000Y259129D02*
X54000Y259129D01*
X42000Y260629D02*
X42000Y267129D01*
X54500Y279629D01*
X54500Y284629D01*
X44500Y290629D02*
X44500Y294129D01*
X57500Y307129D01*
X57500Y312629D01*
X90000Y334629D02*
X105500Y334629D01*
X118500Y334629D02*
X133000Y334629D01*
X143500Y322129D02*
X143500Y332629D01*
X173000Y334629D02*
X186500Y334629D01*
X200500Y334629D02*
X213500Y334629D01*
X78000Y354129D02*
X66500Y354129D01*
X85500Y437629D02*
X73000Y437629D01*
X162500Y502129D02*
X162500Y512129D01*
X245000Y502629D02*
X245000Y510629D01*
X273000Y436629D02*
X261500Y436629D01*
X255000Y354129D02*
X268000Y354129D01*
X244500Y357129D02*
X244500Y362629D01*
X256500Y374629D01*
X256500Y378629D01*
X246500Y385129D02*
X246500Y386629D01*
X259500Y399629D01*
X259500Y405629D01*
X55500Y358129D02*
X55500Y362629D01*
X67500Y374629D01*
X67500Y378129D01*
X57500Y385129D02*
X57500Y388129D01*
X70500Y401129D01*
X70500Y406129D01*
X62500Y440129D02*
X62500Y444129D01*
X75000Y456629D01*
X75000Y462629D01*
X65000Y468629D02*
X65000Y470129D01*
X78000Y483129D01*
X78000Y490129D01*
X109000Y514629D02*
X123000Y514629D01*
X136500Y514129D02*
X150500Y514129D01*
X190500Y514129D02*
X205500Y514129D01*
X219000Y514129D02*
X233000Y514129D01*
X267500Y490629D02*
X267500Y485129D01*
X254500Y472129D01*
X254500Y467629D01*
X264500Y462129D02*
X264500Y458129D01*
X252000Y445629D01*
X252000Y441129D01*
X244500Y488629D02*
X160500Y488629D01*
X111000Y488629D01*
X97500Y475129D01*
X97500Y379129D01*
X90500Y372129D01*
X90500Y353629D01*
X153500Y353629D01*
X90500Y353629D02*
X90500Y353129D01*
X232500Y353629D02*
X265000Y321129D01*
X265000Y259129D01*
X265000Y206129D01*
X257000Y198129D01*
X257000Y177629D01*
X153500Y353629D02*
X153500Y309129D01*
X153500Y353629D02*
X232500Y353629D01*
X226000Y308629D02*
X143000Y308629D01*
X75500Y260129D02*
X75500Y300629D01*
X83500Y308629D01*
X144500Y308629D01*
X280000Y352629D02*
X280000Y337629D01*
X265000Y322629D01*
X257000Y173629D02*
X257000Y150129D01*
X264500Y142629D01*
X282000Y142629D01*
X219000Y129629D02*
X219000Y136629D01*
X95000Y225129D02*
X95000Y196129D01*
X99500Y191629D01*
X213500Y191629D01*
X216500Y188629D01*
X216500Y154129D01*
X219000Y151629D01*
X219000Y142129D01*
G54D22*
X545100Y114629D03*
X336100Y74629D03*
X359100Y90129D03*
X319100Y64629D03*
X327600Y69629D03*
X350600Y85129D03*
X310100Y59629D03*
X344600Y157129D03*
X470600Y94629D03*
X433100Y114629D03*
X528600Y122129D03*
X369100Y104629D03*
X243000Y114629D03*
X34000Y74629D03*
X57000Y90129D03*
X17000Y64629D03*
X25500Y69629D03*
X48500Y85129D03*
X8000Y59629D03*
X42500Y157129D03*
X168500Y94629D03*
X131000Y114629D03*
X226500Y122129D03*
X67000Y104629D03*
G54D23*
X397121Y247736D03*
X397121Y227736D03*
X480979Y27923D03*
X470822Y27923D03*
X403499Y17125D03*
X403499Y27125D03*
X413499Y17125D03*
X413499Y27125D03*
X423499Y17125D03*
X423499Y27125D03*
X433499Y17125D03*
X433499Y27125D03*
X443499Y17125D03*
X443499Y27125D03*
X378932Y27332D03*
X368932Y27332D03*
X587397Y72972D03*
X587397Y82972D03*
X587397Y92972D03*
X587397Y102972D03*
X587397Y112972D03*
X587397Y122972D03*
X587397Y132972D03*
X587397Y142972D03*
X627964Y73062D03*
X627964Y83062D03*
X627964Y93062D03*
X627964Y103062D03*
X627964Y113062D03*
X627964Y123062D03*
X627964Y133062D03*
X627964Y143062D03*
X285297Y72972D03*
X285297Y82972D03*
X285297Y92972D03*
X285297Y102972D03*
X285297Y112972D03*
X285297Y122972D03*
X285297Y132972D03*
X285297Y142972D03*
X76832Y27332D03*
X66832Y27332D03*
X101399Y17125D03*
X101399Y27125D03*
X111399Y17125D03*
X111399Y27125D03*
X121399Y17125D03*
X121399Y27125D03*
X131399Y17125D03*
X131399Y27125D03*
X141399Y17125D03*
X141399Y27125D03*
X168722Y27923D03*
X178879Y27923D03*
X95021Y247736D03*
X95021Y227736D03*
G54D24*
X586100Y25629D03*
X328600Y28129D03*
X586100Y513129D03*
X328600Y513129D03*
X886200Y25729D03*
X626500Y26029D03*
X882300Y513229D03*
X624800Y513229D03*
X284000Y25629D03*
X26500Y28129D03*
X284000Y513129D03*
X26500Y513129D03*
G54D25*
X370230Y493280D03*
X380230Y493280D03*
X367269Y465184D03*
X377269Y465184D03*
X364831Y437628D03*
X374831Y437628D03*
X362368Y408733D03*
X372368Y408733D03*
X359582Y381649D03*
X369582Y381649D03*
X357403Y354536D03*
X367403Y354536D03*
X387699Y437640D03*
X399699Y437640D03*
X380625Y354460D03*
X392625Y354460D03*
X569720Y354350D03*
X581720Y354350D03*
X575795Y437029D03*
X587795Y437029D03*
X546499Y354425D03*
X556499Y354425D03*
X548677Y381538D03*
X558677Y381538D03*
X551463Y408623D03*
X561463Y408623D03*
X553926Y437518D03*
X563926Y437518D03*
X556365Y465074D03*
X566365Y465074D03*
X559325Y493170D03*
X569325Y493170D03*
X360987Y176264D03*
X372987Y176264D03*
X366362Y259243D03*
X378362Y259243D03*
X336866Y176239D03*
X346866Y176239D03*
X339044Y203352D03*
X349044Y203352D03*
X341830Y230437D03*
X351830Y230437D03*
X344293Y259332D03*
X354293Y259332D03*
X346732Y286888D03*
X356732Y286888D03*
X349692Y314984D03*
X359692Y314984D03*
X547177Y176656D03*
X559177Y176656D03*
X554995Y259921D03*
X566995Y259921D03*
X526456Y176732D03*
X536456Y176732D03*
X528634Y203845D03*
X538634Y203845D03*
X531420Y230929D03*
X541420Y230929D03*
X533883Y259824D03*
X543883Y259824D03*
X536322Y287380D03*
X546322Y287380D03*
X539282Y315476D03*
X549282Y315476D03*
X361635Y157786D03*
X371635Y157786D03*
X389237Y157482D03*
X399237Y157482D03*
X416689Y157344D03*
X426689Y157344D03*
X444388Y157315D03*
X454388Y157315D03*
X471731Y157308D03*
X481731Y157308D03*
X499372Y157303D03*
X509372Y157303D03*
X518102Y334708D03*
X528102Y334708D03*
X490461Y334713D03*
X500461Y334713D03*
X463119Y334720D03*
X473119Y334720D03*
X435420Y334750D03*
X445420Y334750D03*
X407968Y334888D03*
X417968Y334888D03*
X380366Y335192D03*
X390366Y335192D03*
X536846Y514231D03*
X546846Y514231D03*
X509204Y514236D03*
X519204Y514236D03*
X481862Y514243D03*
X491862Y514243D03*
X454163Y514272D03*
X464163Y514272D03*
X426711Y514411D03*
X436711Y514411D03*
X399109Y514715D03*
X409109Y514715D03*
X520957Y126991D03*
X508957Y126991D03*
X696309Y514315D03*
X706309Y514315D03*
X723911Y514011D03*
X733911Y514011D03*
X751363Y513872D03*
X761363Y513872D03*
X779062Y513843D03*
X789062Y513843D03*
X806404Y513836D03*
X816404Y513836D03*
X834046Y513831D03*
X844046Y513831D03*
X677566Y334792D03*
X687566Y334792D03*
X705168Y334488D03*
X715168Y334488D03*
X732620Y334350D03*
X742620Y334350D03*
X760319Y334320D03*
X770319Y334320D03*
X787661Y334313D03*
X797661Y334313D03*
X815302Y334308D03*
X825302Y334308D03*
X796572Y156903D03*
X806572Y156903D03*
X768931Y156908D03*
X778931Y156908D03*
X741588Y156915D03*
X751588Y156915D03*
X713889Y156944D03*
X723889Y156944D03*
X686437Y157082D03*
X696437Y157082D03*
X658835Y157386D03*
X668835Y157386D03*
X836482Y315076D03*
X846482Y315076D03*
X833522Y286980D03*
X843522Y286980D03*
X831083Y259424D03*
X841083Y259424D03*
X828620Y230529D03*
X838620Y230529D03*
X825834Y203445D03*
X835834Y203445D03*
X823656Y176332D03*
X833656Y176332D03*
X852195Y259521D03*
X864195Y259521D03*
X844377Y176256D03*
X856377Y176256D03*
X646892Y314584D03*
X656892Y314584D03*
X643932Y286488D03*
X653932Y286488D03*
X641493Y258932D03*
X651493Y258932D03*
X639030Y230037D03*
X649030Y230037D03*
X636244Y202952D03*
X646244Y202952D03*
X634066Y175839D03*
X644066Y175839D03*
X663562Y258843D03*
X675562Y258843D03*
X658187Y175864D03*
X670187Y175864D03*
X856525Y492770D03*
X866525Y492770D03*
X853565Y464674D03*
X863565Y464674D03*
X851126Y437118D03*
X861126Y437118D03*
X848663Y408223D03*
X858663Y408223D03*
X845877Y381138D03*
X855877Y381138D03*
X843699Y354025D03*
X853699Y354025D03*
X872995Y436629D03*
X884995Y436629D03*
X866920Y353950D03*
X878920Y353950D03*
X677825Y354060D03*
X689825Y354060D03*
X684899Y437240D03*
X696899Y437240D03*
X654603Y354136D03*
X664603Y354136D03*
X656782Y381249D03*
X666782Y381249D03*
X659568Y408333D03*
X669568Y408333D03*
X662031Y437228D03*
X672031Y437228D03*
X664469Y464784D03*
X674469Y464784D03*
X667430Y492880D03*
X677430Y492880D03*
X520957Y138491D03*
X508957Y138491D03*
X218857Y138491D03*
X206857Y138491D03*
X218857Y126991D03*
X206857Y126991D03*
X97009Y514715D03*
X107009Y514715D03*
X124611Y514411D03*
X134611Y514411D03*
X152063Y514272D03*
X162063Y514272D03*
X179762Y514243D03*
X189762Y514243D03*
X207104Y514236D03*
X217104Y514236D03*
X234746Y514231D03*
X244746Y514231D03*
X78266Y335192D03*
X88266Y335192D03*
X105868Y334888D03*
X115868Y334888D03*
X133320Y334750D03*
X143320Y334750D03*
X161019Y334720D03*
X171019Y334720D03*
X188361Y334713D03*
X198361Y334713D03*
X216002Y334708D03*
X226002Y334708D03*
X197272Y157303D03*
X207272Y157303D03*
X169631Y157308D03*
X179631Y157308D03*
X142288Y157315D03*
X152288Y157315D03*
X114589Y157344D03*
X124589Y157344D03*
X87137Y157482D03*
X97137Y157482D03*
X59535Y157786D03*
X69535Y157786D03*
X237182Y315476D03*
X247182Y315476D03*
X234222Y287380D03*
X244222Y287380D03*
X231783Y259824D03*
X241783Y259824D03*
X229320Y230929D03*
X239320Y230929D03*
X226534Y203845D03*
X236534Y203845D03*
X224356Y176732D03*
X234356Y176732D03*
X252895Y259921D03*
X264895Y259921D03*
X245077Y176656D03*
X257077Y176656D03*
X47592Y314984D03*
X57592Y314984D03*
X44632Y286888D03*
X54632Y286888D03*
X42193Y259332D03*
X52193Y259332D03*
X39730Y230437D03*
X49730Y230437D03*
X36944Y203352D03*
X46944Y203352D03*
X34766Y176239D03*
X44766Y176239D03*
X64262Y259243D03*
X76262Y259243D03*
X58887Y176264D03*
X70887Y176264D03*
X257225Y493170D03*
X267225Y493170D03*
X254265Y465074D03*
X264265Y465074D03*
X251826Y437518D03*
X261826Y437518D03*
X249363Y408623D03*
X259363Y408623D03*
X246577Y381538D03*
X256577Y381538D03*
X244399Y354425D03*
X254399Y354425D03*
X273695Y437029D03*
X285695Y437029D03*
X267620Y354350D03*
X279620Y354350D03*
X78525Y354460D03*
X90525Y354460D03*
X85599Y437640D03*
X97599Y437640D03*
X55303Y354536D03*
X65303Y354536D03*
X57482Y381649D03*
X67482Y381649D03*
X60268Y408733D03*
X70268Y408733D03*
X62731Y437628D03*
X72731Y437628D03*
X65169Y465184D03*
X75169Y465184D03*
X68130Y493280D03*
X78130Y493280D03*
G54D26*
X496700Y59629D03*
X496700Y64629D03*
X533850Y114629D03*
X533850Y109629D03*
X533850Y104629D03*
X533850Y99629D03*
X533850Y94629D03*
X533850Y89629D03*
X533850Y84629D03*
X533850Y79629D03*
X533850Y74629D03*
X533850Y69629D03*
X496724Y94629D03*
X496724Y89629D03*
X496724Y84629D03*
X496724Y79629D03*
X496724Y74629D03*
X496724Y69629D03*
X533850Y59629D03*
X533850Y64629D03*
X496724Y99629D03*
X496724Y104629D03*
X496724Y109629D03*
X496724Y114629D03*
X194600Y59629D03*
X194600Y64629D03*
X231750Y114629D03*
X231750Y109629D03*
X231750Y104629D03*
X231750Y99629D03*
X231750Y94629D03*
X231750Y89629D03*
X231750Y84629D03*
X231750Y79629D03*
X231750Y74629D03*
X231750Y69629D03*
X194624Y94629D03*
X194624Y89629D03*
X194624Y84629D03*
X194624Y79629D03*
X194624Y74629D03*
X194624Y69629D03*
X231750Y59629D03*
X231750Y64629D03*
X194624Y99629D03*
X194624Y104629D03*
X194624Y109629D03*
X194624Y114629D03*
G54D27*
X426560Y169472D03*
X426560Y182972D03*
X445885Y320922D03*
X445885Y308922D03*
X528110Y321199D03*
X528110Y309199D03*
X546756Y501171D03*
X546756Y489171D03*
X464611Y489061D03*
X464611Y501061D03*
X509465Y171017D03*
X509465Y183017D03*
X806665Y170617D03*
X806665Y182617D03*
X761811Y488661D03*
X761811Y500661D03*
X843956Y500771D03*
X843956Y488771D03*
X825310Y320799D03*
X825310Y308799D03*
X743085Y320522D03*
X743085Y308522D03*
X723760Y169072D03*
X723760Y182572D03*
X207365Y171017D03*
X207365Y183017D03*
X162511Y489061D03*
X162511Y501061D03*
X244656Y501171D03*
X244656Y489171D03*
X226010Y321199D03*
X226010Y309199D03*
X143785Y320922D03*
X143785Y308922D03*
X124460Y169472D03*
X124460Y182972D03*
G54D28*
X612600Y476129D03*
X596100Y476129D03*
X612600Y51629D03*
X596100Y51629D03*
X294000Y476129D03*
X294000Y51629D03*
G54D10*
X1439399Y0D02*
X2042598Y0D01*
X1439399Y551D02*
X2042598Y551D01*
X1439399Y1102D02*
X2042598Y1102D01*
X1439399Y1653D02*
X2042598Y1653D01*
X1439399Y2204D02*
X2042598Y2204D01*
X1439399Y2755D02*
X2042598Y2755D01*
X1439399Y3307D02*
X2042598Y3307D01*
X1439399Y3858D02*
X2042598Y3858D01*
X1439399Y4409D02*
X2042598Y4409D01*
X1439399Y4960D02*
X2042598Y4960D01*
X1439399Y5511D02*
X2042598Y5511D01*
X1439399Y6062D02*
X2042598Y6062D01*
X1439399Y6614D02*
X2042598Y6614D01*
X1439399Y7165D02*
X2042598Y7165D01*
X1439399Y7716D02*
X2042598Y7716D01*
X1439399Y8267D02*
X2042598Y8267D01*
X1439399Y8818D02*
X2042598Y8818D01*
X1439399Y9370D02*
X2042598Y9370D01*
X1439399Y9921D02*
X2042598Y9921D01*
X1439399Y10472D02*
X2042598Y10472D01*
X1439399Y11023D02*
X2042598Y11023D01*
X1439399Y11574D02*
X2042598Y11574D01*
X1439399Y12125D02*
X2042598Y12125D01*
X1439399Y12677D02*
X2042598Y12677D01*
X1439399Y13228D02*
X2042598Y13228D01*
X1439399Y13779D02*
X2042598Y13779D01*
X1439399Y14330D02*
X2042598Y14330D01*
X1439399Y14881D02*
X2042598Y14881D01*
X1439399Y15433D02*
X2042598Y15433D01*
X1439399Y15984D02*
X2042598Y15984D01*
X1439399Y16535D02*
X2042598Y16535D01*
X1439399Y17086D02*
X2042598Y17086D01*
X1439399Y17637D02*
X2042598Y17637D01*
X1439399Y18188D02*
X2042598Y18188D01*
X1439399Y18740D02*
X2042598Y18740D01*
X1439399Y19291D02*
X2042598Y19291D01*
X1439399Y19842D02*
X2042598Y19842D01*
X1439399Y20393D02*
X2042598Y20393D01*
X1439399Y20944D02*
X2042598Y20944D01*
X1439399Y21496D02*
X2042598Y21496D01*
X1439399Y22047D02*
X2042598Y22047D01*
X1439399Y22598D02*
X2042598Y22598D01*
X1439399Y23149D02*
X2042598Y23149D01*
X1439399Y23700D02*
X2042598Y23700D01*
X1439399Y24251D02*
X2042598Y24251D01*
X1439399Y24803D02*
X2042598Y24803D01*
X1439399Y25354D02*
X2042598Y25354D01*
X1439399Y25905D02*
X2042598Y25905D01*
X1439399Y26456D02*
X2042598Y26456D01*
X1439399Y27007D02*
X2042598Y27007D01*
X1439399Y27559D02*
X2042598Y27559D01*
X1439399Y28110D02*
X2042598Y28110D01*
X1439399Y28661D02*
X2042598Y28661D01*
X1439399Y29212D02*
X2042598Y29212D01*
X1439399Y29763D02*
X2042598Y29763D01*
X1439399Y30314D02*
X2042598Y30314D01*
X1439399Y30866D02*
X2042598Y30866D01*
X1439399Y31417D02*
X2042598Y31417D01*
X1439399Y31968D02*
X2042598Y31968D01*
X1439399Y32519D02*
X2042598Y32519D01*
X1439399Y33070D02*
X2042598Y33070D01*
X1439399Y33622D02*
X2042598Y33622D01*
X1439399Y34173D02*
X2042598Y34173D01*
X1439399Y34724D02*
X2042598Y34724D01*
X1439399Y35275D02*
X2042598Y35275D01*
X1439399Y35826D02*
X2042598Y35826D01*
X1439399Y36377D02*
X2042598Y36377D01*
X1439399Y36929D02*
X2042598Y36929D01*
X1439399Y37480D02*
X2042598Y37480D01*
X1439399Y38031D02*
X2042598Y38031D01*
X1439399Y38582D02*
X2042598Y38582D01*
X1439399Y39133D02*
X2042598Y39133D01*
X1439399Y39685D02*
X2042598Y39685D01*
X1439399Y40236D02*
X2042598Y40236D01*
X1439399Y40787D02*
X2042598Y40787D01*
X1439399Y41338D02*
X2042598Y41338D01*
X1439399Y41889D02*
X2042598Y41889D01*
X1439399Y42440D02*
X2042598Y42440D01*
X1439399Y42992D02*
X2042598Y42992D01*
X1439399Y43543D02*
X2042598Y43543D01*
X1439399Y44094D02*
X2042598Y44094D01*
X1439399Y44645D02*
X2042598Y44645D01*
X1439399Y45196D02*
X2042598Y45196D01*
X1439399Y45748D02*
X2042598Y45748D01*
X1439399Y46299D02*
X2042598Y46299D01*
X1439399Y46850D02*
X2042598Y46850D01*
X1439399Y47401D02*
X2042598Y47401D01*
X1439399Y47952D02*
X2042598Y47952D01*
X1439399Y48503D02*
X2042598Y48503D01*
X1439399Y49055D02*
X2042598Y49055D01*
X1439399Y49606D02*
X2042598Y49606D01*
X1439399Y50157D02*
X2042598Y50157D01*
X1439399Y50708D02*
X2042598Y50708D01*
X1439399Y51259D02*
X2042598Y51259D01*
X1439399Y51811D02*
X2042598Y51811D01*
X1439399Y52362D02*
X2042598Y52362D01*
X1439399Y52913D02*
X2042598Y52913D01*
X1439399Y53464D02*
X2042598Y53464D01*
X1439399Y54015D02*
X2042598Y54015D01*
X1439399Y54566D02*
X2042598Y54566D01*
X1439399Y55118D02*
X2042598Y55118D01*
X1439399Y55669D02*
X2042598Y55669D01*
X1439399Y56220D02*
X2042598Y56220D01*
X1439399Y56771D02*
X2042598Y56771D01*
X1439399Y57322D02*
X2042598Y57322D01*
X1439399Y57874D02*
X2042598Y57874D01*
X1439399Y58425D02*
X2042598Y58425D01*
X1439399Y58976D02*
X2042598Y58976D01*
X1439399Y59527D02*
X2042598Y59527D01*
X1439399Y60078D02*
X2042598Y60078D01*
X1439399Y60629D02*
X2042598Y60629D01*
X1439399Y61181D02*
X2042598Y61181D01*
X1439399Y61732D02*
X2042598Y61732D01*
X1439399Y62283D02*
X2042598Y62283D01*
X1439399Y62834D02*
X2042598Y62834D01*
X1439399Y63385D02*
X2042598Y63385D01*
X1439399Y63937D02*
X2042598Y63937D01*
X1439399Y64488D02*
X2042598Y64488D01*
X1439399Y65039D02*
X2042598Y65039D01*
X1439399Y65590D02*
X2042598Y65590D01*
X1439399Y66141D02*
X2042598Y66141D01*
X1439399Y66692D02*
X2042598Y66692D01*
X1439399Y67244D02*
X2042598Y67244D01*
X1439399Y67795D02*
X2042598Y67795D01*
X1439399Y68346D02*
X2042598Y68346D01*
X1439399Y68897D02*
X2042598Y68897D01*
X1439399Y69448D02*
X2042598Y69448D01*
X1439399Y70000D02*
X2042598Y70000D01*
X1439399Y70551D02*
X2042598Y70551D01*
X1439399Y71102D02*
X2042598Y71102D01*
X1439399Y71653D02*
X2042598Y71653D01*
X1439399Y72204D02*
X2042598Y72204D01*
X1439399Y72755D02*
X2042598Y72755D01*
X1439399Y73307D02*
X2042598Y73307D01*
X1439399Y73858D02*
X2042598Y73858D01*
X1439399Y74409D02*
X2042598Y74409D01*
X1439399Y74960D02*
X2042598Y74960D01*
X1439399Y75511D02*
X2042598Y75511D01*
X1439399Y76062D02*
X2042598Y76062D01*
X1439399Y76614D02*
X2042598Y76614D01*
X1439399Y77165D02*
X2042598Y77165D01*
X1439399Y77716D02*
X2042598Y77716D01*
X1439399Y78267D02*
X2042598Y78267D01*
X1439399Y78818D02*
X2042598Y78818D01*
X1439399Y79370D02*
X2042598Y79370D01*
X1439399Y79921D02*
X2042598Y79921D01*
X1439399Y80472D02*
X2042598Y80472D01*
X1439399Y81023D02*
X2042598Y81023D01*
X1439399Y81574D02*
X2042598Y81574D01*
X1439399Y82125D02*
X2042598Y82125D01*
X1439399Y82677D02*
X2042598Y82677D01*
X1439399Y83228D02*
X2042598Y83228D01*
X1439399Y83779D02*
X2042598Y83779D01*
X1439399Y84330D02*
X2042598Y84330D01*
X1439399Y84881D02*
X2042598Y84881D01*
X1439399Y85433D02*
X2042598Y85433D01*
X1439399Y85984D02*
X2042598Y85984D01*
X1439399Y86535D02*
X2042598Y86535D01*
X1439399Y87086D02*
X2042598Y87086D01*
X1439399Y87637D02*
X2042598Y87637D01*
X1439399Y88188D02*
X2042598Y88188D01*
X1439399Y88740D02*
X2042598Y88740D01*
X1439399Y89291D02*
X2042598Y89291D01*
X1439399Y89842D02*
X2042598Y89842D01*
X1439399Y90393D02*
X2042598Y90393D01*
X1439399Y90944D02*
X2042598Y90944D01*
X1439399Y91496D02*
X2042598Y91496D01*
X1439399Y92047D02*
X2042598Y92047D01*
X1439399Y92598D02*
X2042598Y92598D01*
X1439399Y93149D02*
X2042598Y93149D01*
X1439399Y93700D02*
X2042598Y93700D01*
X1439399Y94251D02*
X2042598Y94251D01*
X1439399Y94803D02*
X2042598Y94803D01*
X1439399Y95354D02*
X2042598Y95354D01*
X1439399Y95905D02*
X2042598Y95905D01*
X1439399Y96456D02*
X2042598Y96456D01*
X1439399Y97007D02*
X2042598Y97007D01*
X1439399Y97559D02*
X2042598Y97559D01*
X1439399Y98110D02*
X2042598Y98110D01*
X1439399Y98661D02*
X2042598Y98661D01*
X1439399Y99212D02*
X2042598Y99212D01*
X1439399Y99763D02*
X2042598Y99763D01*
X1439399Y100314D02*
X2042598Y100314D01*
X1439399Y100866D02*
X2042598Y100866D01*
X1439399Y101417D02*
X2042598Y101417D01*
X1439399Y101968D02*
X2042598Y101968D01*
X1439399Y102519D02*
X2042598Y102519D01*
X1439399Y103070D02*
X2042598Y103070D01*
X1439399Y103622D02*
X2042598Y103622D01*
X1439399Y104173D02*
X2042598Y104173D01*
X1439399Y104724D02*
X2042598Y104724D01*
X1439399Y105275D02*
X2042598Y105275D01*
X1439399Y105826D02*
X2042598Y105826D01*
X1439399Y106377D02*
X2042598Y106377D01*
X1439399Y106929D02*
X2042598Y106929D01*
X1439399Y107480D02*
X2042598Y107480D01*
X1439399Y108031D02*
X2042598Y108031D01*
X1439399Y108582D02*
X2042598Y108582D01*
X1439399Y109133D02*
X2042598Y109133D01*
X1439399Y109685D02*
X2042598Y109685D01*
X1439399Y110236D02*
X2042598Y110236D01*
X1439399Y110787D02*
X2042598Y110787D01*
X1439399Y111338D02*
X2042598Y111338D01*
X1439399Y111889D02*
X2042598Y111889D01*
X1439399Y112440D02*
X2042598Y112440D01*
X1439399Y112992D02*
X2042598Y112992D01*
X1439399Y113543D02*
X2042598Y113543D01*
X1439399Y114094D02*
X2042598Y114094D01*
X1439399Y114645D02*
X2042598Y114645D01*
X1439399Y115196D02*
X2042598Y115196D01*
X1439399Y115748D02*
X2042598Y115748D01*
X1439399Y116299D02*
X2042598Y116299D01*
X1439399Y116850D02*
X2042598Y116850D01*
X1439399Y117401D02*
X2042598Y117401D01*
X1439399Y117952D02*
X2042598Y117952D01*
X1439399Y118503D02*
X2042598Y118503D01*
X1439399Y119055D02*
X2042598Y119055D01*
X1439399Y119606D02*
X2042598Y119606D01*
X1439399Y120157D02*
X2042598Y120157D01*
X1439399Y120708D02*
X2042598Y120708D01*
X1439399Y121259D02*
X2042598Y121259D01*
X1439399Y121811D02*
X2042598Y121811D01*
X1439399Y122362D02*
X2042598Y122362D01*
X1439399Y122913D02*
X2042598Y122913D01*
X1439399Y123464D02*
X2042598Y123464D01*
X1439399Y124015D02*
X2042598Y124015D01*
X1439399Y124566D02*
X2042598Y124566D01*
X1439399Y125118D02*
X2042598Y125118D01*
X1439399Y125669D02*
X2042598Y125669D01*
X1439399Y126220D02*
X2042598Y126220D01*
X1439399Y126771D02*
X2042598Y126771D01*
X1439399Y127322D02*
X2042598Y127322D01*
X1439399Y127874D02*
X2042598Y127874D01*
X1439399Y128425D02*
X2042598Y128425D01*
X1439399Y128976D02*
X2042598Y128976D01*
X1439399Y129527D02*
X2042598Y129527D01*
X1439399Y130078D02*
X2042598Y130078D01*
X1439399Y130629D02*
X2042598Y130629D01*
X1439399Y131181D02*
X2042598Y131181D01*
X1439399Y131732D02*
X2042598Y131732D01*
X1439399Y132283D02*
X2042598Y132283D01*
X1439399Y132834D02*
X2042598Y132834D01*
X1439399Y133385D02*
X2042598Y133385D01*
X1439399Y133937D02*
X2042598Y133937D01*
X1439399Y134488D02*
X2042598Y134488D01*
X1439399Y135039D02*
X2042598Y135039D01*
X1439399Y135590D02*
X2042598Y135590D01*
X1439399Y136141D02*
X2042598Y136141D01*
X1439399Y136692D02*
X2042598Y136692D01*
X1439399Y137244D02*
X2042598Y137244D01*
X1439399Y137795D02*
X2042598Y137795D01*
X1439399Y138346D02*
X2042598Y138346D01*
X1439399Y138897D02*
X2042598Y138897D01*
X1439399Y139448D02*
X2042598Y139448D01*
X1439399Y140000D02*
X2042598Y140000D01*
X1439399Y140551D02*
X2042598Y140551D01*
X1439399Y141102D02*
X2042598Y141102D01*
X1439399Y141653D02*
X2042598Y141653D01*
X1439399Y142204D02*
X2042598Y142204D01*
X1439399Y142755D02*
X2042598Y142755D01*
X1439399Y143307D02*
X2042598Y143307D01*
X1439399Y143858D02*
X2042598Y143858D01*
X1439399Y144409D02*
X2042598Y144409D01*
X1439399Y144960D02*
X2042598Y144960D01*
X1439399Y145511D02*
X2042598Y145511D01*
X1439399Y146062D02*
X2042598Y146062D01*
X1439399Y146614D02*
X2042598Y146614D01*
X1439399Y147165D02*
X2042598Y147165D01*
X1439399Y147716D02*
X2042598Y147716D01*
X1439399Y148267D02*
X2042598Y148267D01*
X1439399Y148818D02*
X2042598Y148818D01*
X1439399Y149370D02*
X2042598Y149370D01*
X1439399Y149921D02*
X2042598Y149921D01*
X1439399Y150472D02*
X2042598Y150472D01*
X1439399Y151023D02*
X2042598Y151023D01*
X1439399Y151574D02*
X2042598Y151574D01*
X1439399Y152125D02*
X2042598Y152125D01*
X1439399Y152677D02*
X2042598Y152677D01*
X1439399Y153228D02*
X2042598Y153228D01*
X1439399Y153779D02*
X2042598Y153779D01*
X1439399Y154330D02*
X2042598Y154330D01*
X1439399Y154881D02*
X2042598Y154881D01*
X1439399Y155433D02*
X2042598Y155433D01*
X1439399Y155984D02*
X2042598Y155984D01*
X1439399Y156535D02*
X2042598Y156535D01*
X1439399Y157086D02*
X2042598Y157086D01*
X1439399Y157637D02*
X2042598Y157637D01*
X1439399Y158188D02*
X2042598Y158188D01*
X1439399Y158740D02*
X2042598Y158740D01*
X1439399Y159291D02*
X2042598Y159291D01*
X1439399Y159842D02*
X2042598Y159842D01*
X1439399Y160393D02*
X2042598Y160393D01*
X1439399Y160944D02*
X2042598Y160944D01*
X1439399Y161496D02*
X2042598Y161496D01*
X1439399Y162047D02*
X2042598Y162047D01*
X1439399Y162598D02*
X2042598Y162598D01*
X1439399Y163149D02*
X2042598Y163149D01*
X1439399Y163700D02*
X2042598Y163700D01*
X1439399Y164251D02*
X2042598Y164251D01*
X1439399Y164803D02*
X2042598Y164803D01*
X1439399Y165354D02*
X2042598Y165354D01*
X1439399Y165905D02*
X2042598Y165905D01*
X1439399Y166456D02*
X2042598Y166456D01*
X1439399Y167007D02*
X2042598Y167007D01*
X1439399Y167559D02*
X2042598Y167559D01*
X1439399Y168110D02*
X2042598Y168110D01*
X1439399Y168661D02*
X2042598Y168661D01*
X1439399Y169212D02*
X2042598Y169212D01*
X1439399Y169763D02*
X2042598Y169763D01*
X1439399Y170314D02*
X2042598Y170314D01*
X1439399Y170866D02*
X2042598Y170866D01*
X1439399Y171417D02*
X2042598Y171417D01*
X1439399Y171968D02*
X2042598Y171968D01*
X1439399Y172519D02*
X2042598Y172519D01*
X1439399Y173070D02*
X2042598Y173070D01*
X1439399Y173622D02*
X2042598Y173622D01*
X1439399Y174173D02*
X2042598Y174173D01*
X1439399Y174724D02*
X2042598Y174724D01*
X1439399Y175275D02*
X2042598Y175275D01*
X1439399Y175826D02*
X2042598Y175826D01*
X1439399Y176377D02*
X2042598Y176377D01*
X1439399Y176929D02*
X2042598Y176929D01*
X1439399Y177480D02*
X2042598Y177480D01*
X1439399Y178031D02*
X2042598Y178031D01*
X1439399Y178582D02*
X2042598Y178582D01*
X1439399Y179133D02*
X2042598Y179133D01*
X1439399Y179685D02*
X2042598Y179685D01*
X1439399Y180236D02*
X2042598Y180236D01*
X1439399Y180787D02*
X2042598Y180787D01*
X1439399Y181338D02*
X2042598Y181338D01*
X1439399Y181889D02*
X2042598Y181889D01*
X1439399Y182440D02*
X2042598Y182440D01*
X1439399Y182992D02*
X2042598Y182992D01*
X1439399Y183543D02*
X2042598Y183543D01*
X1439399Y184094D02*
X2042598Y184094D01*
X1439399Y184645D02*
X2042598Y184645D01*
X1439399Y185196D02*
X2042598Y185196D01*
X1439399Y185748D02*
X2042598Y185748D01*
X1439399Y186299D02*
X2042598Y186299D01*
X1439399Y186850D02*
X2042598Y186850D01*
X1439399Y187401D02*
X2042598Y187401D01*
X1439399Y187952D02*
X2042598Y187952D01*
X1439399Y188503D02*
X2042598Y188503D01*
X1439399Y189055D02*
X2042598Y189055D01*
X1439399Y189606D02*
X2042598Y189606D01*
X1439399Y190157D02*
X2042598Y190157D01*
X1439399Y190708D02*
X2042598Y190708D01*
X1439399Y191259D02*
X2042598Y191259D01*
X1439399Y191811D02*
X2042598Y191811D01*
X1439399Y192362D02*
X2042598Y192362D01*
X1439399Y192913D02*
X2042598Y192913D01*
X1439399Y193464D02*
X2042598Y193464D01*
X1439399Y194015D02*
X2042598Y194015D01*
X1439399Y194566D02*
X2042598Y194566D01*
X1439399Y195118D02*
X2042598Y195118D01*
X1439399Y195669D02*
X2042598Y195669D01*
X1439399Y196220D02*
X2042598Y196220D01*
X1439399Y196771D02*
X2042598Y196771D01*
X1439399Y197322D02*
X2042598Y197322D01*
X1439399Y197874D02*
X2042598Y197874D01*
X1439399Y198425D02*
X2042598Y198425D01*
X1439399Y198976D02*
X2042598Y198976D01*
X1439399Y199527D02*
X2042598Y199527D01*
X1439399Y200078D02*
X2042598Y200078D01*
X1439399Y200629D02*
X2042598Y200629D01*
X1439399Y201181D02*
X2042598Y201181D01*
X1439399Y201732D02*
X2042598Y201732D01*
X1439399Y202283D02*
X2042598Y202283D01*
X1439399Y202834D02*
X2042598Y202834D01*
X1439399Y203385D02*
X2042598Y203385D01*
X1439399Y203937D02*
X2042598Y203937D01*
X1439399Y204488D02*
X2042598Y204488D01*
X1439399Y205039D02*
X2042598Y205039D01*
X1439399Y205590D02*
X2042598Y205590D01*
X1439399Y206141D02*
X2042598Y206141D01*
X1439399Y206692D02*
X2042598Y206692D01*
X1439399Y207244D02*
X2042598Y207244D01*
X1439399Y207795D02*
X2042598Y207795D01*
X1439399Y208346D02*
X2042598Y208346D01*
X1439399Y208897D02*
X2042598Y208897D01*
X1439399Y209448D02*
X2042598Y209448D01*
X1439399Y210000D02*
X2042598Y210000D01*
X1439399Y210551D02*
X2042598Y210551D01*
X1439399Y211102D02*
X2042598Y211102D01*
X1439399Y211653D02*
X2042598Y211653D01*
X1439399Y212204D02*
X2042598Y212204D01*
X1439399Y212755D02*
X2042598Y212755D01*
X1439399Y213307D02*
X2042598Y213307D01*
X1439399Y213858D02*
X2042598Y213858D01*
X1439399Y214409D02*
X2042598Y214409D01*
X1439399Y214960D02*
X2042598Y214960D01*
X1439399Y215511D02*
X2042598Y215511D01*
X1439399Y216062D02*
X2042598Y216062D01*
X1439399Y216614D02*
X2042598Y216614D01*
X1439399Y217165D02*
X2042598Y217165D01*
X1439399Y217716D02*
X2042598Y217716D01*
X1439399Y218267D02*
X2042598Y218267D01*
X1439399Y218818D02*
X2042598Y218818D01*
X1439399Y219370D02*
X2042598Y219370D01*
X1439399Y219921D02*
X2042598Y219921D01*
X1439399Y220472D02*
X2042598Y220472D01*
X1439399Y221023D02*
X2042598Y221023D01*
X1439399Y221574D02*
X2042598Y221574D01*
X1439399Y222125D02*
X2042598Y222125D01*
X1439399Y222677D02*
X2042598Y222677D01*
X1439399Y223228D02*
X2042598Y223228D01*
X1439399Y223779D02*
X2042598Y223779D01*
X1439399Y224330D02*
X2042598Y224330D01*
X1439399Y224881D02*
X2042598Y224881D01*
X1439399Y225433D02*
X2042598Y225433D01*
X1439399Y225984D02*
X2042598Y225984D01*
X1439399Y226535D02*
X2042598Y226535D01*
X1439399Y227086D02*
X2042598Y227086D01*
X1439399Y227637D02*
X2042598Y227637D01*
X1439399Y228188D02*
X2042598Y228188D01*
X1439399Y228740D02*
X2042598Y228740D01*
X1439399Y229291D02*
X2042598Y229291D01*
X1439399Y229842D02*
X2042598Y229842D01*
X1439399Y230393D02*
X2042598Y230393D01*
X1439399Y230944D02*
X2042598Y230944D01*
X1439399Y231496D02*
X2042598Y231496D01*
X1439399Y232047D02*
X2042598Y232047D01*
X1439399Y232598D02*
X2042598Y232598D01*
X1439399Y233149D02*
X2042598Y233149D01*
X1439399Y233700D02*
X2042598Y233700D01*
X1439399Y234251D02*
X2042598Y234251D01*
X1439399Y234803D02*
X2042598Y234803D01*
X1439399Y235354D02*
X2042598Y235354D01*
X1439399Y235905D02*
X2042598Y235905D01*
X1439399Y236456D02*
X2042598Y236456D01*
X1439399Y237007D02*
X2042598Y237007D01*
X1439399Y237559D02*
X2042598Y237559D01*
X1439399Y238110D02*
X2042598Y238110D01*
X1439399Y238661D02*
X2042598Y238661D01*
X1439399Y239212D02*
X2042598Y239212D01*
X1439399Y239763D02*
X2042598Y239763D01*
X1439399Y240314D02*
X2042598Y240314D01*
X1439399Y240866D02*
X2042598Y240866D01*
X1439399Y241417D02*
X2042598Y241417D01*
X1439399Y241968D02*
X2042598Y241968D01*
X1439399Y242519D02*
X2042598Y242519D01*
X1439399Y243070D02*
X2042598Y243070D01*
X1439399Y243622D02*
X2042598Y243622D01*
X1439399Y244173D02*
X2042598Y244173D01*
X1439399Y244724D02*
X2042598Y244724D01*
X1439399Y245275D02*
X2042598Y245275D01*
X1439399Y245826D02*
X2042598Y245826D01*
X1439399Y246377D02*
X2042598Y246377D01*
X1439399Y246929D02*
X2042598Y246929D01*
X1439399Y247480D02*
X2042598Y247480D01*
X1439399Y248031D02*
X2042598Y248031D01*
X1439399Y248582D02*
X2042598Y248582D01*
X1439399Y249133D02*
X2042598Y249133D01*
X1439399Y249685D02*
X2042598Y249685D01*
X1439399Y250236D02*
X2042598Y250236D01*
X1439399Y250787D02*
X2042598Y250787D01*
X1439399Y251338D02*
X2042598Y251338D01*
X1439399Y251889D02*
X2042598Y251889D01*
X1439399Y252440D02*
X2042598Y252440D01*
X1439399Y252992D02*
X2042598Y252992D01*
X1439399Y253543D02*
X2042598Y253543D01*
X1439399Y254094D02*
X2042598Y254094D01*
X1439399Y254645D02*
X2042598Y254645D01*
X1439399Y255196D02*
X2042598Y255196D01*
X1439399Y255748D02*
X2042598Y255748D01*
X1439399Y256299D02*
X2042598Y256299D01*
X1439399Y256850D02*
X2042598Y256850D01*
X1439399Y257401D02*
X2042598Y257401D01*
X1439399Y257952D02*
X2042598Y257952D01*
X1439399Y258503D02*
X2042598Y258503D01*
X1439399Y259055D02*
X2042598Y259055D01*
X1439399Y259606D02*
X2042598Y259606D01*
X1439399Y260157D02*
X2042598Y260157D01*
X1439399Y260708D02*
X2042598Y260708D01*
X1439399Y261259D02*
X2042598Y261259D01*
X1439399Y261811D02*
X2042598Y261811D01*
X1439399Y262362D02*
X2042598Y262362D01*
X1439399Y262913D02*
X2042598Y262913D01*
X1439399Y263464D02*
X2042598Y263464D01*
X1439399Y264015D02*
X2042598Y264015D01*
X1439399Y264566D02*
X2042598Y264566D01*
X1439399Y265118D02*
X2042598Y265118D01*
X1439399Y265669D02*
X2042598Y265669D01*
X1439399Y266220D02*
X2042598Y266220D01*
X1439399Y266771D02*
X2042598Y266771D01*
X1439399Y267322D02*
X2042598Y267322D01*
X1439399Y267874D02*
X2042598Y267874D01*
X1439399Y268425D02*
X2042598Y268425D01*
X1439399Y268976D02*
X2042598Y268976D01*
X1439399Y269527D02*
X2042598Y269527D01*
X1439399Y270078D02*
X2042598Y270078D01*
X1439399Y270629D02*
X2042598Y270629D01*
X1439399Y271181D02*
X2042598Y271181D01*
X1439399Y271732D02*
X2042598Y271732D01*
X1439399Y272283D02*
X2042598Y272283D01*
X1439399Y272834D02*
X2042598Y272834D01*
X1439399Y273385D02*
X2042598Y273385D01*
X1439399Y273937D02*
X2042598Y273937D01*
X1439399Y274488D02*
X2042598Y274488D01*
X1439399Y275039D02*
X2042598Y275039D01*
X1439399Y275590D02*
X2042598Y275590D01*
X1439399Y276141D02*
X2042598Y276141D01*
X1439399Y276692D02*
X2042598Y276692D01*
X1439399Y277244D02*
X2042598Y277244D01*
X1439399Y277795D02*
X2042598Y277795D01*
X1439399Y278346D02*
X2042598Y278346D01*
X1439399Y278897D02*
X2042598Y278897D01*
X1439399Y279448D02*
X2042598Y279448D01*
X1439399Y280000D02*
X2042598Y280000D01*
X1439399Y280551D02*
X2042598Y280551D01*
X1439399Y281102D02*
X2042598Y281102D01*
X1439399Y281653D02*
X2042598Y281653D01*
X1439399Y282204D02*
X2042598Y282204D01*
X1439399Y282755D02*
X2042598Y282755D01*
X1439399Y283307D02*
X2042598Y283307D01*
X1439399Y283858D02*
X2042598Y283858D01*
X1439399Y284409D02*
X2042598Y284409D01*
X1439399Y284960D02*
X2042598Y284960D01*
X1439399Y285511D02*
X2042598Y285511D01*
X1439399Y286062D02*
X2042598Y286062D01*
X1439399Y286614D02*
X2042598Y286614D01*
X1439399Y287165D02*
X2042598Y287165D01*
X1439399Y287716D02*
X2042598Y287716D01*
X1439399Y288267D02*
X2042598Y288267D01*
X1439399Y288818D02*
X2042598Y288818D01*
X1439399Y289370D02*
X2042598Y289370D01*
X1439399Y289921D02*
X2042598Y289921D01*
X1439399Y290472D02*
X2042598Y290472D01*
X1439399Y291023D02*
X2042598Y291023D01*
X1439399Y291574D02*
X2042598Y291574D01*
X1439399Y292125D02*
X2042598Y292125D01*
X1439399Y292677D02*
X2042598Y292677D01*
X1439399Y293228D02*
X2042598Y293228D01*
X1439399Y293779D02*
X2042598Y293779D01*
X1439399Y294330D02*
X2042598Y294330D01*
X1439399Y294881D02*
X2042598Y294881D01*
X1439399Y295433D02*
X2042598Y295433D01*
X1439399Y295984D02*
X2042598Y295984D01*
X1439399Y296535D02*
X2042598Y296535D01*
X1439399Y297086D02*
X2042598Y297086D01*
X1439399Y297637D02*
X2042598Y297637D01*
X1439399Y298188D02*
X2042598Y298188D01*
X1439399Y298740D02*
X2042598Y298740D01*
X1439399Y299291D02*
X2042598Y299291D01*
X1439399Y299842D02*
X2042598Y299842D01*
X1439399Y300393D02*
X2042598Y300393D01*
X1439399Y300944D02*
X2042598Y300944D01*
X1439399Y301496D02*
X2042598Y301496D01*
X1439399Y302047D02*
X2042598Y302047D01*
X1439399Y302598D02*
X2042598Y302598D01*
X1439399Y303149D02*
X2042598Y303149D01*
X1439399Y303700D02*
X2042598Y303700D01*
X1439399Y304251D02*
X2042598Y304251D01*
X1439399Y304803D02*
X2042598Y304803D01*
X1439399Y305354D02*
X2042598Y305354D01*
X1439399Y305905D02*
X2042598Y305905D01*
X1439399Y306456D02*
X2042598Y306456D01*
X1439399Y307007D02*
X2042598Y307007D01*
X1439399Y307559D02*
X2042598Y307559D01*
X1439399Y308110D02*
X2042598Y308110D01*
X1439399Y308661D02*
X2042598Y308661D01*
X1439399Y309212D02*
X2042598Y309212D01*
X1439399Y309763D02*
X2042598Y309763D01*
X1439399Y310314D02*
X2042598Y310314D01*
X1439399Y310866D02*
X2042598Y310866D01*
X1439399Y311417D02*
X2042598Y311417D01*
X1439399Y311968D02*
X2042598Y311968D01*
X1439399Y312519D02*
X2042598Y312519D01*
X1439399Y313070D02*
X2042598Y313070D01*
X1439399Y313622D02*
X2042598Y313622D01*
X1439399Y314173D02*
X2042598Y314173D01*
X1439399Y314724D02*
X2042598Y314724D01*
X1439399Y315275D02*
X2042598Y315275D01*
X1439399Y315826D02*
X2042598Y315826D01*
X1439399Y316377D02*
X2042598Y316377D01*
X1439399Y316929D02*
X2042598Y316929D01*
X1439399Y317480D02*
X2042598Y317480D01*
X1439399Y318031D02*
X2042598Y318031D01*
X1439399Y318582D02*
X2042598Y318582D01*
X1439399Y319133D02*
X2042598Y319133D01*
X1439399Y319685D02*
X2042598Y319685D01*
X1439399Y320236D02*
X2042598Y320236D01*
X1439399Y320787D02*
X2042598Y320787D01*
X1439399Y321338D02*
X2042598Y321338D01*
X1439399Y321889D02*
X2042598Y321889D01*
X1439399Y322440D02*
X2042598Y322440D01*
X1439399Y322992D02*
X2042598Y322992D01*
X1439399Y323543D02*
X2042598Y323543D01*
X1439399Y324094D02*
X2042598Y324094D01*
X1439399Y324645D02*
X2042598Y324645D01*
X1439399Y325196D02*
X2042598Y325196D01*
X1439399Y325748D02*
X2042598Y325748D01*
X1439399Y326299D02*
X2042598Y326299D01*
X1439399Y326850D02*
X2042598Y326850D01*
X1439399Y327401D02*
X2042598Y327401D01*
X1439399Y327952D02*
X2042598Y327952D01*
X1439399Y328503D02*
X2042598Y328503D01*
X1439399Y329055D02*
X2042598Y329055D01*
X1439399Y329606D02*
X2042598Y329606D01*
X1439399Y330157D02*
X2042598Y330157D01*
X1439399Y330708D02*
X2042598Y330708D01*
X1439399Y331259D02*
X2042598Y331259D01*
X1439399Y331811D02*
X2042598Y331811D01*
X1439399Y332362D02*
X2042598Y332362D01*
X1439399Y332913D02*
X2042598Y332913D01*
X1439399Y333464D02*
X2042598Y333464D01*
X1439399Y334015D02*
X2042598Y334015D01*
X1439399Y334566D02*
X2042598Y334566D01*
X1439399Y335118D02*
X2042598Y335118D01*
X1439399Y335669D02*
X2042598Y335669D01*
X1439399Y336220D02*
X2042598Y336220D01*
X1439399Y336771D02*
X2042598Y336771D01*
X1439399Y337322D02*
X2042598Y337322D01*
X1439399Y337874D02*
X2042598Y337874D01*
X1439399Y338425D02*
X2042598Y338425D01*
X1439399Y338976D02*
X2042598Y338976D01*
X1439399Y339527D02*
X2042598Y339527D01*
X1439399Y340078D02*
X2042598Y340078D01*
X1439399Y340629D02*
X2042598Y340629D01*
X1439399Y341181D02*
X2042598Y341181D01*
X1439399Y341732D02*
X2042598Y341732D01*
X1439399Y342283D02*
X2042598Y342283D01*
X1439399Y342834D02*
X2042598Y342834D01*
X1439399Y343385D02*
X2042598Y343385D01*
X1439399Y343937D02*
X2042598Y343937D01*
X1439399Y344488D02*
X2042598Y344488D01*
X1439399Y345039D02*
X2042598Y345039D01*
X1439399Y345590D02*
X2042598Y345590D01*
X1439399Y346141D02*
X2042598Y346141D01*
X1439399Y346692D02*
X2042598Y346692D01*
X1439399Y347244D02*
X2042598Y347244D01*
X1439399Y347795D02*
X2042598Y347795D01*
X1439399Y348346D02*
X2042598Y348346D01*
X1439399Y348897D02*
X2042598Y348897D01*
X1439399Y349448D02*
X2042598Y349448D01*
X1439399Y350000D02*
X2042598Y350000D01*
X1439399Y350551D02*
X2042598Y350551D01*
X1439399Y351102D02*
X2042598Y351102D01*
X1439399Y351653D02*
X2042598Y351653D01*
X1439399Y352204D02*
X2042598Y352204D01*
X1439399Y352755D02*
X2042598Y352755D01*
X1439399Y353307D02*
X2042598Y353307D01*
X1439399Y353858D02*
X2042598Y353858D01*
X1439399Y354409D02*
X2042598Y354409D01*
X1439399Y354960D02*
X2042598Y354960D01*
X1439399Y355511D02*
X2042598Y355511D01*
X1439399Y356062D02*
X2042598Y356062D01*
X1439399Y356614D02*
X2042598Y356614D01*
X1439399Y357165D02*
X2042598Y357165D01*
X1439399Y357716D02*
X2042598Y357716D01*
X1439399Y358267D02*
X2042598Y358267D01*
X1439399Y358818D02*
X2042598Y358818D01*
X1439399Y359370D02*
X2042598Y359370D01*
X1439399Y359921D02*
X2042598Y359921D01*
X1439399Y360472D02*
X2042598Y360472D01*
X1439399Y361023D02*
X2042598Y361023D01*
X1439399Y361574D02*
X2042598Y361574D01*
X1439399Y362125D02*
X2042598Y362125D01*
X1439399Y362677D02*
X2042598Y362677D01*
X1439399Y363228D02*
X2042598Y363228D01*
X1439399Y363779D02*
X2042598Y363779D01*
X1439399Y364330D02*
X2042598Y364330D01*
X1439399Y364881D02*
X2042598Y364881D01*
X1439399Y365433D02*
X2042598Y365433D01*
X1439399Y365984D02*
X2042598Y365984D01*
X1439399Y366535D02*
X2042598Y366535D01*
X1439399Y367086D02*
X2042598Y367086D01*
X1439399Y367637D02*
X2042598Y367637D01*
X1439399Y368188D02*
X2042598Y368188D01*
X1439399Y368740D02*
X2042598Y368740D01*
X1439399Y369291D02*
X2042598Y369291D01*
X1439399Y369842D02*
X2042598Y369842D01*
X1439399Y370393D02*
X2042598Y370393D01*
X1439399Y370944D02*
X2042598Y370944D01*
X1439399Y371496D02*
X2042598Y371496D01*
X1439399Y372047D02*
X2042598Y372047D01*
X1439399Y372598D02*
X2042598Y372598D01*
X1439399Y373149D02*
X2042598Y373149D01*
X1439399Y373700D02*
X2042598Y373700D01*
X1439399Y374251D02*
X2042598Y374251D01*
X1439399Y374803D02*
X2042598Y374803D01*
X1439399Y375354D02*
X2042598Y375354D01*
X1439399Y375905D02*
X2042598Y375905D01*
X1439399Y376456D02*
X2042598Y376456D01*
X1439399Y377007D02*
X2042598Y377007D01*
X1439399Y377559D02*
X2042598Y377559D01*
X1439399Y378110D02*
X2042598Y378110D01*
X1439399Y378661D02*
X2042598Y378661D01*
X1439399Y379212D02*
X2042598Y379212D01*
X1439399Y379763D02*
X2042598Y379763D01*
X1439399Y380314D02*
X2042598Y380314D01*
X1439399Y380866D02*
X2042598Y380866D01*
X1439399Y381417D02*
X2042598Y381417D01*
X1439399Y381968D02*
X2042598Y381968D01*
X1439399Y382519D02*
X2042598Y382519D01*
X1439399Y383070D02*
X2042598Y383070D01*
X1439399Y383622D02*
X2042598Y383622D01*
X1439399Y384173D02*
X2042598Y384173D01*
X1439399Y384724D02*
X2042598Y384724D01*
X1439399Y385275D02*
X2042598Y385275D01*
X1439399Y385826D02*
X2042598Y385826D01*
X1439399Y386377D02*
X2042598Y386377D01*
X1439399Y386929D02*
X2042598Y386929D01*
X1439399Y387480D02*
X2042598Y387480D01*
X1439399Y388031D02*
X2042598Y388031D01*
X1439399Y388582D02*
X2042598Y388582D01*
X1439399Y389133D02*
X2042598Y389133D01*
X1439399Y389685D02*
X2042598Y389685D01*
X1439399Y390236D02*
X2042598Y390236D01*
X1439399Y390787D02*
X2042598Y390787D01*
X1439399Y391338D02*
X2042598Y391338D01*
X1439399Y391889D02*
X2042598Y391889D01*
X1439399Y392440D02*
X2042598Y392440D01*
X1439399Y392992D02*
X2042598Y392992D01*
X1439399Y393543D02*
X2042598Y393543D01*
X1439399Y394094D02*
X2042598Y394094D01*
X1439399Y394645D02*
X2042598Y394645D01*
X1439399Y395196D02*
X2042598Y395196D01*
X1439399Y395748D02*
X2042598Y395748D01*
X1439399Y396299D02*
X2042598Y396299D01*
X1439399Y396850D02*
X2042598Y396850D01*
X1439399Y397401D02*
X2042598Y397401D01*
X1439399Y397952D02*
X2042598Y397952D01*
X1439399Y398503D02*
X2042598Y398503D01*
X1439399Y399055D02*
X2042598Y399055D01*
X1439399Y399606D02*
X2042598Y399606D01*
X1439399Y400157D02*
X2042598Y400157D01*
X1439399Y400708D02*
X2042598Y400708D01*
X1439399Y401259D02*
X2042598Y401259D01*
X1439399Y401811D02*
X2042598Y401811D01*
X1439399Y402362D02*
X2042598Y402362D01*
X1439399Y402913D02*
X2042598Y402913D01*
X1439399Y403464D02*
X2042598Y403464D01*
X1439399Y404015D02*
X2042598Y404015D01*
X1439399Y404566D02*
X2042598Y404566D01*
X1439399Y405118D02*
X2042598Y405118D01*
X1439399Y405669D02*
X2042598Y405669D01*
X1439399Y406220D02*
X2042598Y406220D01*
X1439399Y406771D02*
X2042598Y406771D01*
X1439399Y407322D02*
X2042598Y407322D01*
X1439399Y407874D02*
X2042598Y407874D01*
X1439399Y408425D02*
X2042598Y408425D01*
X1439399Y408976D02*
X2042598Y408976D01*
X1439399Y409527D02*
X2042598Y409527D01*
X1439399Y410078D02*
X2042598Y410078D01*
X1439399Y410629D02*
X2042598Y410629D01*
X1439399Y411181D02*
X2042598Y411181D01*
X1439399Y411732D02*
X2042598Y411732D01*
X1439399Y412283D02*
X2042598Y412283D01*
X1439399Y412834D02*
X2042598Y412834D01*
X1439399Y413385D02*
X2042598Y413385D01*
X1439399Y413937D02*
X2042598Y413937D01*
X1439399Y414488D02*
X2042598Y414488D01*
X1439399Y415039D02*
X2042598Y415039D01*
X1439399Y415590D02*
X2042598Y415590D01*
X1439399Y416141D02*
X2042598Y416141D01*
X1439399Y416692D02*
X2042598Y416692D01*
X1439399Y417244D02*
X2042598Y417244D01*
X1439399Y417795D02*
X2042598Y417795D01*
X1439399Y418346D02*
X2042598Y418346D01*
X1439399Y418897D02*
X2042598Y418897D01*
X1439399Y419448D02*
X2042598Y419448D01*
X1439399Y420000D02*
X2042598Y420000D01*
X1439399Y420551D02*
X2042598Y420551D01*
X1439399Y421102D02*
X2042598Y421102D01*
X1439399Y421653D02*
X2042598Y421653D01*
X1439399Y422204D02*
X2042598Y422204D01*
X1439399Y422755D02*
X2042598Y422755D01*
X1439399Y423307D02*
X2042598Y423307D01*
X1439399Y423858D02*
X2042598Y423858D01*
X1439399Y424409D02*
X2042598Y424409D01*
X1439399Y424960D02*
X2042598Y424960D01*
X1439399Y425511D02*
X2042598Y425511D01*
X1439399Y426062D02*
X2042598Y426062D01*
X1439399Y426614D02*
X2042598Y426614D01*
X1439399Y427165D02*
X2042598Y427165D01*
X1439399Y427716D02*
X2042598Y427716D01*
X1439399Y428267D02*
X2042598Y428267D01*
X1439399Y428818D02*
X2042598Y428818D01*
X1439399Y429370D02*
X2042598Y429370D01*
X1439399Y429921D02*
X2042598Y429921D01*
X1439399Y430472D02*
X2042598Y430472D01*
X1439399Y431023D02*
X2042598Y431023D01*
X1439399Y431574D02*
X2042598Y431574D01*
X1439399Y432125D02*
X2042598Y432125D01*
X1439399Y432677D02*
X2042598Y432677D01*
X1439399Y433228D02*
X2042598Y433228D01*
X1439399Y433779D02*
X2042598Y433779D01*
X1439399Y434330D02*
X2042598Y434330D01*
X1439399Y434881D02*
X2042598Y434881D01*
X1439399Y435433D02*
X2042598Y435433D01*
X1439399Y435984D02*
X2042598Y435984D01*
X1439399Y436535D02*
X2042598Y436535D01*
X1439399Y437086D02*
X2042598Y437086D01*
X1439399Y437637D02*
X2042598Y437637D01*
X1439399Y438188D02*
X2042598Y438188D01*
X1439399Y438740D02*
X2042598Y438740D01*
X1439399Y439291D02*
X2042598Y439291D01*
X1439399Y439842D02*
X2042598Y439842D01*
X1439399Y440393D02*
X2042598Y440393D01*
X1439399Y440944D02*
X2042598Y440944D01*
X1439399Y441496D02*
X2042598Y441496D01*
X1439399Y442047D02*
X2042598Y442047D01*
X1439399Y442598D02*
X2042598Y442598D01*
X1439399Y443149D02*
X2042598Y443149D01*
X1439399Y443700D02*
X2042598Y443700D01*
X1439399Y444251D02*
X2042598Y444251D01*
X1439399Y444803D02*
X2042598Y444803D01*
X1439399Y445354D02*
X2042598Y445354D01*
X1439399Y445905D02*
X2042598Y445905D01*
X1439399Y446456D02*
X2042598Y446456D01*
X1439399Y447007D02*
X2042598Y447007D01*
X1439399Y447559D02*
X2042598Y447559D01*
X1439399Y448110D02*
X2042598Y448110D01*
X1439399Y448661D02*
X2042598Y448661D01*
X1439399Y449212D02*
X2042598Y449212D01*
X1439399Y449763D02*
X2042598Y449763D01*
X1439399Y450314D02*
X2042598Y450314D01*
X1439399Y450866D02*
X2042598Y450866D01*
X1439399Y451417D02*
X2042598Y451417D01*
X1439399Y451968D02*
X2042598Y451968D01*
X1439399Y452519D02*
X2042598Y452519D01*
X1439399Y453070D02*
X2042598Y453070D01*
X1439399Y453622D02*
X2042598Y453622D01*
X1439399Y454173D02*
X2042598Y454173D01*
X1439399Y454724D02*
X2042598Y454724D01*
X1439399Y455275D02*
X2042598Y455275D01*
X1439399Y455826D02*
X2042598Y455826D01*
X1439399Y456377D02*
X2042598Y456377D01*
X1439399Y456929D02*
X2042598Y456929D01*
X1439399Y457480D02*
X2042598Y457480D01*
X1439399Y458031D02*
X2042598Y458031D01*
X1439399Y458582D02*
X2042598Y458582D01*
X1439399Y459133D02*
X2042598Y459133D01*
X1439399Y459685D02*
X2042598Y459685D01*
X1439399Y460236D02*
X2042598Y460236D01*
X1439399Y460787D02*
X2042598Y460787D01*
X1439399Y461338D02*
X2042598Y461338D01*
X1439399Y461889D02*
X2042598Y461889D01*
X1439399Y462440D02*
X2042598Y462440D01*
X1439399Y462992D02*
X2042598Y462992D01*
X1439399Y463543D02*
X2042598Y463543D01*
X1439399Y464094D02*
X2042598Y464094D01*
X1439399Y464645D02*
X2042598Y464645D01*
X1439399Y465196D02*
X2042598Y465196D01*
X1439399Y465748D02*
X2042598Y465748D01*
X1439399Y466299D02*
X2042598Y466299D01*
X1439399Y466850D02*
X2042598Y466850D01*
X1439399Y467401D02*
X2042598Y467401D01*
X1439399Y467952D02*
X2042598Y467952D01*
X1439399Y468503D02*
X2042598Y468503D01*
X1439399Y469055D02*
X2042598Y469055D01*
X1439399Y469606D02*
X2042598Y469606D01*
X1439399Y470157D02*
X2042598Y470157D01*
X1439399Y470708D02*
X2042598Y470708D01*
X1439399Y471259D02*
X2042598Y471259D01*
X1439399Y471811D02*
X2042598Y471811D01*
X1439399Y472362D02*
X2042598Y472362D01*
X1439399Y472913D02*
X2042598Y472913D01*
X1439399Y473464D02*
X2042598Y473464D01*
X1439399Y474015D02*
X2042598Y474015D01*
X1439399Y474566D02*
X2042598Y474566D01*
X1439399Y475118D02*
X2042598Y475118D01*
X1439399Y475669D02*
X2042598Y475669D01*
X1439399Y476220D02*
X2042598Y476220D01*
X1439399Y476771D02*
X2042598Y476771D01*
X1439399Y477322D02*
X2042598Y477322D01*
X1439399Y477874D02*
X2042598Y477874D01*
X1439399Y478425D02*
X2042598Y478425D01*
X1439399Y478976D02*
X2042598Y478976D01*
X1439399Y479527D02*
X2042598Y479527D01*
X1439399Y480078D02*
X2042598Y480078D01*
X1439399Y480629D02*
X2042598Y480629D01*
X1439399Y481181D02*
X2042598Y481181D01*
X1439399Y481732D02*
X2042598Y481732D01*
X1439399Y482283D02*
X2042598Y482283D01*
X1439399Y482834D02*
X2042598Y482834D01*
X1439399Y483385D02*
X2042598Y483385D01*
X1439399Y483937D02*
X2042598Y483937D01*
X1439399Y484488D02*
X2042598Y484488D01*
X1439399Y485039D02*
X2042598Y485039D01*
X1439399Y485590D02*
X2042598Y485590D01*
X1439399Y486141D02*
X2042598Y486141D01*
X1439399Y486692D02*
X2042598Y486692D01*
X1439399Y487244D02*
X2042598Y487244D01*
X1439399Y487795D02*
X2042598Y487795D01*
X1439399Y488346D02*
X2042598Y488346D01*
X1439399Y488897D02*
X2042598Y488897D01*
X1439399Y489448D02*
X2042598Y489448D01*
X1439399Y490000D02*
X2042598Y490000D01*
X1439399Y490551D02*
X2042598Y490551D01*
X1439399Y491102D02*
X2042598Y491102D01*
X1439399Y491653D02*
X2042598Y491653D01*
X1439399Y492204D02*
X2042598Y492204D01*
X1439399Y492755D02*
X2042598Y492755D01*
X1439399Y493307D02*
X2042598Y493307D01*
X1439399Y493858D02*
X2042598Y493858D01*
X1439399Y494409D02*
X2042598Y494409D01*
X1439399Y494960D02*
X2042598Y494960D01*
X1439399Y495511D02*
X2042598Y495511D01*
X1439399Y496062D02*
X2042598Y496062D01*
X1439399Y496614D02*
X2042598Y496614D01*
X1439399Y497165D02*
X2042598Y497165D01*
X1439399Y497716D02*
X2042598Y497716D01*
X1439399Y498267D02*
X2042598Y498267D01*
X1439399Y498818D02*
X2042598Y498818D01*
X1439399Y499370D02*
X2042598Y499370D01*
X1439399Y499921D02*
X2042598Y499921D01*
X1439399Y500472D02*
X2042598Y500472D01*
X1439399Y501023D02*
X2042598Y501023D01*
X1439399Y501574D02*
X2042598Y501574D01*
X1439399Y502125D02*
X2042598Y502125D01*
X1439399Y502677D02*
X2042598Y502677D01*
X1439399Y503228D02*
X2042598Y503228D01*
X1439399Y503779D02*
X2042598Y503779D01*
X1439399Y504330D02*
X2042598Y504330D01*
X1439399Y504881D02*
X2042598Y504881D01*
X1439399Y505433D02*
X2042598Y505433D01*
X1439399Y505984D02*
X2042598Y505984D01*
X1439399Y506535D02*
X2042598Y506535D01*
X1439399Y507086D02*
X2042598Y507086D01*
X1439399Y507637D02*
X2042598Y507637D01*
X1439399Y508188D02*
X2042598Y508188D01*
X1439399Y508740D02*
X2042598Y508740D01*
X1439399Y509291D02*
X2042598Y509291D01*
X1439399Y509842D02*
X2042598Y509842D01*
X1439399Y510393D02*
X2042598Y510393D01*
X1439399Y510944D02*
X2042598Y510944D01*
X1439399Y511496D02*
X2042598Y511496D01*
X1439399Y512047D02*
X2042598Y512047D01*
X1439399Y512598D02*
X2042598Y512598D01*
X1439399Y513149D02*
X2042598Y513149D01*
X1439399Y513700D02*
X2042598Y513700D01*
X1439399Y514251D02*
X2042598Y514251D01*
X1439399Y514803D02*
X2042598Y514803D01*
X1439399Y515354D02*
X2042598Y515354D01*
X1439399Y515905D02*
X2042598Y515905D01*
X1439399Y516456D02*
X2042598Y516456D01*
X1439399Y517007D02*
X2042598Y517007D01*
X1439399Y517559D02*
X2042598Y517559D01*
X1439399Y518110D02*
X2042598Y518110D01*
X1439399Y518661D02*
X2042598Y518661D01*
X1439399Y519212D02*
X2042598Y519212D01*
X1439399Y519763D02*
X2042598Y519763D01*
X1439399Y520314D02*
X2042598Y520314D01*
X1439399Y520866D02*
X2042598Y520866D01*
X1439399Y521417D02*
X2042598Y521417D01*
X1439399Y521968D02*
X2042598Y521968D01*
X1439399Y522519D02*
X2042598Y522519D01*
X1439399Y523070D02*
X2042598Y523070D01*
X1439399Y523622D02*
X2042598Y523622D01*
X1439399Y524173D02*
X2042598Y524173D01*
X1439399Y524724D02*
X2042598Y524724D01*
X1439399Y525275D02*
X2042598Y525275D01*
X1439399Y525826D02*
X2042598Y525826D01*
X1439399Y526377D02*
X2042598Y526377D01*
X1439399Y526929D02*
X2042598Y526929D01*
X1439399Y527480D02*
X2042598Y527480D01*
X1439399Y528031D02*
X2042598Y528031D01*
X1439399Y528582D02*
X2042598Y528582D01*
X1439399Y529133D02*
X2042598Y529133D01*
X1439399Y529685D02*
X2042598Y529685D01*
X1439399Y530236D02*
X2042598Y530236D01*
X1439399Y530787D02*
X2042598Y530787D01*
X1439399Y531338D02*
X2042598Y531338D01*
X1439399Y531889D02*
X2042598Y531889D01*
X1439399Y532440D02*
X2042598Y532440D01*
X1439399Y532992D02*
X2042598Y532992D01*
X1439399Y533543D02*
X2042598Y533543D01*
X1439399Y534094D02*
X2042598Y534094D01*
X1439399Y534645D02*
X2042598Y534645D01*
X1439399Y535196D02*
X2042598Y535196D01*
X1439399Y535748D02*
X2042598Y535748D01*
X1439399Y536299D02*
X2042598Y536299D01*
X1439399Y536850D02*
X2042598Y536850D01*
X1439399Y537401D02*
X2042598Y537401D01*
X1439399Y537952D02*
X2042598Y537952D01*
X1439399Y538425D02*
X2042598Y538425D01*
X2042598Y0D02*
X2042598Y538425D01*
X1439399Y0D02*
X1439399Y538425D01*
M02*
