%FSLAX35Y35*%
%MOIN*%
%IN2 = Copper bottom L1   ( x.Bot )*%
%ADD10C,0.00591*%
%ADD11C,0.00768*%
%ADD12C,0.00787*%
%ADD13C,0.01050*%
%ADD14C,0.01181*%
%ADD15C,0.01350*%
%ADD16C,0.01500*%
%ADD17C,0.02362*%
%ADD18C,0.02400*%
%ADD19C,0.03150*%
%ADD20C,0.03200*%
%ADD21C,0.04000*%
%ADD22C,0.05000*%
%ADD23C,0.05657*%
%ADD24C,0.05906*%
%ADD25C,0.06000*%
%ADD26C,0.08000*%
%ADD27C,0.15748*%
%ADD28C,0.23622*%
%ADD29R,0.02756X0.09843*%
%ADD30R,0.03937X0.06299*%
%ADD31R,0.04724X0.07874*%
%ADD32R,0.05906X0.07874*%
%ADD33R,0.06299X0.03937*%
%ADD34R,0.07874X0.04724*%
%ADD35R,0.07874X0.07874*%
%ADD36R,0.08000X0.08000*%
%ADD37R,0.19685X0.19685*%
%AMOCT_38*4,1,8,0.045000,0.022500,0.022500,0.045000,-0.022500,0.045000,-0.045000,0.022500,-0.045000,-0.022500,-0.022500,-0.045000,0.022500,-0.045000,0.045000,-0.022500,0.045000,0.022500,0*%
%ADD38OCT_38*%
G54D18*
X380000Y654400D02*
X380000Y636400D01*
X398600Y617800D01*
X463100Y617800D01*
X456700Y610700D02*
X398500Y610700D01*
X375000Y634200D01*
X375000Y654400D01*
X365000Y654400D02*
X365000Y626900D01*
X395200Y596700D01*
X414000Y596700D01*
X420000Y590700D01*
X420000Y534400D01*
X360000Y654400D02*
X360000Y621000D01*
X339400Y600400D01*
X230500Y600400D01*
X355000Y654400D02*
X355000Y628900D01*
X334100Y608000D01*
X237700Y608000D01*
X350000Y635300D02*
X350000Y654400D01*
X345000Y654400D02*
X345000Y630100D01*
X329700Y614800D01*
X244100Y614800D01*
X345000Y694400D02*
X336300Y694400D01*
X330300Y688400D01*
X330300Y642800D01*
X317400Y629900D01*
X256200Y629900D01*
X499600Y604000D02*
X396700Y604000D01*
X370000Y630700D01*
X370000Y654400D01*
X350000Y694400D02*
X350000Y702800D01*
X347800Y705000D01*
X333500Y705000D01*
X323600Y695100D01*
X323600Y646900D01*
X315000Y638300D01*
X256300Y638300D01*
X256200Y638200D01*
X355000Y694400D02*
X355000Y706700D01*
X350400Y711300D01*
X329500Y711300D01*
X316400Y698200D01*
X316400Y678300D01*
X302700Y664600D01*
X256400Y664600D01*
X360000Y694400D02*
X360000Y709600D01*
X353700Y715900D01*
X324800Y715900D01*
X310800Y701900D01*
X310800Y683800D01*
X300900Y673900D01*
X256300Y673900D01*
X365000Y694400D02*
X365000Y715900D01*
X356400Y724500D01*
X323700Y724500D01*
X298800Y699600D01*
X256200Y699600D01*
X256000Y708300D02*
X298800Y708300D01*
X320500Y730000D01*
X359400Y730000D01*
X370000Y719400D01*
X370000Y694400D01*
X375000Y694400D02*
X375000Y723500D01*
X362900Y735600D01*
X255900Y735600D01*
X380000Y694400D02*
X380000Y729100D01*
X365300Y743800D01*
X255900Y743800D01*
X390000Y654400D02*
X390000Y644600D01*
X399700Y634900D01*
X469100Y634900D01*
X476800Y625800D02*
X398600Y625800D01*
X385000Y639400D01*
X385000Y654400D01*
X395000Y654400D02*
X395000Y649100D01*
X403400Y640700D01*
X483600Y640700D01*
X492200Y632100D01*
X527000Y632100D01*
X528300Y630800D01*
X390000Y694400D02*
X390000Y706000D01*
X394900Y710900D01*
X484600Y710900D01*
X501600Y693900D01*
X501600Y644300D01*
X506300Y639600D01*
X534000Y639600D01*
X535500Y639800D01*
G54D20*
X385000Y694400D02*
X385000Y673500D01*
X390405Y668094D01*
X414100Y668094D01*
X424600Y668094D01*
X400000Y654400D02*
X400000Y667900D01*
X486200Y694700D02*
X400300Y694700D01*
X400000Y694400D01*
X395000Y694400D02*
X395000Y685100D01*
X400200Y679900D01*
X414094Y679900D01*
G54D21*
X520000Y1141900D02*
X520000Y1130305D01*
X486250Y1141900D02*
X510000Y1141900D01*
X452500Y1141900D02*
X476250Y1141900D01*
X230455Y619400D02*
X230455Y702155D01*
X234105Y705805D01*
X234105Y720950D01*
X234105Y784205D01*
X240905Y791005D01*
X240905Y821900D01*
X405000Y478150D02*
X415000Y478150D01*
X425000Y478150D01*
X425000Y488150D01*
X508750Y817244D02*
X418650Y817244D01*
X407500Y817244D02*
X306250Y817244D01*
X241044Y817244D01*
X244655Y923150D02*
X245905Y924400D01*
X245905Y1024400D01*
X245905Y1067605D01*
X252155Y1073855D01*
X252155Y1118344D01*
X83405Y619400D02*
X83405Y695705D01*
X84655Y696955D01*
X84655Y720650D01*
X84655Y763855D01*
X90905Y770105D01*
X90905Y821900D01*
X90905Y876805D01*
X94655Y880555D01*
X94655Y923150D01*
X94655Y1007055D01*
X95905Y1008305D01*
X95905Y1024400D01*
X95905Y1056705D01*
X102155Y1062955D01*
X102155Y1125650D01*
X294900Y512594D02*
X396050Y512594D01*
X396250Y512394D01*
X497500Y512394D01*
X497700Y512594D01*
X526594Y512594D01*
X545905Y531905D01*
X545905Y619400D01*
X545905Y689305D01*
X547155Y690555D01*
X547155Y720650D01*
X547155Y776155D01*
X553405Y782405D01*
X553405Y821900D01*
X553405Y891705D01*
X557155Y895455D01*
X557155Y923150D01*
X557155Y1004355D01*
X558405Y1005605D01*
X558405Y1024400D01*
X558405Y1073405D01*
X564655Y1079655D01*
X564655Y1107700D01*
X520000Y1118494D02*
X418750Y1118494D01*
X317500Y1118494D01*
X252155Y1118494D01*
X252155Y1125650D01*
X425000Y488150D02*
X425000Y512100D01*
X104200Y172555D02*
X111355Y172555D01*
X453444Y172555D02*
X490600Y135400D01*
X527900Y135400D01*
X555800Y135400D02*
X572500Y152100D01*
X572500Y237900D01*
X549200Y237900D01*
X407950Y158805D02*
X407950Y172555D01*
X453444Y172555D01*
X407950Y172555D02*
X453444Y172555D01*
X306700Y165055D02*
X306700Y172555D01*
X312605Y172555D01*
X306700Y172555D02*
X312605Y172555D01*
X205450Y166305D02*
X205450Y172555D01*
X306700Y172555D01*
X205450Y172555D02*
X111355Y172555D01*
X312605Y231650D02*
X312605Y172555D01*
X407950Y172555D01*
X312605Y172555D02*
X407950Y172555D01*
X312605Y172555D02*
X407950Y172555D01*
X312605Y332900D02*
X312605Y172555D01*
X503855Y337900D02*
X572500Y337900D01*
X572500Y237900D01*
X503855Y235400D02*
X503855Y337900D01*
X572500Y337900D02*
X572500Y359300D01*
X561744Y370055D01*
X407950Y370055D01*
X401700Y376305D01*
X306700Y376305D01*
X305450Y377555D01*
X205450Y377555D01*
X199200Y383805D01*
X104200Y383805D01*
X111355Y339150D02*
X111355Y237900D01*
X111355Y172555D01*
X205450Y172555D01*
X111355Y172555D02*
X104200Y172555D01*
X111355Y172555D02*
X104200Y172555D01*
X445450Y62555D02*
X517255Y62555D01*
X527900Y73200D01*
X527900Y135400D01*
X555800Y135400D01*
X527900Y135400D02*
X555800Y135400D01*
X418650Y764200D02*
X418650Y817244D01*
X407500Y817244D01*
X418650Y817244D02*
X407500Y817244D01*
X252155Y1125650D02*
X252155Y1118344D01*
X252155Y1118494D01*
X252200Y1118300D02*
X252155Y1118344D01*
X252200Y1118300D02*
X252155Y1118344D01*
X252200Y1118300D02*
X252155Y1118344D01*
X564655Y1107700D02*
X564655Y1125650D01*
X564700Y1107700D02*
X564655Y1107700D01*
X508750Y817244D02*
X508750Y805150D01*
X508500Y804900D01*
X240905Y791005D02*
X240800Y791111D01*
X240800Y798800D01*
X147500Y479400D02*
X147500Y468900D01*
X157500Y458900D01*
X186700Y458900D01*
X233300Y505500D01*
X240394Y512594D01*
X294900Y512594D01*
X418750Y1141900D02*
X418750Y1130305D01*
X385000Y1141900D02*
X408750Y1141900D01*
X351250Y1141900D02*
X375000Y1141900D01*
X317500Y1141900D02*
X317500Y1130305D01*
X283750Y1141900D02*
X307500Y1141900D01*
X250000Y1141900D02*
X273750Y1141900D01*
X541250Y1125650D02*
X552844Y1125650D01*
X531250Y1125650D02*
X531250Y1115550D01*
X540000Y1106800D01*
X540000Y1091900D01*
X530000Y1091900D02*
X530000Y1077700D01*
X538750Y1068950D01*
X538750Y1058150D01*
X546594Y1024400D02*
X537500Y1024400D01*
X527500Y1024400D02*
X527500Y1011600D01*
X536250Y1002850D01*
X536250Y991900D01*
X526250Y991900D02*
X526250Y978150D01*
X535000Y969400D01*
X535000Y956900D01*
X533750Y923150D02*
X545344Y923150D01*
X523750Y923150D02*
X523750Y912050D01*
X532500Y903300D01*
X532500Y889400D01*
X522500Y889400D02*
X522500Y877200D01*
X531250Y868450D01*
X531250Y855650D01*
X521250Y855650D02*
X509650Y855650D01*
X509650Y1046650D01*
X521150Y1058150D01*
X528750Y1058150D01*
X525000Y956900D02*
X510100Y956900D01*
X205000Y754400D02*
X195400Y754400D01*
X189500Y748500D01*
X189500Y653150D01*
X189500Y554300D02*
X191900Y551900D01*
X197500Y551900D01*
X201250Y653150D02*
X189500Y653150D01*
X189500Y554300D01*
X237700Y608000D02*
X237700Y698100D01*
X244100Y704500D01*
X244100Y777900D01*
X250200Y784000D01*
X250200Y809700D01*
X201700Y534100D02*
X37400Y534100D01*
X37100Y534300D01*
X541594Y821900D02*
X530000Y821900D01*
X520000Y821900D02*
X520000Y808900D01*
X528750Y800150D01*
X528750Y788150D01*
X518750Y788150D02*
X518750Y777250D01*
X527500Y768500D01*
X527500Y754400D01*
X535344Y720650D02*
X526250Y720650D01*
X516250Y720650D02*
X516250Y708150D01*
X525000Y699400D01*
X525000Y688150D01*
X515000Y688150D02*
X515000Y675700D01*
X523750Y666950D01*
X523750Y653150D01*
X522500Y619400D02*
X534094Y619400D01*
X512500Y619400D02*
X512500Y606500D01*
X521250Y597750D01*
X521250Y585650D01*
X511250Y585650D02*
X511250Y574550D01*
X520000Y565800D01*
X520000Y551900D01*
X497500Y534400D02*
X497500Y524605D01*
X497700Y524405D01*
X463750Y534400D02*
X487500Y534400D01*
X430000Y534400D02*
X453750Y534400D01*
X396250Y524205D02*
X396250Y534400D01*
X362500Y534400D02*
X386250Y534400D01*
X328750Y534400D02*
X352500Y534400D01*
X295000Y534400D02*
X295000Y524505D01*
X294900Y524405D01*
X261250Y534400D02*
X285000Y534400D01*
X227500Y534400D02*
X251250Y534400D01*
X229094Y821900D02*
X217500Y821900D01*
X216250Y788150D02*
X216250Y798650D01*
X207500Y807400D01*
X207500Y821900D01*
X215000Y754400D02*
X215000Y765400D01*
X206250Y774150D01*
X206250Y788150D01*
X222294Y720950D02*
X214050Y720950D01*
X213750Y720650D01*
X203750Y720650D02*
X203750Y709050D01*
X212500Y700300D01*
X212500Y688150D01*
X202500Y688150D02*
X202500Y674100D01*
X211250Y665350D01*
X211250Y653150D01*
X210000Y619400D02*
X218644Y619400D01*
X200000Y619400D02*
X200000Y605900D01*
X208750Y597150D01*
X208750Y585650D01*
X198750Y585650D02*
X198750Y573350D01*
X207500Y564600D01*
X207500Y551900D01*
X240344Y1125650D02*
X228750Y1125650D01*
X218750Y1125650D02*
X218750Y1111750D01*
X227500Y1103000D01*
X227500Y1091900D01*
X217500Y1091900D02*
X217500Y1078600D01*
X226250Y1069850D01*
X226250Y1058150D01*
X225000Y1024400D02*
X234094Y1024400D01*
X215000Y1024400D02*
X215000Y1013000D01*
X223750Y1004250D01*
X223750Y991900D01*
X213750Y991900D02*
X213750Y978950D01*
X222500Y970200D01*
X222500Y956900D01*
X232844Y923150D02*
X221250Y923150D01*
X211250Y923150D02*
X211250Y909650D01*
X220000Y900900D01*
X220000Y889400D01*
X210000Y889400D02*
X210000Y874900D01*
X218750Y866150D01*
X218750Y855650D01*
X508750Y838150D02*
X508750Y829055D01*
X475000Y838150D02*
X498750Y838150D01*
X441250Y838150D02*
X465000Y838150D01*
X407500Y838150D02*
X407500Y829055D01*
X373750Y838150D02*
X397500Y838150D01*
X340000Y838150D02*
X363750Y838150D01*
X306250Y838150D02*
X306250Y829055D01*
X272500Y838150D02*
X296250Y838150D01*
X238750Y838150D02*
X262500Y838150D01*
X79094Y821900D02*
X67500Y821900D01*
X57500Y821900D02*
X57500Y809000D01*
X66250Y800250D01*
X66250Y788150D01*
X56250Y788150D02*
X56250Y778050D01*
X65000Y769300D01*
X65000Y754400D01*
X72844Y720650D02*
X63750Y720650D01*
X53750Y720650D02*
X53750Y709250D01*
X62500Y700500D01*
X62500Y688150D01*
X52500Y688150D02*
X52500Y673900D01*
X61250Y665150D01*
X61250Y653150D01*
X71594Y619400D02*
X60000Y619400D01*
X50000Y619400D02*
X50000Y607900D01*
X58750Y599150D01*
X58750Y585650D01*
X48750Y585650D02*
X48750Y572250D01*
X57500Y563500D01*
X57500Y551900D01*
X90344Y1125650D02*
X78750Y1125650D01*
X69000Y1125900D02*
X69000Y1113900D01*
X69000Y1125900D02*
X68750Y1125650D01*
X69000Y1113900D02*
X77500Y1105400D01*
X77500Y1091900D01*
X67500Y1091900D02*
X67500Y1078900D01*
X76250Y1070150D01*
X76250Y1058150D01*
X83894Y1024400D02*
X74800Y1024400D01*
X65000Y1024400D02*
X65000Y1011400D01*
X73750Y1002650D01*
X73750Y991900D01*
X63750Y991900D02*
X63750Y978150D01*
X72500Y969400D01*
X72500Y956900D01*
X82844Y923150D02*
X71250Y923150D01*
X61250Y923150D02*
X61250Y911350D01*
X70000Y902600D01*
X70000Y889400D01*
X60000Y889400D02*
X60000Y877100D01*
X68750Y868350D01*
X68750Y855650D01*
X87950Y339150D02*
X99544Y339150D01*
X87950Y305400D02*
X87950Y329150D01*
X87950Y271650D02*
X87950Y295400D01*
X87950Y237900D02*
X99544Y237900D01*
X87950Y204150D02*
X87950Y227900D01*
X87950Y170400D02*
X87950Y194150D01*
X104200Y371994D02*
X104200Y360400D01*
X104200Y350400D02*
X116300Y350400D01*
X125050Y359150D01*
X137950Y359150D01*
X137950Y349150D02*
X150850Y349150D01*
X159600Y357900D01*
X171700Y357900D01*
X205450Y365744D02*
X205450Y356650D01*
X205450Y346650D02*
X217350Y346650D01*
X226100Y355400D01*
X237950Y355400D01*
X237950Y345400D02*
X252900Y345400D01*
X261650Y354150D01*
X272950Y354150D01*
X306700Y352900D02*
X306700Y364494D01*
X306700Y342900D02*
X319300Y342900D01*
X328050Y351650D01*
X340450Y351650D01*
X340450Y341650D02*
X353650Y341650D01*
X362400Y350400D01*
X374200Y350400D01*
X407950Y349150D02*
X407950Y358244D01*
X407950Y339150D02*
X419850Y339150D01*
X428600Y347900D01*
X440450Y347900D01*
X440450Y337900D02*
X454100Y337900D01*
X462850Y346650D01*
X475450Y346650D01*
X491700Y325400D02*
X491700Y337555D01*
X492044Y337900D01*
X491700Y291650D02*
X491700Y315400D01*
X491700Y257900D02*
X491700Y281650D01*
X491700Y224150D02*
X491700Y235055D01*
X492044Y235400D01*
X491700Y190400D02*
X491700Y214150D01*
X491700Y156650D02*
X491700Y180400D01*
X306700Y141650D02*
X306700Y153244D01*
X306700Y131650D02*
X318850Y131650D01*
X327600Y140400D01*
X340450Y140400D01*
X340450Y130400D02*
X353600Y130400D01*
X362350Y139150D01*
X374200Y139150D01*
X407950Y137900D02*
X407950Y146994D01*
X407950Y127900D02*
X420600Y127900D01*
X429350Y136650D01*
X440450Y136650D01*
X440450Y126650D02*
X454050Y126650D01*
X462800Y135400D01*
X475450Y135400D01*
X104200Y149150D02*
X104200Y160744D01*
X104200Y139150D02*
X117550Y139150D01*
X126300Y147900D01*
X137950Y147900D01*
X137950Y137900D02*
X150100Y137900D01*
X158850Y146650D01*
X171700Y146650D01*
X205450Y154494D02*
X205450Y145400D01*
X205450Y135400D02*
X219100Y135400D01*
X227850Y144150D01*
X237950Y144150D01*
X237950Y134150D02*
X249350Y134150D01*
X258100Y142900D01*
X272950Y142900D01*
X289200Y332900D02*
X300794Y332900D01*
X289200Y299150D02*
X289200Y322900D01*
X289200Y265400D02*
X289200Y289150D01*
X289200Y231650D02*
X300794Y231650D01*
X289200Y197900D02*
X289200Y221650D01*
X289400Y118800D02*
X289400Y95100D01*
X289600Y94900D01*
X445450Y50744D02*
X445450Y31650D01*
X395000Y478150D02*
X385000Y478150D01*
X385000Y488150D01*
X307600Y532700D02*
X307600Y593500D01*
X414000Y645100D02*
X414000Y668000D01*
X424600Y679905D02*
X424600Y694300D01*
X414094Y679900D02*
X414100Y679905D01*
X414094Y679900D02*
X414100Y679905D01*
X414094Y679900D02*
X414100Y679905D01*
X414094Y679900D01*
X414100Y679905D02*
X414094Y679900D01*
G54D22*
X252200Y1118300D03*
X564700Y1107700D03*
X508500Y804900D03*
X553500Y804800D03*
X240800Y798800D03*
X91100Y798800D03*
G54D24*
X463100Y617800D03*
X456700Y610700D03*
X230500Y600400D03*
X250200Y809700D03*
X350000Y635300D03*
X244100Y614800D03*
X201700Y534100D03*
X37100Y534300D03*
X256200Y629900D03*
X499600Y604000D03*
X256200Y638200D03*
X256400Y664600D03*
X256300Y673900D03*
X256200Y699600D03*
X256000Y708300D03*
X255900Y735600D03*
X289400Y118800D03*
X289600Y94900D03*
X255900Y743800D03*
X307600Y532700D03*
X307600Y593500D03*
X414000Y645100D03*
X469100Y634900D03*
X476800Y625800D03*
X486200Y694700D03*
X528300Y630800D03*
X535500Y639800D03*
X189700Y600600D03*
X355900Y1062600D03*
X372150Y1053850D03*
X410900Y1043850D03*
X355100Y968000D03*
X371350Y959250D03*
X410100Y949250D03*
G54D25*
X370900Y1068850D02*
X370900Y1046350D01*
X400900Y1046350D01*
X400900Y1023850D01*
X370100Y974250D02*
X370100Y951750D01*
X400100Y951750D01*
X400100Y929250D01*
X400900Y1013850D02*
X422150Y1013850D01*
X422150Y1068850D01*
X402150Y1068850D01*
X420900Y1023850D02*
X420900Y1016350D01*
X340900Y1068850D02*
X320900Y1068850D01*
X320900Y1013850D01*
X330900Y1013850D01*
X385900Y1068850D02*
X385900Y1055100D01*
X410900Y1055100D01*
X410900Y1025100D01*
X390900Y1025100D02*
X390900Y1035100D01*
X355900Y1035100D01*
X355900Y1067600D01*
X380900Y1021350D02*
X380900Y1013850D01*
X390900Y1013850D01*
X380900Y1013850D02*
X380900Y1003850D01*
X320900Y1003850D01*
X320900Y1012600D01*
X400100Y919250D02*
X421350Y919250D01*
X421350Y974250D01*
X401350Y974250D01*
X420100Y929250D02*
X420100Y921750D01*
X340100Y974250D02*
X320100Y974250D01*
X320100Y919250D01*
X330100Y919250D01*
X385100Y974250D02*
X385100Y960500D01*
X410100Y960500D01*
X410100Y930500D01*
X390100Y930500D02*
X390100Y940500D01*
X355100Y940500D01*
X355100Y973000D01*
X380100Y926750D02*
X380100Y919250D01*
X390100Y919250D01*
X380100Y919250D02*
X380100Y909250D01*
X320100Y909250D01*
X320100Y918000D01*
G54D26*
X467500Y476900D03*
X477500Y476900D03*
X320900Y1013850D03*
X320900Y1023850D03*
X330900Y1013850D03*
X330900Y1023850D03*
X340900Y1013850D03*
X340900Y1023850D03*
X350900Y1013850D03*
X350900Y1023850D03*
X360900Y1013850D03*
X360900Y1023850D03*
X380900Y1013850D03*
X380900Y1023850D03*
X390900Y1013850D03*
X390900Y1023850D03*
X400900Y1013850D03*
X400900Y1023850D03*
X410900Y1013850D03*
X410900Y1023850D03*
X420900Y1013850D03*
X420900Y1023850D03*
X380100Y919250D03*
X380100Y929250D03*
X390100Y919250D03*
X390100Y929250D03*
X400100Y919250D03*
X400100Y929250D03*
X410100Y919250D03*
X410100Y929250D03*
X420100Y919250D03*
X420100Y929250D03*
X320100Y919250D03*
X320100Y929250D03*
X330100Y919250D03*
X330100Y929250D03*
X340100Y919250D03*
X340100Y929250D03*
X350100Y919250D03*
X350100Y929250D03*
X360100Y919250D03*
X360100Y929250D03*
G54D28*
X56700Y30400D03*
X56700Y420400D03*
X551700Y30400D03*
X551700Y420400D03*
X585000Y474400D03*
X20000Y474400D03*
X585000Y1184400D03*
X20000Y1181900D03*
G54D29*
X400000Y654400D03*
X395000Y654400D03*
X390000Y654400D03*
X385000Y654400D03*
X380000Y654400D03*
X375000Y654400D03*
X370000Y654400D03*
X365000Y654400D03*
X360000Y654400D03*
X355000Y654400D03*
X350000Y654400D03*
X345000Y654400D03*
X345000Y694400D03*
X350000Y694400D03*
X355000Y694400D03*
X360000Y694400D03*
X365000Y694400D03*
X370000Y694400D03*
X375000Y694400D03*
X380000Y694400D03*
X385000Y694400D03*
X390000Y694400D03*
X395000Y694400D03*
X400000Y694400D03*
G54D30*
X552844Y1125650D03*
X564655Y1125650D03*
X546594Y1024400D03*
X558405Y1024400D03*
X545344Y923150D03*
X557155Y923150D03*
X541594Y821900D03*
X553405Y821900D03*
X535344Y720650D03*
X547155Y720650D03*
X534094Y619400D03*
X545905Y619400D03*
X229094Y821900D03*
X240905Y821900D03*
X222294Y720950D03*
X234105Y720950D03*
X218644Y619400D03*
X230455Y619400D03*
X240344Y1125650D03*
X252155Y1125650D03*
X234094Y1024400D03*
X245905Y1024400D03*
X232844Y923150D03*
X244655Y923150D03*
X79094Y821900D03*
X90905Y821900D03*
X72844Y720650D03*
X84655Y720650D03*
X71594Y619400D03*
X83405Y619400D03*
X90344Y1125650D03*
X102155Y1125650D03*
X84094Y1024400D03*
X95905Y1024400D03*
X82844Y923150D03*
X94655Y923150D03*
X99544Y339150D03*
X111355Y339150D03*
X99544Y237900D03*
X111355Y237900D03*
X492044Y337900D03*
X503855Y337900D03*
X492044Y235400D03*
X503855Y235400D03*
X300794Y332900D03*
X312605Y332900D03*
X300794Y231650D03*
X312605Y231650D03*
G54D31*
X520000Y1141900D03*
X510000Y1141900D03*
X486250Y1141900D03*
X476250Y1141900D03*
X452500Y1141900D03*
X442500Y1141900D03*
X418750Y1141900D03*
X408750Y1141900D03*
X385000Y1141900D03*
X375000Y1141900D03*
X351250Y1141900D03*
X341250Y1141900D03*
X317500Y1141900D03*
X307500Y1141900D03*
X283750Y1141900D03*
X273750Y1141900D03*
X250000Y1141900D03*
X240000Y1141900D03*
X541250Y1125650D03*
X531250Y1125650D03*
X540000Y1091900D03*
X530000Y1091900D03*
X538750Y1058150D03*
X528750Y1058150D03*
X537500Y1024400D03*
X527500Y1024400D03*
X536250Y991900D03*
X526250Y991900D03*
X535000Y956900D03*
X525000Y956900D03*
X533750Y923150D03*
X523750Y923150D03*
X532500Y889400D03*
X522500Y889400D03*
X531250Y855650D03*
X521250Y855650D03*
X530000Y821900D03*
X520000Y821900D03*
X528750Y788150D03*
X518750Y788150D03*
X527500Y754400D03*
X517500Y754400D03*
X526250Y720650D03*
X516250Y720650D03*
X525000Y688150D03*
X515000Y688150D03*
X523750Y653150D03*
X513750Y653150D03*
X522500Y619400D03*
X512500Y619400D03*
X521250Y585650D03*
X511250Y585650D03*
X520000Y551900D03*
X510000Y551900D03*
X497500Y534400D03*
X487500Y534400D03*
X463750Y534400D03*
X453750Y534400D03*
X430000Y534400D03*
X420000Y534400D03*
X396250Y534400D03*
X386250Y534400D03*
X362500Y534400D03*
X352500Y534400D03*
X328750Y534400D03*
X318750Y534400D03*
X295000Y534400D03*
X285000Y534400D03*
X261250Y534400D03*
X251250Y534400D03*
X227500Y534400D03*
X217500Y534400D03*
X217500Y821900D03*
X207500Y821900D03*
X216250Y788150D03*
X206250Y788150D03*
X215000Y754400D03*
X205000Y754400D03*
X213750Y720650D03*
X203750Y720650D03*
X212500Y688150D03*
X202500Y688150D03*
X211250Y653150D03*
X201250Y653150D03*
X210000Y619400D03*
X200000Y619400D03*
X208750Y585650D03*
X198750Y585650D03*
X207500Y551900D03*
X197500Y551900D03*
X228750Y1125650D03*
X218750Y1125650D03*
X227500Y1091900D03*
X217500Y1091900D03*
X226250Y1058150D03*
X216250Y1058150D03*
X225000Y1024400D03*
X215000Y1024400D03*
X223750Y991900D03*
X213750Y991900D03*
X222500Y956900D03*
X212500Y956900D03*
X221250Y923150D03*
X211250Y923150D03*
X220000Y889400D03*
X210000Y889400D03*
X218750Y855650D03*
X208750Y855650D03*
X508750Y838150D03*
X498750Y838150D03*
X475000Y838150D03*
X465000Y838150D03*
X441250Y838150D03*
X431250Y838150D03*
X407500Y838150D03*
X397500Y838150D03*
X373750Y838150D03*
X363750Y838150D03*
X340000Y838150D03*
X330000Y838150D03*
X306250Y838150D03*
X296250Y838150D03*
X272500Y838150D03*
X262500Y838150D03*
X238750Y838150D03*
X228750Y838150D03*
X67500Y821900D03*
X57500Y821900D03*
X66250Y788150D03*
X56250Y788150D03*
X65000Y754400D03*
X55000Y754400D03*
X63750Y720650D03*
X53750Y720650D03*
X62500Y688150D03*
X52500Y688150D03*
X61250Y653150D03*
X51250Y653150D03*
X60000Y619400D03*
X50000Y619400D03*
X58750Y585650D03*
X48750Y585650D03*
X57500Y551900D03*
X47500Y551900D03*
X78750Y1125650D03*
X68750Y1125650D03*
X77500Y1091900D03*
X67500Y1091900D03*
X76250Y1058150D03*
X66250Y1058150D03*
X75000Y1024400D03*
X65000Y1024400D03*
X73750Y991900D03*
X63750Y991900D03*
X72500Y956900D03*
X62500Y956900D03*
X71250Y923150D03*
X61250Y923150D03*
X70000Y889400D03*
X60000Y889400D03*
X68750Y855650D03*
X58750Y855650D03*
X445450Y31650D03*
X435450Y31650D03*
X425450Y16650D03*
X415450Y16650D03*
X425450Y46650D03*
X415450Y46650D03*
G54D32*
X385900Y1068850D03*
X370900Y1068850D03*
X355900Y1068850D03*
X385100Y974250D03*
X370100Y974250D03*
X355100Y974250D03*
G54D33*
X520000Y1130305D03*
X520000Y1118494D03*
X418750Y1130305D03*
X418750Y1118494D03*
X317500Y1130305D03*
X317500Y1118494D03*
X497700Y524405D03*
X497700Y512594D03*
X396250Y524205D03*
X396250Y512394D03*
X294900Y524405D03*
X294900Y512594D03*
X508750Y829055D03*
X508750Y817244D03*
X407500Y829055D03*
X407500Y817244D03*
X306250Y829055D03*
X306250Y817244D03*
X104200Y371994D03*
X104200Y383805D03*
X205450Y365744D03*
X205450Y377555D03*
X306700Y364494D03*
X306700Y376305D03*
X407950Y358244D03*
X407950Y370055D03*
X306700Y153244D03*
X306700Y165055D03*
X407950Y146994D03*
X407950Y158805D03*
X104200Y160744D03*
X104200Y172555D03*
X205450Y154494D03*
X205450Y166305D03*
X445450Y50744D03*
X445450Y62555D03*
X414100Y679905D03*
X414100Y668094D03*
X424600Y679905D03*
X424600Y668094D03*
G54D34*
X87950Y339150D03*
X87950Y329150D03*
X87950Y305400D03*
X87950Y295400D03*
X87950Y271650D03*
X87950Y261650D03*
X87950Y237900D03*
X87950Y227900D03*
X87950Y204150D03*
X87950Y194150D03*
X87950Y170400D03*
X87950Y160400D03*
X104200Y360400D03*
X104200Y350400D03*
X137950Y359150D03*
X137950Y349150D03*
X171700Y357900D03*
X171700Y347900D03*
X205450Y356650D03*
X205450Y346650D03*
X237950Y355400D03*
X237950Y345400D03*
X272950Y354150D03*
X272950Y344150D03*
X306700Y352900D03*
X306700Y342900D03*
X340450Y351650D03*
X340450Y341650D03*
X374200Y350400D03*
X374200Y340400D03*
X407950Y349150D03*
X407950Y339150D03*
X440450Y347900D03*
X440450Y337900D03*
X475450Y346650D03*
X475450Y336650D03*
X491700Y325400D03*
X491700Y315400D03*
X491700Y291650D03*
X491700Y281650D03*
X491700Y257900D03*
X491700Y247900D03*
X491700Y224150D03*
X491700Y214150D03*
X491700Y190400D03*
X491700Y180400D03*
X491700Y156650D03*
X491700Y146650D03*
X306700Y141650D03*
X306700Y131650D03*
X340450Y140400D03*
X340450Y130400D03*
X374200Y139150D03*
X374200Y129150D03*
X407950Y137900D03*
X407950Y127900D03*
X440450Y136650D03*
X440450Y126650D03*
X475450Y135400D03*
X475450Y125400D03*
X104200Y149150D03*
X104200Y139150D03*
X137950Y147900D03*
X137950Y137900D03*
X171700Y146650D03*
X171700Y136650D03*
X205450Y145400D03*
X205450Y135400D03*
X237950Y144150D03*
X237950Y134150D03*
X272950Y142900D03*
X272950Y132900D03*
X289200Y332900D03*
X289200Y322900D03*
X289200Y299150D03*
X289200Y289150D03*
X289200Y265400D03*
X289200Y255400D03*
X289200Y231650D03*
X289200Y221650D03*
X289200Y197900D03*
X289200Y187900D03*
X289200Y164150D03*
X289200Y154150D03*
G54D35*
X549200Y217900D03*
X539200Y217900D03*
X549200Y227900D03*
X539200Y227900D03*
X549200Y237900D03*
X539200Y237900D03*
X549200Y247900D03*
X539200Y247900D03*
X549200Y257900D03*
X539200Y257900D03*
X400900Y1068850D03*
X340900Y1068850D03*
X400100Y974250D03*
X340100Y974250D03*
G54D36*
X385000Y478150D03*
X385000Y488150D03*
X395000Y478150D03*
X395000Y488150D03*
X405000Y478150D03*
X405000Y488150D03*
X415000Y478150D03*
X415000Y488150D03*
X425000Y478150D03*
X425000Y488150D03*
X127500Y479400D03*
X127500Y489400D03*
X137500Y479400D03*
X137500Y489400D03*
X147500Y479400D03*
X147500Y489400D03*
X157500Y479400D03*
X157500Y489400D03*
X167500Y479400D03*
X167500Y489400D03*
G54D38*
X418650Y764200D03*
X418650Y744200D03*
M02*
